<?xml version="1.0" encoding="UTF-8"?>
<svg id="Capa_1" data-name="Capa 1" xmlns="http://www.w3.org/2000/svg" viewBox="0 0 242.61 141.32">
  <defs>
    <style>
      .cls-1 {
        fill: #ffffff;
      }
    </style>
  </defs>
  <path class="cls-1" d="M5.87,34.16c13.18,13.18,26.35,26.35,39.53,39.53,13.18,13.18,26.35,26.35,39.53,39.53,7.41,7.41,14.82,14.82,22.23,22.23,3.63,3.63,9.01,5.86,14.14,5.86,2.75,.1,5.32-.47,7.71-1.72,2.48-.81,4.63-2.19,6.44-4.14,3.5-3.81,6.1-8.82,5.86-14.14s-2.03-10.31-5.86-14.14c-13.18-13.18-26.35-26.35-39.53-39.53L56.39,28.11c-7.41-7.41-14.82-14.82-22.23-22.23C30.53,2.25,25.14,.02,20.02,.02c-2.75-.1-5.32,.47-7.71,1.72-2.48,.81-4.63,2.19-6.44,4.14C2.37,9.68-.22,14.69,.02,20.02s2.03,10.31,5.86,14.14h0Z"/>
  <path class="cls-1" d="M208.46,5.87c-13.18,13.18-26.35,26.35-39.53,39.53-13.18,13.18-26.35,26.35-39.53,39.53l-22.23,22.23c-3.63,3.63-5.86,9.01-5.86,14.14-.1,2.75,.47,5.32,1.72,7.71,.81,2.48,2.19,4.63,4.14,6.44,3.81,3.5,8.82,6.1,14.14,5.86s10.31-2.03,14.14-5.86c13.18-13.18,26.35-26.35,39.53-39.53,13.18-13.18,26.35-26.35,39.53-39.53l22.23-22.23c3.63-3.63,5.86-9.01,5.86-14.14,.1-2.75-.47-5.32-1.72-7.71-.81-2.48-2.19-4.63-4.14-6.44C232.93,2.37,227.92-.22,222.6,.02s-10.31,2.03-14.14,5.86h0Z"/>
</svg>