<svg id="Capa_1" data-name="Capa 1" xmlns="http://www.w3.org/2000/svg" viewBox="0 0 163.18 175.87"><defs><style>.cls-1{fill:#1e1c19;}.cls-2{fill:#010202;}.cls-3{fill:#ffe169;}.cls-4{fill:none;stroke:#1e1c19;stroke-miterlimit:10;stroke-width:5px;}</style></defs><path class="cls-1" d="M240,509.61a7.73,7.73,0,0,1-2.08-4.56c-.92-1.65-.9-3.54-1.3-5.32-.12-.54-.18-1.11-.35-1.65-.2-1.58-.67-3.1-.88-4.67-.11-.86,0-1.88-1.33-1.83-1.77-.18-3.47-.76-5.24-.92-2.17-.58-4.42-.78-6.61-1.3-2.21-.27-4.29-.77-5.48-2.94a4.84,4.84,0,0,1,0-5c1.63-1.84,3.46-3.5,5.17-5.27.33-.31.66-.64,1-1,1.6-1.59,3.19-3.19,4.78-4.78.33-.31.66-.64,1-1l4.77-4.78c.34-.32.66-.64,1-1,1.6-1.59,3.2-3.2,4.8-4.8.35-.34.68-.68,1-1,.52-.43.94-1.35,1.66-1.08s.52,1.3.76,2c.31,1.94.49,3.89.84,5.82a13.82,13.82,0,0,0,7.76,10.6,9.64,9.64,0,0,0,2.13.81,11.12,11.12,0,0,0,1.7.34,20.79,20.79,0,0,0,7.37-.55,3.43,3.43,0,0,1,.46-.11c2-.09,3.88-.7,5.85-.9,1.82,0,3.56-.95,5.43-.51.95.34,1.47,1.2,2.19,1.81,1.56,1.67,1.56,1.69-.06,3.33L274.71,481c-2.23,2.18-4.43,4.41-6.64,6.63-1.65,1.61-3.27,3.26-4.9,4.9-2.22,2.19-4.41,4.4-6.61,6.61s-4.24,4.22-6.35,6.35c-1.22,1.2-2.46,2.4-3.63,3.65a3.9,3.9,0,0,1-2.57,1.33h-2.3C241.2,510.12,240.31,510.43,240,509.61Z" transform="translate(-216.05 -334.64)"/><path class="cls-1" d="M353.58,510.25l-2.31,0-1.75-1.05c-.68,0-1-.5-1.4-.89-1.6-1.57-3.18-3.18-4.78-4.76-1-1.09-2.12-2.15-3.2-3.21q-4.14-4.17-8.32-8.3c-1.52-1.56-3.07-3.09-4.62-4.63q-3.57-3.61-7.21-7.2c-.36-.37-.72-.74-1.09-1.1-1.57-1.59-1.57-1.64,0-3.27.72-.61,1.24-1.46,2.17-1.81,1.84-.45,3.56.45,5.36.49a50.23,50.23,0,0,0,5.84.9,3.4,3.4,0,0,1,.46.09,18.49,18.49,0,0,0,9,.26,10.66,10.66,0,0,0,2.2-.78,13.62,13.62,0,0,0,5.45-4.64A12.51,12.51,0,0,0,351.6,465c.52-2.13.69-4.31,1-6.47a1.26,1.26,0,0,1,.05-.28c.24-.59,0-1.53.7-1.74s1.15.65,1.68,1.08c.33.35.66.7,1,1,1.58,1.61,3.2,3.2,4.8,4.81.32.33.64.66,1,1l4.78,4.78c.32.33.64.66,1,1,1.58,1.6,3.18,3.18,4.77,4.77.32.33.64.66,1,1,1.7,1.77,3.54,3.4,5.16,5.26a3.71,3.71,0,0,1,.39.77,4.62,4.62,0,0,1-.32,4.2c-1.19,2.16-3.26,2.68-5.48,2.94-2.15.6-4.41.7-6.56,1.29a39.58,39.58,0,0,0-6.28,1.31,3.39,3.39,0,0,0-.35,1.43c-.22,1.57-.68,3.1-.87,4.67-.51,2.31-.93,4.64-1.34,7a10,10,0,0,1-.76,2.9A4.28,4.28,0,0,1,353.58,510.25Z" transform="translate(-216.05 -334.64)"/><path class="cls-1" d="M365.21,421c-.5-.91-.94-1.85-1.42-2.77a19.76,19.76,0,0,1-1.55-2.86c-.81-2.07-2.41-3.79-2.73-6.08a8.23,8.23,0,0,1,.54-5.29c.75-2,2-3.64,2.78-5.61.11-.25.23-.5.35-.74.92-1.88,2-3.67,2.95-5.55a9.86,9.86,0,0,0,1.14-5.54,9.4,9.4,0,0,0-3.06-5.72c-2-1.5-4.41-2.37-6.62-3.54-1.5-.83-3.06-1.54-4.62-2.25a6.79,6.79,0,0,1-1.26-.71c-2.42-1.09-4.44-2.57-5.37-5.23a27.61,27.61,0,0,1-1-5.77c-.43-2-.63-4-.93-6a27.82,27.82,0,0,0-1.09-5c-.4-1.66-1.64-2.71-2.8-3.81a9.48,9.48,0,0,0-5.65-2c-2.11.19-4.19.59-6.28.95-1.41.29-2.85.29-4.24.69-2.13.2-4.22.82-6.39.64a7,7,0,0,1-5.13-2.72c-.25-.24-.49-.47-.72-.71-1.71-1.7-3.42-3.39-5.11-5.1l-.71-.73c-.91-.92-1.8-1.86-2.75-2.74a7.35,7.35,0,0,0-5.37-2.2l-2,.05a12.45,12.45,0,0,0-3.59,1.84c-1.24,1.09-2.39,2.28-3.58,3.42l-.51.52a3.63,3.63,0,0,0-1.49,1c-1.3,1.3-2.6,2.61-3.91,3.9-.23.24-.48.47-.72.71a7.26,7.26,0,0,1-4.88,2.74c-2.25.29-4.39-.49-6.59-.65-1.57-.41-3.21-.45-4.79-.78-1.94-.37-3.89-.65-5.85-.89a9.7,9.7,0,0,0-5.59,2c-1.16,1.09-2.38,2.14-2.78,3.78-.74,1.79-.78,3.74-1.18,5.6s-.42,3.68-.88,5.49c-.27,2.16-.26,4.37-1.27,6.38-.94,2.51-3.07,3.64-5.33,4.64-.41.23-.83.43-1.26.63-1.43.78-2.9,1.49-4.34,2.25a64.19,64.19,0,0,0-6.1,3.18c-2.16,1.46-3.07,3.65-3.56,6.1a9.69,9.69,0,0,0,1.15,5.51c.7,1.46,1.57,2.81,2.29,4.25.24.49.4,1,.69,1.5.88,2.1,2.19,4,3.07,6.07a7.74,7.74,0,0,1,.55,5.47c-.45,2.2-1.88,4-2.74,6a30.3,30.3,0,0,1-1.55,2.86c-.46.93-.9,1.87-1.41,2.77a15.49,15.49,0,0,0-2.1,5.77,8.91,8.91,0,0,0,1.7,5.73c.52.76,1.2,1.38,1.77,2.09a13.58,13.58,0,0,0,3.08,1.58,2.62,2.62,0,0,1,1.18.66A5.35,5.35,0,0,0,237.8,438a40.59,40.59,0,0,1,5.34,2.41c1.75.93,3.6,1.72,4.8,3.43a6.39,6.39,0,0,1,.84,1.62,12.35,12.35,0,0,1,.87,4.07c.23,2.33.78,4.61,1,6.93.22,1.46.49,2.92.67,4.38a9,9,0,0,0,3.23,5.46,6.76,6.76,0,0,0,1.09.82c1.85,1.26,3.95,1.13,6,1.11,1-.08,2-.29,3.08-.41,1.4-.47,2.91-.44,4.32-.86a4.51,4.51,0,0,1,1.59-.19c1.29-.24,2.62-.31,3.89-.66a7.57,7.57,0,0,1,3.28-.07,8.93,8.93,0,0,1,2.29.92c1.33.5,2.12,1.67,3.19,2.51a23.36,23.36,0,0,1,3.19,3.33c.8,1,1.75,1.78,2.6,2.69a44,44,0,0,0,3.2,3.05,8.4,8.4,0,0,0,3.14,1.72,6.67,6.67,0,0,0,4.3,0,8.42,8.42,0,0,0,3.14-1.73,41.79,41.79,0,0,0,3.2-3c.85-.91,1.8-1.73,2.6-2.69a29,29,0,0,1,3.18-3.38,10,10,0,0,1,3.21-2.48,10.36,10.36,0,0,1,2.27-.91,5.24,5.24,0,0,1,3.18.2,14.57,14.57,0,0,0,4,.57,3.88,3.88,0,0,1,1.59.16c1,.33,2.14.34,3.19.6a32,32,0,0,0,4.24.67c2.08,0,4.17.13,6-1.12a7.69,7.69,0,0,0,1.09-.81,9.32,9.32,0,0,0,3.2-5.15c.41-2,.38-4,.94-5.91.14-1.92.64-3.8.81-5.72a12.34,12.34,0,0,1,.86-4.07,6.71,6.71,0,0,1,.85-1.61,11.91,11.91,0,0,1,4.75-3.42c1.48-.82,3.05-1.43,4.52-2.25.4-.24.83-.44,1.25-.64,2-1,4.07-2,6-3.16a8.54,8.54,0,0,0,1.78-1.87,8.92,8.92,0,0,0,1.68-5.76A15.57,15.57,0,0,0,365.21,421Zm-16.09-9.64a58,58,0,0,1-1,6.71,10.29,10.29,0,0,1-.39,1.57,31.79,31.79,0,0,1-1.41,4.89,54.45,54.45,0,0,1-3,7c-.72,1.12-1.33,2.32-2,3.46s-1.64,2.21-2.31,3.42a37.86,37.86,0,0,1-4.45,5,50.59,50.59,0,0,1-6.71,6,12.85,12.85,0,0,1-3.54,2.07L321,453.34c-1.48,1.52-3.51,2-5.35,2.85-.64.29-1.35.45-2,.71-1.59.56-3.23,1-4.87,1.36l-1.24.31c-1.81.36-3.66.5-5.48.78a40.46,40.46,0,0,1-8.8,0c-1.83-.2-3.65-.48-5.46-.8-.33-.08-.66-.2-1-.29a43.43,43.43,0,0,1-5.12-1.37,47.05,47.05,0,0,1-7.47-3.23,35.79,35.79,0,0,1-3.31-1.85c-1.15-.76-2.31-1.5-3.43-2.32a50,50,0,0,1-6.71-6.05,37.24,37.24,0,0,1-4.45-5c-.66-1.21-1.6-2.23-2.31-3.41s-1.31-2.33-2-3.47a55.74,55.74,0,0,1-3-7,31.67,31.67,0,0,1-1.41-4.88,12,12,0,0,1-.39-1.57,60.14,60.14,0,0,1-1-6.7c-.1-2.11-.07-4.22,0-6.33a44.29,44.29,0,0,1,.75-6.28c.36-1,.3-2.08.69-3.06.49-1.31.45-2.76,1-4.05,1.16-2.32,1.69-4.91,3.06-7.14a71.72,71.72,0,0,1,3.74-6.4,60.38,60.38,0,0,1,9.42-10.21c.86-.71,1.76-1.34,2.65-2,2.06-1.78,4.54-2.9,6.82-4.33a63.94,63.94,0,0,1,7.27-3,10.72,10.72,0,0,1,1.44-.51c1.58-.5,3.19-.86,4.81-1.24,2.19-.55,4.47-.59,6.68-1.05a48.21,48.21,0,0,1,6.36,0c1.51.24,3,.5,4.55.65a3.12,3.12,0,0,1,2.24.84l4.71,1.2a1.19,1.19,0,0,1,1.32.4l7.32,3.05c3.51,1.2,6.33,3.51,9.17,5.77a16.81,16.81,0,0,1,3.94,3.73,44.3,44.3,0,0,1,5.76,6.69,19.47,19.47,0,0,0,1.46,2.34,34.78,34.78,0,0,1,2.34,4.11,40.91,40.91,0,0,1,3,7.22c.49,1.29.7,2.66,1.09,4,.39,1,.34,2,.68,3a43.73,43.73,0,0,1,.77,6.25C349.19,407.15,349.23,409.26,349.12,411.36Z" transform="translate(-216.05 -334.64)"/><path class="cls-2" d="M322.22,401.32a6.75,6.75,0,0,1-2.07,4.76c-1.87,1.87-3.75,3.82-5.63,5.67a2.13,2.13,0,0,0-.71,2.23c.55,2.5.94,5,1.31,7.59.44,2.82-.18,5.29-2.49,7a6,6,0,0,1-7,.4c-2.31-1.25-4.62-2.48-6.89-3.75a2,2,0,0,0-2.27,0c-2.28,1.3-4.61,2.51-6.91,3.75a5.94,5.94,0,0,1-7-.4,6.56,6.56,0,0,1-2.45-6.82c.4-2.18.53-4.42,1.07-6.57a3.75,3.75,0,0,0-1.25-4.31c-1.69-1.46-3.21-3.12-4.78-4.69a6.71,6.71,0,0,1-1.79-7.25A6.22,6.22,0,0,1,279,394.6c2.11-.25,4.19-.66,6.3-.88A3.9,3.9,0,0,0,289,390.9c.78-2,1.87-4,2.81-5.95,1.19-2.54,3.13-4,5.82-4.05a6.43,6.43,0,0,1,6,4.1,56.12,56.12,0,0,1,2.67,5.79c.71,2.13,2.12,2.67,4,2.9,2.18.25,4.34.56,6.5.94A6.55,6.55,0,0,1,322.22,401.32Z" transform="translate(-216.05 -334.64)"/><path class="cls-3" d="M309.82,424.66c-3.47-1.88-6.65-3.56-9.79-5.32a4.43,4.43,0,0,0-4.75,0c-2.49,1.44-5,2.76-7.57,4.1-.68.37-1.33,1-2.2.58.63-3.64,1.27-7.27,1.89-10.9a4.71,4.71,0,0,0-1.44-4.31c-2.44-2.63-4.75-5.4-7.08-8.08,2.57-.4,5.64-1,8.75-1.32,2.64-.25,4.46-1.25,5.55-4,1.23-3.07,2.81-6,4.46-9.42,1.65,3.41,3.26,6.35,4.51,9.44a5.74,5.74,0,0,0,5.33,3.91c3.17.31,6.31.9,8.89,1.29-2.17,2.53-4.43,5.31-6.85,7.92a5.09,5.09,0,0,0-1.53,4.9C308.74,417.12,309.18,420.7,309.82,424.66Z" transform="translate(-216.05 -334.64)"/><circle class="cls-4" cx="81.59" cy="72.99" r="41.89"/></svg>