<?xml version="1.0" encoding="UTF-8"?>
<svg id="Capa_1" data-name="Capa 1" xmlns="http://www.w3.org/2000/svg" viewBox="0 0 950 550.89">
  <defs>
    <style>
      .cls-1 {
        fill: #272727;
      }

      .cls-2 {
        fill: #ffde00;
      }
    </style>
  </defs>
  <rect class="cls-1" y="0" width="950" height="550.89"/>
  <polygon class="cls-2" points="112.34 142.31 60.91 158.99 20.75 122.79 32.02 69.91 83.45 53.23 123.62 89.43 112.34 142.31"/>
  <polyline class="cls-2" points="304.92 550.89 300.81 549.51 286.37 478.01 341.07 429.76 410.2 453 424.64 524.5 394.73 550.89"/>
  <polygon class="cls-2" points="359.9 94.27 339.7 70.01 350.61 40.39 381.71 35.03 401.91 59.28 391.01 88.9 359.9 94.27"/>
  <polyline class="cls-2" points="897.44 0 902.14 23.24 847.44 71.5 778.3 48.25 768.56 0"/>
  <polygon class="cls-2" points="860.71 495.95 826.43 531.84 778.2 520.1 764.25 472.46 798.54 436.56 846.77 448.31 860.71 495.95"/>
  <polygon class="cls-2" points="572.1 448.12 551.9 423.87 562.8 394.25 593.9 388.88 614.1 413.13 603.2 442.75 572.1 448.12"/>
</svg>