<svg id="visual" viewBox="0 0 960 540" width="960" height="540" xmlns="http://www.w3.org/2000/svg" xmlns:xlink="http://www.w3.org/1999/xlink" version="1.1"><rect x="0" y="0" width="960" height="540" fill="#f6f6f6"></rect><defs><linearGradient id="grad1_0" x1="43.8%" y1="0%" x2="100%" y2="100%"><stop offset="14.444444444444446%" stop-color="#f6f6f6" stop-opacity="1"></stop><stop offset="85.55555555555554%" stop-color="#f6f6f6" stop-opacity="1"></stop></linearGradient></defs><defs><linearGradient id="grad2_0" x1="0%" y1="0%" x2="56.3%" y2="100%"><stop offset="14.444444444444446%" stop-color="#f6f6f6" stop-opacity="1"></stop><stop offset="85.55555555555554%" stop-color="#f6f6f6" stop-opacity="1"></stop></linearGradient></defs><g transform="translate(960, 0)"><path d="M0 486C-57.6 465.9 -115.2 445.8 -176.4 425.9C-237.6 406 -302.5 386.2 -343.7 343.7C-384.9 301.1 -402.4 235.9 -422.2 174.9C-442 113.8 -464 56.9 -486 0L0 0Z" fill="#efefef"></path></g><g transform="translate(0, 540)"><path d="M0 -486C69.3 -484.5 138.6 -483 186 -449C233.4 -415 259 -348.5 301.9 -301.9C344.9 -255.4 405.3 -228.8 438.8 -181.8C472.4 -134.8 479.2 -67.4 486 0L0 0Z" fill="#efefef"></path></g></svg>