<svg id="visual" viewBox="0 0 960 540" width="960" height="540" xmlns="http://www.w3.org/2000/svg" xmlns:xlink="http://www.w3.org/1999/xlink" version="1.1"><rect x="0" y="0" width="960" height="540" fill="#1f1f1f"></rect><defs><linearGradient id="grad1_0" x1="43.8%" y1="100%" x2="100%" y2="0%"><stop offset="14.444444444444446%" stop-color="#1f1f1f" stop-opacity="1"></stop><stop offset="85.55555555555554%" stop-color="#1f1f1f" stop-opacity="1"></stop></linearGradient></defs><defs><linearGradient id="grad2_0" x1="0%" y1="100%" x2="56.3%" y2="0%"><stop offset="14.444444444444446%" stop-color="#1f1f1f" stop-opacity="1"></stop><stop offset="85.55555555555554%" stop-color="#1f1f1f" stop-opacity="1"></stop></linearGradient></defs><g transform="translate(960, 540)"><path d="M-351 0C-322.8 -35.1 -294.5 -70.2 -282.7 -117.1C-270.9 -164 -275.5 -222.8 -248.2 -248.2C-220.8 -273.6 -161.5 -265.6 -114.8 -277.2C-68.1 -288.7 -34.1 -319.9 0 -351L0 0Z" fill="#111111"></path></g><g transform="translate(0, 0)"><path d="M351 0C350.4 50.6 349.8 101.2 324.3 134.3C298.8 167.5 248.3 183.3 215 215C181.6 246.7 165.4 294.3 132.4 319.7C99.4 345 49.7 348 0 351L0 0Z" fill="#111111"></path></g></svg>