<svg id="Capa_1" data-name="Capa 1" xmlns="http://www.w3.org/2000/svg" viewBox="0 0 288.51 319.77"><defs><style>.cls-1{fill:#1d1d1b;}.cls-2{fill:#1c1a00;}.cls-3{fill:#ffe068;}.cls-4{fill:#fff;}.cls-5{fill:#cecece;}</style></defs><path class="cls-1" d="M183.75,324a5.18,5.18,0,0,0,.66-1.53A93.94,93.94,0,0,1,208.56,287c.25-.23.59-.39.69-.75a91.53,91.53,0,0,1,9.75-7.69,92,92,0,0,1,34.28-14.4c.27-.05.54-.14.81-.21.3-.23.68,0,1-.18a3,3,0,0,0,1.29-.22c.31-.19.68,0,1-.16a.09.09,0,0,0,.14,0c.37-.22.81,0,1.18-.17l.34,0c.32-.17.7,0,1-.15l.3,0c.45-.22.95,0,1.4-.16l.49,0c.52-.2,1.08.05,1.59-.15l.49,0c.83-.24,1.69.07,2.52-.16l.89,0a61.42,61.42,0,0,1,7.18,0l.88,0c.83.23,1.7-.08,2.52.16l.5,0c.51.2,1.07-.05,1.58.15l.5,0c.45.2.95-.06,1.39.16l.31,0c.32.16.69,0,1,.15l.34,0c.37.21.8-.05,1.17.17a.1.1,0,0,0,.15,0c.3.19.68,0,1,.16a2.23,2.23,0,0,0,1.29.21c.3.21.69,0,1,.19,2.12.5,4.24,1,6.35,1.52a91.87,91.87,0,0,1,24.38,10.41,94.91,94.91,0,0,1,32.41,33A90.65,90.65,0,0,1,360,327.78a86.36,86.36,0,0,1,3,12.71,4.89,4.89,0,0,0,.19.62c.19.31,0,.68.17,1a.09.09,0,0,0,0,.14c.22.38,0,.82.17,1.2l0,.32c.2.38,0,.82.16,1.2l0,.31c.23.5,0,1.06.17,1.57l0,.51c.21.58,0,1.2.16,1.78l0,.87c.22,1-.06,2.08.16,3.11v4.54c-.22,1,.06,2.09-.16,3.12l0,.86c-.22.65.07,1.34-.17,2l0,.32c-.21.51.06,1.06-.17,1.57l0,.32c-.19.38,0,.81-.16,1.19l0,.33c-.2.38.05.81-.16,1.18a2.76,2.76,0,0,0-.21,1.47c-.19.31,0,.69-.17,1a.1.1,0,0,0,0,.15c-.2.3,0,.69-.18,1-.44,1.9-.86,3.81-1.33,5.71a92.11,92.11,0,0,1-17.78,35.71c-2.17,2.68-4.52,5.21-6.8,7.8a122.81,122.81,0,0,0-14.55,20,56.89,56.89,0,0,0-6,14.35,15.51,15.51,0,0,0-.69,4c-.19.38.05.82-.16,1.2s.14.47.42.58a13,13,0,0,1,8.48,10.33,3.2,3.2,0,0,0,.17.43,13.9,13.9,0,0,1,0,3.41,15.64,15.64,0,0,1-2.09,5.44,13.23,13.23,0,0,1-4.32,4.23c-.54.32-.66.6-.28,1.2a13.61,13.61,0,0,1,1.58,4.82,8.41,8.41,0,0,1,0,2.65l0,.33c-.19.31,0,.69-.17,1a16.61,16.61,0,0,1-2.47,5.29,13,13,0,0,1-7.16,4.9,2.1,2.1,0,0,0-1.74,1.66A37.44,37.44,0,0,1,296,525.8a38.76,38.76,0,0,1-11.71,6.85,54.07,54.07,0,0,1-6.61,1.87,4.54,4.54,0,0,1-.74,0c-.37.21-.81,0-1.19.16l-.32,0c-.58.22-1.19,0-1.77.16l-.69,0a13.81,13.81,0,0,1-3.4,0l-.69,0c-.58-.21-1.2.06-1.77-.17l-.32,0c-.38-.19-.82,0-1.2-.17l-.06,0-.08,0c-.31-.2-.69,0-1-.18a27.27,27.27,0,0,1-6.16-1.61,37.17,37.17,0,0,1-12.4-7.39,39.17,39.17,0,0,1-7.87-9.75,35.55,35.55,0,0,1-3.77-9.32c-.1-.39-.3-.43-.64-.52a14.21,14.21,0,0,1-5.36-2.52,13.25,13.25,0,0,1-5-8c-.21-.31,0-.69-.17-1l0-.31a7.86,7.86,0,0,1,0-2.65l0-.32c.18-.31,0-.69.17-1a9.1,9.1,0,0,1,1.3-3.57c.27-.48.22-.72-.26-1a14,14,0,0,1-6.08-8,3.31,3.31,0,0,1-.06-.64c-.22-.3,0-.68-.18-1a.1.1,0,0,0,0-.14,12.56,12.56,0,0,1,0-3.41,12.9,12.9,0,0,1,2.69-6.56,13.81,13.81,0,0,1,5.54-4.2c.31-.14.74-.14.84-.58-.22-.39,0-.84-.17-1.23l0-.29c-.21-.3,0-.67-.17-1-.45-1.65-.73-3.33-1.26-5A63.53,63.53,0,0,0,221,442.85a101.88,101.88,0,0,0-9.64-14.52c-2.65-3.41-5.45-6.69-8.36-9.88a96.55,96.55,0,0,1-9.63-12.35,94,94,0,0,1-5.34-9.3,97,97,0,0,1-5.59-13.8c-1-3-1.66-6.14-2.4-9.22-.32-1.35-.43-2.75-.63-4.12-.19-.31,0-.68-.16-1a.1.1,0,0,0,0-.15c-.22-.37,0-.82-.17-1.2l0-.31c-.2-.39,0-.83-.16-1.22l0-.29c-.24-.51,0-1.08-.17-1.59l0-.49c-.22-.64.05-1.32-.16-2l0-.69c-.24-1.21.07-2.45-.16-3.67a27.18,27.18,0,0,0,0-3.61c.23-1.16-.08-2.34.16-3.49l0-.69c.21-.64-.07-1.32.16-2l0-.49c.2-.52-.07-1.08.17-1.59l0-.29c.18-.39-.05-.84.16-1.22l0-.3c.16-.33,0-.7.15-1l0-.32c.18-.31,0-.69.17-1a75.85,75.85,0,0,1,2.12-10C182.17,328.72,183,326.38,183.75,324Z" transform="translate(-127.04 -215.26)"/><path class="cls-2" d="M357,414.84c2.91.94,5.36,2.77,8,4.24,4.88,2.73,9.68,5.58,14.51,8.37,3.32,1.92,6.65,3.82,10,5.76a5.7,5.7,0,0,1,2.54,3.57,3.53,3.53,0,0,1,0,1.71,7.11,7.11,0,0,1-1.78,3,5.59,5.59,0,0,1-6.32.55c-2.13-1.41-4.42-2.58-6.63-3.87l-8.16-4.74c-2.19-1.27-4.39-2.5-6.57-3.76-3.14-1.81-6.29-3.59-9.37-5.49a4.39,4.39,0,0,1-2-3.49,2.37,2.37,0,0,1,0-1.32,4.83,4.83,0,0,1,3.74-4.34,3.45,3.45,0,0,0,.62-.2A2.87,2.87,0,0,1,357,414.84Z" transform="translate(-127.04 -215.26)"/><path class="cls-2" d="M187.15,414.85a5.55,5.55,0,0,1,3.91,3.13c.19.45.31.94.46,1.41a2.37,2.37,0,0,1,0,1.32c-.55,2.92-2.94,4-5.18,5.29-2.79,1.58-5.54,3.24-8.32,4.84-2.61,1.5-5.25,3-7.86,4.47-2.27,1.31-4.5,2.68-6.79,3.94a45.73,45.73,0,0,1-5.89,3.25,4.91,4.91,0,0,1-5.89-1.77,4,4,0,0,1-.92-2.24,3.53,3.53,0,0,1,0-1.71c.19-1.95,1.46-3.12,3-4q10-5.77,20-11.52c3.16-1.82,6.31-3.67,9.46-5.5a10.9,10.9,0,0,1,2.28-.89A3.38,3.38,0,0,1,187.15,414.85Z" transform="translate(-127.04 -215.26)"/><path class="cls-2" d="M371.87,369.85a4.86,4.86,0,0,1,3.21-3.76,5.36,5.36,0,0,1,.78-.23c.33-.16.71,0,1-.15.25,0,.5.05.75.05h32c.25,0,.5,0,.75-.05.39.19.84,0,1.22.17a5.32,5.32,0,0,1,3.63,3.59,18.4,18.4,0,0,1,.32,1.83c-.18.31,0,.7-.17,1a6.08,6.08,0,0,1-3.63,3.69,2.93,2.93,0,0,1-.53.1,1.69,1.69,0,0,1-.83.08H376.88a1.59,1.59,0,0,1-.83-.09,5,5,0,0,1-4.17-4A6.92,6.92,0,0,1,371.87,369.85Z" transform="translate(-127.04 -215.26)"/><path class="cls-2" d="M127.25,369.48a5.75,5.75,0,0,1,3.57-3.55l.18-.05c.38-.22.83,0,1.21-.17.25,0,.5.05.75.05h32c.25,0,.5,0,.75-.05.33.16.7,0,1,.15a5.8,5.8,0,0,1,4,4,6.66,6.66,0,0,1,0,2.27,5.81,5.81,0,0,1-2.58,3.35,4.23,4.23,0,0,1-1.59.62,1.56,1.56,0,0,1-.83.09h-33.5a1.67,1.67,0,0,1-.83-.08,5,5,0,0,1-4.16-3.79c-.22-.31,0-.7-.18-1C127.26,370.71,126.82,370.05,127.25,369.48Z" transform="translate(-127.04 -215.26)"/><path class="cls-2" d="M369.91,319.34a.35.35,0,0,0-.39,0c-.32-.16-.71,0-1-.16a5.22,5.22,0,0,1-3.95-4.3,5.33,5.33,0,0,1,3-5.58q11.21-6.48,22.44-12.94a48.26,48.26,0,0,1,5-2.76,5.16,5.16,0,0,1,7.31,4.58,5,5,0,0,1-2.56,4.59c-3.05,1.79-6.11,3.6-9.17,5.37s-6.16,3.5-9.23,5.26-6,3.48-9,5.2a11.82,11.82,0,0,1-1.36.58C370.62,319.36,370.24,319.18,369.91,319.34Z" transform="translate(-127.04 -215.26)"/><path class="cls-2" d="M350.69,242.3a.36.36,0,0,0,0,.4c-.16.32,0,.71-.16,1-1.94,3.91-4.29,7.59-6.44,11.39-2.68,4.74-5.45,9.44-8.16,14.18a5.84,5.84,0,0,1-3.75,3,4.46,4.46,0,0,1-1.89,0,4.93,4.93,0,0,1-4.17-4c-.18-.39,0-.83-.16-1.22h0c.16-.33,0-.71.15-1,.1-1.25.95-2.17,1.52-3.21,1.3-2.4,2.69-4.75,4.06-7.11,1.27-2.17,2.58-4.32,3.84-6.51s2.53-4.63,3.92-6.87c.81-1.3,1.34-2.78,2.56-3.82a6.79,6.79,0,0,1,2.84-1.23,2.2,2.2,0,0,1,1.32,0,5.48,5.48,0,0,1,3.6,2.4c.29.51.51,1.05.77,1.57C350.71,241.6,350.53,242,350.69,242.3Z" transform="translate(-127.04 -215.26)"/><path class="cls-2" d="M203.79,264.53c0-.38-.25-.63-.42-.92q-5.31-9.21-10.61-18.4a5.16,5.16,0,1,1,8.81-5.37c.75,1.23,1.48,2.48,2.21,3.72,1.08,2.17,2.37,4.22,3.58,6.32,2.86,5,5.74,9.92,8.59,14.89a9.44,9.44,0,0,1,.53,1.27c.16.33,0,.71.15,1h0c-.18.39,0,.83-.15,1.22a6.28,6.28,0,0,1-2.54,3.35,9.39,9.39,0,0,1-1.64.63,4.46,4.46,0,0,1-1.89,0,4.56,4.56,0,0,1-3.11-1.86C206,268.55,205,266.48,203.79,264.53Z" transform="translate(-127.04 -215.26)"/><path class="cls-2" d="M271.86,215.36a5.91,5.91,0,0,1,3.72,2.31c.39.58.47,1.28.83,1.86a1.67,1.67,0,0,1,.08.83v28.39a1.72,1.72,0,0,1-.08.84A6.28,6.28,0,0,1,274,253a10,10,0,0,1-2,.76,2.59,2.59,0,0,1-1.51,0,5,5,0,0,1-4.36-4.16,1.84,1.84,0,0,1-.08-.84V220.36a1.69,1.69,0,0,1,.08-.83,4.9,4.9,0,0,1,3.55-3.93l1-.25A1.75,1.75,0,0,1,271.86,215.36Z" transform="translate(-127.04 -215.26)"/><rect class="cls-3" x="108.06" y="139.82" width="72.41" height="105.26"/><path class="cls-2" d="M178,313.81a5.2,5.2,0,0,1-7.82,4.73c-5.14-2.93-10.25-5.91-15.37-8.87-4-2.3-8-4.58-11.93-6.91a4.87,4.87,0,0,1-2.53-5,4.92,4.92,0,0,1,3.54-4.35,4.78,4.78,0,0,1,4.1.41q13.74,7.92,27.47,15.86A4.94,4.94,0,0,1,178,313.81Z" transform="translate(-127.04 -215.26)"/><path class="cls-4" d="M285.13,423.72q-.58-17.66-1.19-35.33c0-.77.07-1.11,1-1.24a47.7,47.7,0,0,0,12.47-3.32,23.09,23.09,0,0,0,4.55-2.67c6.86-5.09,4.09-15.25-2.18-17.93a17.91,17.91,0,0,0-6.79-1.42,26.29,26.29,0,0,0-8.69,1,8.89,8.89,0,0,0-6.57,8.53c-.16,3.27.14,6.55.24,9.82,0,.78-.16,1-.95,1a109,109,0,0,1-11.43,0c-.71,0-1-.2-.92-1,.13-2.55.18-5.1.26-7.65.23-6.83-2.54-10.3-9.27-11.39a24.83,24.83,0,0,0-10.78.28,11,11,0,0,0-8,13.08,10,10,0,0,0,3.8,5.6,27.32,27.32,0,0,0,9.89,4.53,53.68,53.68,0,0,0,7.3,1.49c.67.09.81.33.78.94q-.46,13.28-.89,26.55l-.84,25.69c-.21,6.33-.44,12.66-.61,19,0,.85-.28,1-1.09,1q-9.45,0-18.9,0c-.68,0-1-.12-1.05-.89-1.15-9.62-5.07-18.19-10.18-26.28a155.29,155.29,0,0,0-16.43-20.95c-11.41-12.6-18.67-27.26-21-44.09-3.88-27.45,3.89-51.39,22.93-71.49A80.19,80.19,0,0,1,256.65,272c28.36-4.65,53.1,3.17,73.82,23.06A80,80,0,0,1,354.1,338c5.55,28-1.27,52.81-20.13,74.24-6.12,7-12.13,14-17,21.91a65.5,65.5,0,0,0-9,21.67c-.26,1.3-.46,2.61-.62,3.92-.06.51-.21.69-.74.68-6.49,0-13,0-19.48,0-.71,0-.74-.34-.76-.85q-.19-6-.4-12.1l-.78-23.71Z" transform="translate(-127.04 -215.26)"/><path class="cls-4" d="M263.25,424.1q.54-16.25,1.07-32.49c0-1,.1-2,.11-3,0-.45.08-.68.63-.64a94.2,94.2,0,0,0,12.46,0c.75-.06.63.39.65.81q.33,9.87.67,19.74.86,25.22,1.69,50.43c.05,1.43,0,1.43-1.42,1.43-5.36,0-10.71,0-16.07,0-.74,0-1-.12-1-1Q262.69,441.77,263.25,424.1Z" transform="translate(-127.04 -215.26)"/><path class="cls-4" d="M271.3,479H231.7a5.2,5.2,0,0,1-5.44-4.37,5.27,5.27,0,0,1,5-6h79.49c3.11,0,5.31,1.84,5.65,4.7a5.16,5.16,0,0,1-4.52,5.65,11.64,11.64,0,0,1-1.32,0Z" transform="translate(-127.04 -215.26)"/><path class="cls-5" d="M271.3,506h27.41c1,0,1,0,.68,1a29.91,29.91,0,0,1-56.22-.08c-.31-.86-.09-.95.71-.95C253,506,262.16,506,271.3,506Z" transform="translate(-127.04 -215.26)"/><path class="cls-4" d="M271.3,497.7H236.9a5.21,5.21,0,1,1-.6-10.4h69.45a5.28,5.28,0,0,1,5.27,6.83,5.21,5.21,0,0,1-4.86,3.57c-2.11,0-4.22,0-6.33,0Z" transform="translate(-127.04 -215.26)"/><path class="cls-4" d="M258.89,375.89c0,1.54,0,3.08,0,4.62,0,.46-.16.6-.62.52-4.3-.7-8.54-1.61-12.4-3.74a10.58,10.58,0,0,1-1.27-.82c-1.53-1.1-2.47-2.44-2.07-4.49a5,5,0,0,1,3.28-4.13,16.34,16.34,0,0,1,6.91-.58,18.87,18.87,0,0,1,3.18.44c2.44.61,3.27,1.63,3.28,4.12,0,1.35,0,2.7,0,4.06Z" transform="translate(-127.04 -215.26)"/><path class="cls-4" d="M292.08,367.18a13.27,13.27,0,0,1,4.46.58c2.69.9,3.64,2.89,3.6,5.66a3.5,3.5,0,0,1-1.49,2.54,17,17,0,0,1-5.46,2.94,49.87,49.87,0,0,1-8.61,2.11c-.61.1-.88,0-.89-.69-.05-2.71-.2-5.42-.27-8.13-.07-2.91.89-4.07,3.76-4.58A25.17,25.17,0,0,1,292.08,367.18Z" transform="translate(-127.04 -215.26)"/></svg>