<svg id="Capa_1" data-name="Capa 1" xmlns="http://www.w3.org/2000/svg" viewBox="0 0 291.23 379.83"><defs><style>.cls-1{fill:#ffe068;}.cls-2{fill:#1d1d1b;}</style></defs><path class="cls-1" d="M120.94,245.55c-27.84-26.35-32.07-66.87-11-97A75,75,0,0,1,204.57,124c32.06,15.55,49.12,53.05,38.89,86.24-5-3.66-10.24-6.59-16.48-7.22-2.42-.25-.82-2.06-.68-3.1,1.86-14-.44-27.06-8.17-39a55.76,55.76,0,0,0-69.82-20.19,54.65,54.65,0,0,0-29.76,65.52,57.69,57.69,0,0,1,2.4,18C120.87,231,120.94,237.76,120.94,245.55Z" transform="translate(-62.04 -116.34)"/><path class="cls-2" d="M353.27,381.54c-1-2.93-.22-6-.47-8.94,0-21.71,0-43.42,0-65.14,0-4.62.36-9.26-.28-13.87-1.56-24.19-25.57-38.8-46.19-28-2.64,1.38-3.55,1.32-4.91-1.8-8.28-19-26.64-26.17-43.9-17.14-3,1.55-3.49.47-4.65-2.07-6.45-14.08-16.74-21.27-31.41-20.71-4.77.19-9,2.31-13.93,3.65,0-13.47.44-26.6-.1-39.68-.92-22-20.7-37.54-40.18-32-15.88,4.51-25.58,18.29-25.61,36.82q-.09,66.73-.05,133.47c0,1.69.6,3.55-1,6-6.17-7-12.08-13.84-18.16-20.53-10.83-11.93-23.93-13.93-37.76-8.56-13.6,5.27-20,17.35-22.27,32.41-.58,3-.11,6-.26,9-.53,8.69,3.27,15.31,8.53,21.18,30.71,34.3,62.24,67.7,93.68,101.19A88.88,88.88,0,0,0,215,494.38c5.07.86,10.23.57,15.26,1.79h6.38a1.11,1.11,0,0,1,1.82,0h5.47a42.49,42.49,0,0,1,14.58,0h7.29c3.53-1,7.16-.62,10.74-1,15.82-1.55,30.68-6.47,43.88-16.16,16.33-12,24.94-29.66,29.45-50.18,2.13-9.69,2.23-19.6,3.43-29.39v-4c-.89-1.15-.3-2.52-.47-3.78v-3.85c.05-.81-.19-1.68.47-2.34ZM334,410.15a96.26,96.26,0,0,1-4.82,24.71c-6,18-17.82,29.76-34.26,34.92-30.54,9.59-61.33,9.69-91.84-.64-10.42-3.53-19.48-10-27.24-18.39q-44.4-48-88.65-96.1c-6.72-7.3-7.83-15.54-3.42-23.34,4.55-8,13.07-11.44,21.35-8.58a18.56,18.56,0,0,1,7.48,5.42q21.47,23.39,43,46.71a25.18,25.18,0,0,1,2.33,3.62l1.35-.94v-5.45q0-86.44,0-172.9a44,44,0,0,1,.21-6c1.32-9.78,8.13-15.7,17.25-15.11,7.58.49,13.24,7.61,13.28,17.18.08,22.92,0,45.84,0,68.76q0,24.42,0,48.84c0,6.2,3.57,10.53,8.59,10.68s8.92-4.09,9-10.25c.13-16.11,0-32.22.17-48.32.11-10.49,5.8-17.63,14-18.05,9.88-.51,16.48,6.23,16.53,17.17.09,21.09,0,42.18.07,63.28,0,7.15,3.31,11.31,8.82,11.31s8.73-3.94,8.79-11.29c.11-14.12.09-28.23.12-42.35,0-5.65,1-10.93,5.07-14.87,4.85-4.65,10.21-5.2,16.07-2.47,5.65,2.64,9.38,6.91,9.46,13.83.17,15.61.08,31.22.11,46.83,0,3.66,0,7.31.07,11,.15,6.49,3.82,11,8.89,11s8.64-4.33,8.72-11.08c.15-12.95,0-25.9.23-38.85.23-12.39,10.29-19.81,20.92-15.71,5.78,2.23,9.35,7,9.3,13.84C334.77,335.78,336.24,373,334,410.15Z" transform="translate(-62.04 -116.34)"/></svg>