<svg id="Capa_1" data-name="Capa 1" xmlns="http://www.w3.org/2000/svg" viewBox="0 0 200.66 227.57"><defs><style>.cls-1,.cls-3{fill:#ffe068;}.cls-1,.cls-2,.cls-3,.cls-4,.cls-6{stroke:#1d1d1b;stroke-miterlimit:10;}.cls-1,.cls-6{stroke-width:5px;}.cls-2,.cls-4,.cls-6{fill:none;}.cls-2{stroke-width:8px;}.cls-3{stroke-width:7px;}.cls-4{stroke-width:10px;}.cls-5{fill:#1d1d1b;}</style></defs><rect class="cls-1" x="95.24" y="18.94" width="13.32" height="11.97"/><circle class="cls-2" cx="100.33" cy="127.24" r="96.33"/><path class="cls-2" d="M235.35,232.79a78.28,78.28,0,1,1-78.28-78.28" transform="translate(-56.87 -105.55)"/><circle class="cls-3" cx="100.2" cy="127.24" r="9.04"/><line class="cls-4" x1="158.93" y1="69.97" x2="105.66" y2="123.25"/><rect class="cls-5" x="190.74" y="161.03" width="10.1" height="8" transform="translate(47.62 -179.75) rotate(28.98)"/><rect class="cls-5" x="170.63" y="152.99" width="9.99" height="8" transform="translate(-17.08 -141.01) rotate(12.99)"/><rect class="cls-5" x="227.97" y="210.84" width="10.1" height="8" transform="translate(327.95 -168.93) rotate(75.94)"/><rect class="cls-5" x="220.13" y="190.61" width="9.99" height="8" transform="matrix(0.5, 0.87, -0.87, 0.5, 223.97, -203.26)"/><rect class="cls-6" x="83.52" y="2.5" width="36.75" height="16.44" rx="2.2"/><rect class="cls-6" x="221.62" y="152.26" width="18.53" height="16.03" rx="2.2" transform="translate(124.3 -221.9) rotate(45.04)"/><rect class="cls-6" x="75.25" y="151.08" width="18.53" height="15.97" rx="2.2" transform="translate(-144.59 0.82) rotate(-45.01)"/></svg>