<?xml version="1.0" encoding="UTF-8"?>
<svg id="Capa_1" data-name="Capa 1" xmlns="http://www.w3.org/2000/svg" viewBox="0 0 217.39 217.39">
  <defs>
    <style>
      .cls-1 {
        fill: none;
        stroke-width: 20px;
      }

      .cls-1, .cls-2 {
        stroke: #c5c5c5;
        stroke-miterlimit: 10;
      }

      .cls-2 {
        fill: #c5c5c5;
        stroke-width: 8px;
      }
    </style>
  </defs>
  <path class="cls-2" d="M110.19,170.77c-30.44-.01-55.33-18.68-62.36-45.14-6.13-23.09-.95-43.71,15.75-60.7,14.49-14.74,32.54-20.47,53.14-17.58,12.88,1.81,23.94,7.38,33.46,16.17,1.04,.96,1.25,1.46,.13,2.52-3.22,3.06-6.34,6.23-9.44,9.42-.88,.91-1.4,1.12-2.44,.14-8.53-8.08-18.82-12.14-30.46-12.24-19.37-.17-36.3,11.42-42.87,29.45-7.89,21.65,.53,44.01,20.51,55.56,16.1,9.3,38.38,6.85,51.97-5.84,1.6-1.49,2.43-1.71,3.99,.03,2.77,3.1,5.81,5.97,8.81,8.87,.87,.84,1.04,1.28,.02,2.23-12.09,11.28-26.43,16.88-40.21,17.14Z"/>
  <circle class="cls-1" cx="108.7" cy="108.7" r="98.7"/>
</svg>