<svg id="Capa_1" data-name="Capa 1" xmlns="http://www.w3.org/2000/svg" viewBox="0 0 200.61 248.65"><defs><style>.cls-1{fill:none;stroke:#1d1d1b;stroke-miterlimit:10;stroke-width:7px;}.cls-2{fill:#010101;}.cls-3{fill:#ffe169;}</style></defs><rect class="cls-1" x="38.51" y="222.85" width="122.53" height="22.3" rx="6.47"/><rect class="cls-1" x="53.5" y="177.55" width="91.66" height="45.31" rx="6.47"/><path class="cls-1" d="M272.36,240.5v32.38c0,2.4-2.51,4.35-5.6,4.35H251c-3.09,0-5.6-2-5.6-4.35V240.45" transform="translate(-159.1 -99.68)"/><path class="cls-1" d="M246.69,244.34c-29.76-6.56-51.88-31.14-51.88-60.46" transform="translate(-159.1 -99.68)"/><path class="cls-1" d="M324,183.71c0,29.85-22.94,54.8-53.52,60.8" transform="translate(-159.1 -99.68)"/><path class="cls-1" d="M194.81,185.92V114.79c0-6.41,2.79-11.61,6.22-11.61H317.77c3.44,0,6.23,5.2,6.23,11.61v70.49" transform="translate(-159.1 -99.68)"/><path class="cls-1" d="M175.07,159.45V143.66c0-1.42.43-2.58,1-2.58h17.84c.53,0,.95,1.16.95,2.58v15.65" transform="translate(-159.1 -99.68)"/><path class="cls-1" d="M194.36,172a11.86,11.86,0,0,1-6,1.57h-3.21c-5.57,0-10.09-3.59-10.09-8v-6.14" transform="translate(-159.1 -99.68)"/><path class="cls-1" d="M162.6,160.6V133.71c0-2.42.69-4.39,1.55-4.39h29c.85,0,1.55,2,1.55,4.39v26.65" transform="translate(-159.1 -99.68)"/><path class="cls-1" d="M194,182a18.55,18.55,0,0,1-9.74,2.67H179c-9.07,0-16.42-6.11-16.42-13.65V160.6" transform="translate(-159.1 -99.68)"/><path class="cls-2" d="M285.11,156.59a7.23,7.23,0,0,1-2.21,5.06c-2,2-4,4.07-6,6.06a2.21,2.21,0,0,0-.76,2.36c.58,2.67,1,5.4,1.39,8.1.47,3-.19,5.64-2.65,7.5a6.4,6.4,0,0,1-7.42.43c-2.46-1.33-4.93-2.64-7.35-4a2.16,2.16,0,0,0-2.42,0c-2.43,1.39-4.91,2.69-7.36,4a6.34,6.34,0,0,1-7.42-.43,7,7,0,0,1-2.61-7.27c.43-2.32.57-4.71,1.14-7a4,4,0,0,0-1.33-4.59c-1.8-1.56-3.42-3.34-5.1-5a7.14,7.14,0,0,1-1.9-7.73,6.61,6.61,0,0,1,5.94-4.66c2.25-.26,4.47-.7,6.72-.94a4.16,4.16,0,0,0,3.86-3c.83-2.19,2-4.24,3-6.36,1.27-2.71,3.33-4.29,6.2-4.32s5.09,1.59,6.4,4.38a58.22,58.22,0,0,1,2.85,6.17c.75,2.27,2.26,2.85,4.23,3.09,2.32.27,4.63.61,6.93,1A7,7,0,0,1,285.11,156.59Z" transform="translate(-159.1 -99.68)"/><path class="cls-3" d="M271.08,180.2c-3.47-1.88-6.65-3.56-9.79-5.32a4.41,4.41,0,0,0-4.75,0c-2.49,1.44-5,2.76-7.57,4.1-.68.37-1.33,1-2.2.58.63-3.64,1.27-7.27,1.89-10.9a4.74,4.74,0,0,0-1.44-4.31c-2.44-2.63-4.75-5.39-7.08-8.08,2.57-.4,5.64-1,8.75-1.32,2.64-.25,4.46-1.25,5.55-3.95,1.23-3.07,2.81-6,4.46-9.41,1.65,3.4,3.26,6.34,4.51,9.43a5.74,5.74,0,0,0,5.33,3.91c3.17.31,6.31.9,8.89,1.29-2.17,2.53-4.43,5.31-6.85,7.92a5.08,5.08,0,0,0-1.53,4.9C270,172.62,270.44,176.24,271.08,180.2Z" transform="translate(-159.1 -99.68)"/><path class="cls-1" d="M343.73,159.45V143.66c0-1.42-.42-2.58-1-2.58H325c-.53,0-.95,1.16-.95,2.58v15.65" transform="translate(-159.1 -99.68)"/><path class="cls-1" d="M324.45,172a11.85,11.85,0,0,0,6,1.57h3.22c5.57,0,10.08-3.59,10.08-8v-6.14" transform="translate(-159.1 -99.68)"/><path class="cls-1" d="M356.21,160.6V133.71c0-2.42-.7-4.39-1.55-4.39h-29c-.86,0-1.55,2-1.55,4.39v26.65" transform="translate(-159.1 -99.68)"/><path class="cls-1" d="M324.81,182a18.61,18.61,0,0,0,9.75,2.67h5.23c9.07,0,16.42-6.11,16.42-13.65V160.6" transform="translate(-159.1 -99.68)"/></svg>