<svg id="Capa_1" data-name="Capa 1" xmlns="http://www.w3.org/2000/svg" viewBox="0 0 291.63 187.72"><defs><style>.cls-1{fill:#1d1d1b;}.cls-2,.cls-6{fill:#ffe068;}.cls-3,.cls-4,.cls-5{fill:none;}.cls-3,.cls-4,.cls-5,.cls-6{stroke:#1d1d1b;stroke-miterlimit:10;}.cls-3{stroke-width:10px;}.cls-4{stroke-width:8px;}.cls-5{stroke-width:7px;}.cls-6{stroke-width:6px;}</style></defs><rect class="cls-1" x="236.14" y="408.17" width="52.19" height="9.24" transform="translate(-314.41 378.86) rotate(-84.71)"/><rect class="cls-1" x="100.97" y="171.43" width="97.71" height="13.86" rx="4.11"/><rect class="cls-1" x="295.88" y="408.17" width="52.19" height="9.24" transform="translate(-200.78 514.51) rotate(-95.29)"/><rect class="cls-2" x="63.95" y="107.6" width="162.03" height="24.6"/><path class="cls-3" d="M202.86,313.35V274.19A12.22,12.22,0,0,1,215.08,262H367.41a12.22,12.22,0,0,1,12.22,12.22v95" transform="translate(-141.43 -256.97)"/><path class="cls-3" d="M202.86,313.35" transform="translate(-141.43 -256.97)"/><path class="cls-3" d="M367.41,390.44H215.08a12.22,12.22,0,0,1-12.22-12.22V346.3" transform="translate(-141.43 -256.97)"/><rect class="cls-1" x="61.18" y="105.04" width="177.02" height="9.24"/><path class="cls-4" d="M411.77,389.18v43.76a7.75,7.75,0,0,1-7.75,7.75H371.9a7.75,7.75,0,0,1-7.75-7.75V389.18" transform="translate(-141.43 -256.97)"/><path class="cls-3" d="M365.15,427.42" transform="translate(-141.43 -256.97)"/><path class="cls-4" d="M364.15,427.42V371.69a.85.85,0,0,1,.85-.85h45.92a.85.85,0,0,1,.85.85v55.73" transform="translate(-141.43 -256.97)"/><path class="cls-5" d="M409.51,382.13h8.85c6.18,0,11.2,7,11.2,15.58v5.13c0,8.6-5,15.57-11.2,15.57h-8.85" transform="translate(-141.43 -256.97)"/><line class="cls-4" x1="67.92" y1="182.57" x2="0.03" y2="182.57"/><path class="cls-4" d="M145.43,440.69V429c0-2,2.77-3.57,6.2-3.57h47.54c3.43,0,6.21,1.6,6.21,3.57v11.74" transform="translate(-141.43 -256.97)"/><path class="cls-4" d="M193.2,366.63a29.43,29.43,0,0,1,34.51-47.69" transform="translate(-141.43 -256.97)"/><rect class="cls-1" x="177.8" y="336.18" width="58.58" height="8.32" transform="translate(-331.47 51.62) rotate(-54.11)"/><rect class="cls-6" x="174.77" y="315.33" width="13.26" height="12.85" transform="translate(-327.04 23.12) rotate(-54.11)"/><line class="cls-4" x1="8.78" y1="108.37" x2="33.91" y2="167.66"/><line class="cls-4" x1="36.15" y1="73.23" x2="8.55" y2="111.37"/></svg>