<svg id="Capa_1" data-name="Capa 1" xmlns="http://www.w3.org/2000/svg" viewBox="0 0 202.96 249.3"><defs><style>.cls-1{fill:#231e21;}.cls-2,.cls-4{fill:none;}.cls-2,.cls-3,.cls-4{stroke:#231e21;stroke-miterlimit:10;}.cls-2{stroke-width:7px;}.cls-3{fill:#ffe068;}.cls-3,.cls-4{stroke-width:6px;}</style></defs><path class="cls-1" d="M331.49,545q5-5.72,10-11.45,7.78-8.93,15.54-17.88a29.63,29.63,0,0,0,6-10c2-6.08-3-9.88-6.79-8.92a20.16,20.16,0,0,0-7.62,4.17,54.92,54.92,0,0,0-5.48,5.42,5.51,5.51,0,0,1-1.41,1.36h0a6.68,6.68,0,0,1-2.54,2.47c-3.74,3.48-7.37,7.12-11,10.77a2.25,2.25,0,0,1-1.35,1.41c-4.36,4.16-8.54,8.56-12.65,13a15.25,15.25,0,0,1-10,5.29,58.48,58.48,0,0,0-5.92-.11c-.55,0-1.1,0-1.64,0l6,0c.3,0,.63-.12.89.16-2.89.28-5.78,0-9,.12a41.74,41.74,0,0,0,6.16-5.78,7.58,7.58,0,0,1,4.63-3.15c1.61-.27,2.93-1.53,4.14-2.86,6.55-7.24,13.47-14,20.35-20.8.18-.18.33-.38.49-.56a1.67,1.67,0,0,1,.76-.77c3.87-3.62,7.69-7.3,11.37-11.18.23-.49.52-.9,1-1,4.24-3.48,8.68-6.48,14.08-6.52,9.3-.07,15.42,10,12.3,20.12A35.14,35.14,0,0,1,362.67,521c-6.42,7.51-12.93,14.93-19.4,22.39-.13.15-.24.33-.37.5a1.94,1.94,0,0,1-1.19,1.35c-3.72,4.13-7.39,8.33-11,12.63-.17,1.1-1.08,1.34-1.68,1.95-5.06,6.86-9.79,14-12.63,22.48a16.92,16.92,0,0,0-.82,5.42c0,7.38,0,14.77,0,22.15,0,8.61-5.19,15.76-12.51,17.29-.15,0-.3.06-.34.27H243.06c-.51-.34-1.17,0-1.63-.55a16.61,16.61,0,0,1-8.11-6.71,19.48,19.48,0,0,1-2.86-10.36c0-6.94-.08-13.88,0-20.81a22.46,22.46,0,0,0-1.87-9.48,72.2,72.2,0,0,0-8-13.72,1.61,1.61,0,0,1-.7-1l-.49-.63c-.15-.18-.38-.31-.4-.61-2.1-3.32-4.78-6-7.31-8.83-3.45-3.87-6.95-7.7-10.4-11.57-.46-.53-1.17-.69-1.47-1.42a5,5,0,0,1-1.62-1.84l-.53-.58a2,2,0,0,1-.88-1.06c-5.06-5.64-10.15-11.26-15.18-17A32.36,32.36,0,0,1,173.84,507c-2.44-10.57,6.47-21.16,16-18.13a28.72,28.72,0,0,1,10.51,6.49c.36.33.74.65,1.11,1,.55.05.75.58,1,1,3.86,4.25,8,8.14,12,12.22,2.3,2.36,4.64,4.65,7,7a1.49,1.49,0,0,1,1.12,1.13c.1.24.23.46.48.5s.39.09.42.38l10.94,11a6.35,6.35,0,0,1,2.17,1.57,8.54,8.54,0,0,0,4.11,1.28c.38.05.73,0,1,.42A53.14,53.14,0,0,0,249,540.3c-.37.48-.87.31-1.31.31-2.63,0-5.26,0-7.89,0a15.74,15.74,0,0,1-10.37-4.86c-4.54-4.5-9-9.06-13.57-13.59a5,5,0,0,1-2.17-2.17c-4.76-4.83-9.54-9.62-14.26-14.49a42.37,42.37,0,0,0-7.86-6.92,15.2,15.2,0,0,0-3.44-1.62c-2.34-.72-4.25.05-5.89,2.08a6.85,6.85,0,0,0-1.21,6.6,21.45,21.45,0,0,0,4.56,8.2c5.4,6.15,10.9,12.19,16.33,18.29,6.88,7.74,14.06,15.13,20.65,23.19A84.17,84.17,0,0,1,235,575.63a28.55,28.55,0,0,1,2.44,8.51q0,6.74,0,13.47c0,4.14,0,8.28,0,12.42,0,.46-.19,1,.24,1.37.88,3.87,2.86,6.53,6.31,7.45a11.24,11.24,0,0,0,2.78.23c17.49,0,35,0,52.45,0,3.64,0,6.54-1.29,8.32-5.16a10.11,10.11,0,0,0,.86-4.28q0-11.48,0-23a4.28,4.28,0,0,1,.16-1.85,2.5,2.5,0,0,1,.14,1.43c0,8.07,0,16.13,0,23.91.06.46.27.19.14.3s-.05,0-.07-.1a4.25,4.25,0,0,1-.06-1.33c0-7.73,0-15.47,0-23.2a3.65,3.65,0,0,0-.1-1.47,33.25,33.25,0,0,1,3.14-10.61A98.66,98.66,0,0,1,321.56,557c.14-.21.27-.43.4-.65a.65.65,0,0,1,.41-.57l5.38-6.46A16.21,16.21,0,0,1,331.49,545Z" transform="translate(-170.63 -378.09)"/><circle class="cls-2" cx="101.42" cy="114.34" r="32.74"/><circle class="cls-3" cx="19.39" cy="78.44" r="16.39"/><circle class="cls-4" cx="51.5" cy="39.1" r="16.39"/><circle class="cls-3" cx="101.47" cy="19.39" r="16.39"/><circle class="cls-4" cx="151.43" cy="37.33" r="16.39"/><circle class="cls-3" cx="183.57" cy="78.44" r="16.39"/></svg>