<?xml version="1.0" encoding="UTF-8"?>
<svg id="Capa_1" data-name="Capa 1" xmlns="http://www.w3.org/2000/svg" viewBox="0 0 12.46 9.08">
  <defs>
    <style>
      .cls-1 {
        stroke-miterlimit: 10;
        stroke-width: 1px;
      }

      .cls-1, .cls-2 {
        fill: none;
        stroke: #c5c5c5;
      }

      .cls-2 {
        stroke-miterlimit: 10;
        stroke-width: .5px;
      }
    </style>
  </defs>
  <path class="cls-2" d="M6.15,5.17L11.28,.88c.06-.05,.14-.03,.19,.04v.02c.05,.07,.04,.17-.02,.22L6.31,5.45c-.06,.05-.14,.03-.19-.04v-.02c-.05-.07-.04-.17,.02-.22Z"/>
  <path class="cls-2" d="M6.15,5.44L1.02,1.16c-.06-.05-.08-.15-.03-.22v-.02c.05-.07,.14-.09,.2-.04L6.31,5.16c.06,.05,.08,.15,.03,.22v.02c-.05,.07-.14,.09-.2,.04Z"/>
  <path class="cls-1" d="M1.72,.38H10.74c.74,0,1.35,.72,1.35,1.61V7.09c0,.89-.6,1.61-1.35,1.61H1.72c-.74,0-1.35-.72-1.35-1.61V1.99C.38,1.1,.98,.38,1.72,.38Z"/>
  <path class="cls-2" d="M7.29,4.42l4.16,3.48c.06,.05,.08,.15,.03,.22v.02c-.05,.07-.14,.09-.2,.04l-4.16-3.48c-.06-.05-.08-.15-.03-.22v-.02c.05-.07,.14-.09,.2-.04Z"/>
  <path class="cls-2" d="M5.32,4.72L1.19,8.18c-.06,.05-.14,.03-.19-.04v-.02c-.05-.07-.04-.17,.02-.22l4.13-3.45c.06-.05,.14-.03,.19,.04v.02c.05,.07,.04,.17-.02,.22Z"/>
</svg>