<svg id="Capa_1" data-name="Capa 1" xmlns="http://www.w3.org/2000/svg" viewBox="0 0 196.71 135.35"><defs><style>.cls-1{fill:#ffe068;}.cls-2{fill:#1d1d1b;}</style></defs><path class="cls-1" d="M127,210c0-35.62,25-64.5,55.87-64.5s55.87,28.88,55.87,64.5" transform="translate(-82.54 -74.69)"/><circle class="cls-1" cx="100.35" cy="32.19" r="32.19"/><path class="cls-2" d="M231.23,75.23a26.22,26.22,0,0,0-12.71,3.26l.18,1.75a45,45,0,0,1,4.8,46.49,26.33,26.33,0,1,0,7.73-51.5Z" transform="translate(-82.54 -74.69)"/><path class="cls-2" d="M133.19,75.23a26.26,26.26,0,0,1,12.72,3.26l-.18,1.75a45,45,0,0,0-4.81,46.49,26.33,26.33,0,1,1-7.73-51.5Z" transform="translate(-82.54 -74.69)"/><path class="cls-2" d="M249.35,183.48h29.9c0-28.21-19.8-51.07-44.23-51.07a40.08,40.08,0,0,0-24.9,8.85C227.33,149.17,241.36,164.32,249.35,183.48Z" transform="translate(-82.54 -74.69)"/><path class="cls-2" d="M112.44,183.48H82.54c0-28.21,19.8-51.07,44.23-51.07a40.08,40.08,0,0,1,24.9,8.85C134.46,149.17,120.43,164.32,112.44,183.48Z" transform="translate(-82.54 -74.69)"/></svg>