<svg id="Capa_1" data-name="Capa 1" xmlns="http://www.w3.org/2000/svg" viewBox="0 0 74.34 75.11"><defs><style>.cls-1{fill:#1e1e1c;}</style></defs><path class="cls-1" d="M294,391.34c-1.28-2.3-2.59-4.61-3.94-6.88a2,2,0,0,0-2.51-1.27,2,2,0,0,0-.44.21c-2.09.81-4.18,1.66-6.24,2.52a2.4,2.4,0,0,0-1.68,3,2,2,0,0,0,.08.26l.61,2.52,1.28,5.29a7.75,7.75,0,0,1-5.25,6.28,2,2,0,0,1-.78,0c-2.74-.71-5.47-1.45-8.2-2.16a2.09,2.09,0,0,0-2.78,1,1.91,1.91,0,0,0-.13.36l-2.59,6.14a2.07,2.07,0,0,0,1,3.12c2.34,1.35,4.65,2.77,7.1,4.11a1.83,1.83,0,0,1,1,1.17,11.87,11.87,0,0,1,.57,4.58,4,4,0,0,1-2.27,3.55c-2.2,1.1-4.29,2.38-6.42,3.55a2.09,2.09,0,0,0-1.24,2.69,2.92,2.92,0,0,0,.17.36l2.31,6.1c.71,1.88,1.67,2.38,3.55,1.92s4.57-1,6.84-1.57a3.44,3.44,0,0,1,2,0,7.1,7.1,0,0,1,4,3.55,4.71,4.71,0,0,1,.29,3.73c-.75,2-1.35,4-2,6a2.73,2.73,0,0,0,1.34,3.62l.37.14c1.91.88,3.87,1.73,5.78,2.55a2.38,2.38,0,0,0,3.3-.63,3,3,0,0,0,.25-.47l3.79-6.28a3.72,3.72,0,0,1,2.24-1.7,9.74,9.74,0,0,1,5,0,3.27,3.27,0,0,1,2.09,1.7l3.65,6.1a2.45,2.45,0,0,0,3.2,1.24c2.09-.78,4.15-1.59,6.17-2.48a2.76,2.76,0,0,0,1.63-3.55l-1.77-7.41a3.28,3.28,0,0,1,.31-2.38,8.43,8.43,0,0,1,3.87-3.55,3.53,3.53,0,0,1,2.52,0q3.54,1.06,6.92,2a2.49,2.49,0,0,0,3.16-1.38c1-2.27,2-4.54,2.9-6.85a2,2,0,0,0-.8-2.64l-.19-.09c-2.16-1.31-4.36-2.66-6.53-3.94a3.52,3.52,0,0,1-1.7-2.2,9.83,9.83,0,0,1-.18-4A4.33,4.33,0,0,1,328,416c2-1.06,4-2.2,6-3.26a2.31,2.31,0,0,0,1.24-2.91c-.82-2.31-1.71-4.65-2.63-6.92a2.12,2.12,0,0,0-2.67-1.39h0c-2.59.49-5.18.85-7.67,1.52a3.89,3.89,0,0,1-4.64-1.59l-1-1.28a4.22,4.22,0,0,1-.71-3.83l2-7.1a1.65,1.65,0,0,0-.75-2.06C315,386.13,312.8,385,310.6,384a2,2,0,0,0-2.78.44,3.75,3.75,0,0,0-.24.44c-1,1.71-2.09,3.37-3,5.11a6.68,6.68,0,0,1-7.63,3.55A3.53,3.53,0,0,1,294,391.34Zm18.73,29.41a14.62,14.62,0,1,1-14.58-14.69A14.62,14.62,0,0,1,312.73,420.75Z" transform="translate(-261.06 -383.09)"/></svg>