<svg id="Capa_1" data-name="Capa 1" xmlns="http://www.w3.org/2000/svg" viewBox="0 0 200.52 202.76"><defs><style>.cls-1{fill:#fff;}.cls-2{fill:#898989;}.cls-2,.cls-3{stroke:#1d1d1b;stroke-miterlimit:10;stroke-width:0px;}.cls-3{fill:#1b1b1a;}</style></defs><rect class="cls-1" width="200.52" height="200.76" rx="38.91"/><path class="cls-2" d="M149.27,153.1H58.1L107,77A11.36,11.36,0,0,0,87.85,64.71L28.52,157.25a12.82,12.82,0,0,0,5.74,17.2h0a12.59,12.59,0,0,0,5.1,1.34h110a11.35,11.35,0,0,0,11.35-11.35h0a11.36,11.36,0,0,0-11.35-11.34Z" transform="translate(0 0)"/><path class="cls-3" d="M168.32,29.24a13.19,13.19,0,0,0-1.58-.83A11.31,11.31,0,0,0,161.2,27H51.2a11.35,11.35,0,0,0,0,22.7h90.5L93.21,125.2a11.36,11.36,0,0,0,19.1,12.27l59.4-92.54A11.36,11.36,0,0,0,168.32,29.24Z" transform="translate(0 0)"/></svg>