<svg id="Capa_1" data-name="Capa 1" xmlns="http://www.w3.org/2000/svg" viewBox="0 0 490.8 487.27"><defs><style>.cls-1{fill:#fff;}.cls-2{fill:#ffe068;}.cls-3{fill:silver;}.cls-4{fill:#646363;}.cls-5{fill:#3f3f3e;}.cls-6{fill:#fedf68;}.cls-7{fill:#4a4a49;}</style></defs><path class="cls-1" d="M226,541.44l-14.53-9.11c-3.33-.26-4.24-3.81-7-4.9-10.06-8.2-17.72-18.46-25.39-28.68-1.74-2.33-4.15-4.39-4.41-7.59a16.75,16.75,0,0,0-2.91-5.09,46.29,46.29,0,0,1-6.73-14.77c-.64-1.72-.65-3.7-2.18-5.05q-2.16-7.15-4.33-14.31c.37-1.59,1-3.21-.48-4.61l-.48-1.07c.36-1.58,1-3.2-.49-4.6l-.48-1.07c.29-3.69,1.09-7.39-.35-11-.3-.74-.6-1.48-.91-2.22a1.85,1.85,0,0,1,0-1.35,33.05,33.05,0,0,0-.19-9.05,3.66,3.66,0,0,1,.3-2.75c1.65-5.17.32-10.69,1.93-15.86.22-.72.45-1.43.67-2.14,1.41-2.76,1.08-5.94,2.19-8.77a28.43,28.43,0,0,1,2.63-10.15c1.53-1.24,1.41-3.21,2.19-4.78l0,.07c1.08-1.43,1.31-3.2,2-4.8l-.05.07c1.33-3.14,3.56-5.91,4.13-9.37,12.44-24.11,30.78-42.67,54.74-55.94a1.62,1.62,0,0,1,2,.74c7.83,10.8,16.36,21.12,23.45,32.44-1.25,3.29-4.62,4.24-7.24,5.69-9.31,5.2-17,12.28-24,20-4.61,5.1-7.72,11.46-11.46,17.27-1.59,1-1.68,2.62-1.56,4.27-1.64,4.92-3.16,9.88-5.09,14.71-1,1.31-1,2.92-1.34,4.41a9.43,9.43,0,0,0,.17,6c.24,1.88.59,3.79-1.1,5.27a.84.84,0,0,1-.87-.09c-.08-.06-.17-.1-.25-.15a52.14,52.14,0,0,1,0,17.58c.54.08,0-.72.58-.64,2.37,1.07,1.8,3.09,1.69,5-.5,1.89-1.07,3.78-.47,5.76a8.72,8.72,0,0,1,.31,1.22c.75,1.11-1.12,3.17,1.41,3.65,2,6.36,4.53,12.54,6.34,18.95.36,2.16,1,4.21,2.77,5.69a8.11,8.11,0,0,1,3.14,4.82c.06,1.58,1.09,2.44,2.42,3.08,7.94,9.14,16.11,18,27,23.94A7.32,7.32,0,0,1,245.9,504a5.81,5.81,0,0,0,4.93,2.58c2.16.27,4.39.42,5.47,2.75.05.31.17.67,0,.92-6,11.33-11.07,23.12-18,34-1.56,1.22-3.13,1.06-4.77.1a24,24,0,0,0-6.63-2.16A1.09,1.09,0,0,1,226,541.44Z" transform="translate(-52.24 -177.31)"/><path class="cls-2" d="M251.22,335.84c-5.86-5.6-9.64-12.74-14.64-19-3.73-4.66-7.18-9.54-10.76-14.32,14.54-8.38,30.28-13.25,46.84-16.1,5.32-.92,10.82.23,15.95-1.82a37.7,37.7,0,0,1,11.47-.08c5,2.3,10.39,1,15.58,1.8a145,145,0,0,1,55.22,20.72c7.6,4.75,14.15,10.63,20.85,16.39,2.77,1.75,4.78,4.3,7.13,6.49,2.15,2.13,4.47,4.15,5.37,7.18l10.35,14.75A30.17,30.17,0,0,1,420,362.13a162.7,162.7,0,0,1,10.66,31.27,5.9,5.9,0,0,1,.82,5.64,2.22,2.22,0,0,0,.69,2.13c1.11,1.08.63,2.3.32,3.51.66,2.57-.62,5.3.64,7.83a3,3,0,0,1-.17,4.09,3.36,3.36,0,0,1-1.31.56c-13.71.5-27.42,1.07-41.11-.29-1.78-.95-2-2.76-2.49-4.4-.56-2.34-.32-4.74-.5-7.1-1.1-9.23-4.23-17.87-7.86-26.37a38.31,38.31,0,0,0-2.46-4.87c-6.52-10.57-14.49-20.08-24.65-27.27-5.57-3.94-11.06-8.59-18.1-10.27a7.8,7.8,0,0,0-4.8-1.63c-5.17-.72-9.74-3.36-14.82-4.4-1.39-.3-2.82-.35-4.21-.66a23.49,23.49,0,0,0-3.84-.41c-8.26,0-16.52,0-24.78,0a25.07,25.07,0,0,0-3.94.47c-1.49.32-3,.35-4.55.58a62,62,0,0,0-15.05,4.67C256.2,336.17,253.8,337.62,251.22,335.84Z" transform="translate(-52.24 -177.31)"/><path class="cls-3" d="M390,416l43.1,0c.74.53.64,1.18.27,1.87-.55,14.4-1.47,28.71-5.66,42.71a133.53,133.53,0,0,1-24.4,46.57A135.66,135.66,0,0,1,353.28,546c-10.43,4.68-21.13,8.53-32.61,10.37A93.27,93.27,0,0,1,305.86,558a82,82,0,0,0-14.32,1.38c-3.06.54-5-2.07-8.12-1.6-6.73,1-13.19-1.08-19.76-2.37a154.79,154.79,0,0,1-19.3-5c-2.67-.89-5.2-2.79-7.91-4-.27-1.15.5-1.88,1.12-2.68,4.48-7.05,7.76-14.72,11.67-22.07,2.15-4,4.38-8,6.58-12,1.33-1.08,2.79-.6,4.1-.11,13.65,5.13,27.87,5.09,42.15,4.59,1.54-.07,3.08,0,4.62-.09,17.37-1,32.84-7.1,46.51-17.38,20.71-15.57,32-36.36,34.58-61.8a145.1,145.1,0,0,0,.87-14.57C388.65,418.77,388.5,417.11,390,416Z" transform="translate(-52.24 -177.31)"/><path class="cls-4" d="M534.56,483.88a13,13,0,0,0-3.65-2c-11.14-7-22.08-13.92-33.62-19.89A44,44,0,0,1,475,411.84a24.66,24.66,0,0,1,13.52-16.51c15.32-8.36,30.24-17.11,45.16-25.86a12.94,12.94,0,0,0,8.84-16,13.38,13.38,0,0,0-1.87-3.88c-5.37-13.72-10.94-27.45-16.51-41a15.93,15.93,0,0,0-19.57-11.12,15.12,15.12,0,0,0-1.72.58l-16.31,4.18-34.62,8.35A51.14,51.14,0,0,1,410.55,276a11.07,11.07,0,0,1,1-5c4.58-18.1,9.55-36,14.13-53.91a13.74,13.74,0,0,0-5.61-18.59,14.5,14.5,0,0,0-3.54-1.31l-39.79-16.91c-10.15-4.17-15.12-2.58-19.89,6.77-9.16,15.32-18.31,30.44-27.26,46a12.12,12.12,0,0,1-7.56,6.37,78.12,78.12,0,0,1-30.24,3.78,27.44,27.44,0,0,1-23.27-14.92C261.54,213.7,253,200,245.23,186a14.12,14.12,0,0,0-18.45-7.65,13.7,13.7,0,0,0-1.45.69L185.55,194.2C173,199,169.83,205.14,172.81,218.47s7,29.84,10.35,45a20,20,0,0,1,0,12.74,44.74,44.74,0,0,1-22.48,26.45,29.83,29.83,0,0,1-24.47,1.79c-12.93-4.77-26.26-8.75-39.79-12.73a18.31,18.31,0,0,0-24.13,9.37,19.42,19.42,0,0,0-.74,2L54.84,341A15.52,15.52,0,0,0,60,362.36a15.83,15.83,0,0,0,2.25,1.14l41,25.07a23.25,23.25,0,0,1,11.34,14.32,65.43,65.43,0,0,1,0,32.83,21.24,21.24,0,0,1-11.14,13.72c-14.12,8-28,16.32-42.17,24.47a15.92,15.92,0,0,0-8,19.9c5,13.53,10.34,27.05,16.11,39.79a18.1,18.1,0,0,0,23.19,10.84l.29-.1,48.54-11.54A19.9,19.9,0,0,1,157.1,535a54.54,54.54,0,0,1,22.28,25.46,22.12,22.12,0,0,1,0,16.32c-4.58,15.12-8.95,30.24-13.33,45.55a16.52,16.52,0,0,0,9.15,19.9q22.08,9.94,44.76,19.89a13.14,13.14,0,0,0,17.69-5.66q.22-.45.42-.9c8.55-14.33,17.3-28.65,25.66-43a23.83,23.83,0,0,1,14.52-11.14,62.68,62.68,0,0,1,26.46-1.2A28.66,28.66,0,0,1,326,615.76c7,13.13,14.32,26.26,21.48,39.79a15.11,15.11,0,0,0,18.9,8.15c15.32-5.57,30.64-11.34,45.56-17.3a14.13,14.13,0,0,0,9.21-17.73l-.06-.18c-3.38-16.71-5.57-33.82-10.14-50.13a26,26,0,0,1,10.54-30.64l8.36-6.17A27.86,27.86,0,0,1,455.11,537l46.95,12.73a10.75,10.75,0,0,0,13.53-4.77c7.16-14.33,14.32-28.65,21.09-43.17A12.74,12.74,0,0,0,534.56,483.88ZM294.43,555.47A135.62,135.62,0,1,1,430.06,419.85,135.62,135.62,0,0,1,294.43,555.47Z" transform="translate(-52.24 -177.31)"/><circle class="cls-5" cx="242.2" cy="244.05" r="99.36"/><circle class="cls-6" cx="242.2" cy="244.07" r="63.3"/><path class="cls-7" d="M421.13,628.67l-.06-.18c-3.38-16.71-5.57-33.82-10.15-50.13a26.07,26.07,0,0,1,10.55-30.64l8.35-6.17A27.88,27.88,0,0,1,455.09,537l47,12.73a10.75,10.75,0,0,0,13.53-4.77c7.16-14.33,14.32-28.65,21.08-43.17a12.74,12.74,0,0,0-2.11-17.89,12.93,12.93,0,0,0-3.66-2c-11.14-7-22.08-13.92-33.62-19.89a44,44,0,0,1-23.09-46.33L413.6,355.08A135.66,135.66,0,0,1,227.82,538l61.56,61.55a62.36,62.36,0,0,1,15.31.67A28.67,28.67,0,0,1,326,615.76c7,13.13,14.32,26.26,21.48,39.79a15.11,15.11,0,0,0,18.9,8.15c15.32-5.57,30.64-11.34,45.56-17.3A14.13,14.13,0,0,0,421.13,628.67Z" transform="translate(-52.24 -177.31)"/></svg>