<svg id="Capa_1" data-name="Capa 1" xmlns="http://www.w3.org/2000/svg" viewBox="0 0 470.26 283.36"><defs><style>.cls-1{fill:#dadada;}.cls-2{fill:none;stroke:#1e1e1c;stroke-miterlimit:10;stroke-width:2px;}.cls-3{fill:#010202;}.cls-4{fill:#ffe169;}.cls-5{fill:#3c3c3b;}.cls-6{fill:#ffe068;}.cls-7{fill:#040505;}.cls-8{fill:#1d1d1b;}.cls-9{fill:#ffdf68;}.cls-10{fill:#1e1e1c;}</style></defs><path class="cls-1" d="M231.66,434.6c46.68-17.21,39.63-74.34,87.59-89.29,27.47-8.56,58,1.37,76.54,14.45,27.15,19.18,20.24,39.3,53.57,79.48,26.08,31.44,36.52,26.62,54.43,51.48,19.63,27.27,40,78.81,23,109.71-11.77,21.32-39.68,29.76-275,12.75-119.54-8.64-173.16-15.22-186-48.47-8.45-22,3.09-49.93,10.21-67.18,6-14.65,20.7-50.17,53-65C169.76,413.75,191.75,449.32,231.66,434.6Z" transform="translate(-62.86 -342.11)"/><rect class="cls-2" x="384.67" y="90.84" width="34.56" height="6.29" rx="1.82"/><rect class="cls-2" x="388.9" y="78.06" width="25.85" height="12.78" rx="1.82"/><path class="cls-2" d="M468.62,409.81V419a1.44,1.44,0,0,1-1.58,1.22h-4.45A1.45,1.45,0,0,1,461,419V409.8" transform="translate(-62.86 -342.11)"/><path class="cls-2" d="M461.37,410.9c-8.39-1.85-14.63-8.79-14.63-17.06" transform="translate(-62.86 -342.11)"/><path class="cls-2" d="M483.18,393.8c0,8.42-6.47,15.45-15.1,17.15" transform="translate(-62.86 -342.11)"/><path class="cls-2" d="M446.74,394.42V374.36c0-1.81.79-3.28,1.76-3.28h32.92c1,0,1.76,1.47,1.76,3.28v19.88" transform="translate(-62.86 -342.11)"/><path class="cls-2" d="M441.17,387V382.5c0-.4.13-.73.29-.73h5c.15,0,.27.33.27.73v4.41" transform="translate(-62.86 -342.11)"/><path class="cls-2" d="M446.61,390.49a3.32,3.32,0,0,1-1.69.45H444a2.62,2.62,0,0,1-2.85-2.26V387" transform="translate(-62.86 -342.11)"/><path class="cls-2" d="M437.66,387.28v-7.59c0-.68.19-1.23.43-1.23h8.18c.24,0,.44.56.44,1.23v7.52" transform="translate(-62.86 -342.11)"/><path class="cls-2" d="M446.51,393.31a5.31,5.31,0,0,1-2.74.76h-1.49c-2.56,0-4.63-1.73-4.63-3.85v-2.94" transform="translate(-62.86 -342.11)"/><path class="cls-3" d="M472.21,386.15a2,2,0,0,1-.62,1.42l-1.69,1.71a.62.62,0,0,0-.22.67c.16.75.28,1.52.39,2.28a2.06,2.06,0,0,1-.74,2.12,1.82,1.82,0,0,1-2.1.12c-.69-.37-1.39-.74-2.07-1.13a.6.6,0,0,0-.68,0c-.69.39-1.39.76-2.08,1.13a1.77,1.77,0,0,1-2.09-.12,2,2,0,0,1-.74-2.05c.12-.66.16-1.33.32-2a1.11,1.11,0,0,0-.37-1.29c-.51-.44-1-.94-1.44-1.41a2,2,0,0,1-.54-2.18,1.88,1.88,0,0,1,1.68-1.32c.63-.07,1.26-.19,1.9-.26a1.17,1.17,0,0,0,1.08-.85c.24-.61.57-1.19.85-1.79A1.9,1.9,0,0,1,464.8,380a1.92,1.92,0,0,1,1.8,1.24,15.3,15.3,0,0,1,.81,1.74,1.22,1.22,0,0,0,1.19.87c.66.07,1.31.17,2,.28A2,2,0,0,1,472.21,386.15Z" transform="translate(-62.86 -342.11)"/><path class="cls-4" d="M468.25,392.81l-2.76-1.5a1.21,1.21,0,0,0-1.34,0c-.7.4-1.41.77-2.13,1.15-.19.11-.38.28-.62.17.18-1,.36-2.05.53-3.08a1.31,1.31,0,0,0-.41-1.21c-.68-.75-1.34-1.52-2-2.28.72-.12,1.59-.29,2.47-.38a1.66,1.66,0,0,0,1.56-1.11c.35-.87.79-1.69,1.26-2.65.46,1,.92,1.78,1.27,2.66a1.62,1.62,0,0,0,1.5,1.1c.9.09,1.78.25,2.51.36-.61.72-1.25,1.5-1.93,2.24a1.43,1.43,0,0,0-.43,1.38C468,390.67,468.07,391.69,468.25,392.81Z" transform="translate(-62.86 -342.11)"/><path class="cls-2" d="M488.75,387V382.5c0-.4-.12-.73-.29-.73h-5c-.15,0-.27.33-.27.73v4.41" transform="translate(-62.86 -342.11)"/><path class="cls-2" d="M483.31,390.49a3.34,3.34,0,0,0,1.69.45h.91a2.61,2.61,0,0,0,2.84-2.26V387" transform="translate(-62.86 -342.11)"/><path class="cls-2" d="M492.27,387.28v-7.59c0-.68-.2-1.23-.44-1.23h-8.18c-.24,0-.44.56-.44,1.23v7.52" transform="translate(-62.86 -342.11)"/><path class="cls-2" d="M483.41,393.31a5.32,5.32,0,0,0,2.75.76h1.47c2.56,0,4.64-1.73,4.64-3.85v-2.94" transform="translate(-62.86 -342.11)"/><rect class="cls-5" x="350.22" y="95.89" width="103.75" height="184.82"/><rect class="cls-6" x="271.04" y="139.26" width="103.75" height="141.45"/><rect class="cls-5" x="188.92" y="183.48" width="103.75" height="97.23"/><path class="cls-7" d="M93.84,558.92c8,19.27,2.27,37.2-2,55.23-1,4.38-2.84,10,3.79,11.18,5.64,1,6.64-4.13,7.54-8.3,2.75-12.72,5.37-25.48,8.19-39,8.76,12,9.33,24.77,7.7,38-.51,4.14-.76,8.64,4.44,9.32,5.65.75,6.75-3.84,7.28-8.35,1.78-15.35.59-30.44-7.71-43.72-6.84-10.93-9-21.3-4.56-31.79a5.77,5.77,0,0,0-1.6-1.8,17.28,17.28,0,0,0-6.39-2.15,22.6,22.6,0,0,0-5.69-.19,23.46,23.46,0,0,1-3.09,1.51,33,33,0,0,0-6.61,2.3,28.34,28.34,0,0,0-6.19,6.28" transform="translate(-62.86 -342.11)"/><circle class="cls-8" cx="36.03" cy="181.98" r="11.62"/><path class="cls-7" d="M107.14,538.65l-2.12-.78-1.38,1.43a3.39,3.39,0,0,0,1.75-.74c.25-.23.46-.57.1-.82a2,2,0,0,0-1.43-.06,63.2,63.2,0,0,0-6.15,2,10.08,10.08,0,0,0-3,1.41,5.78,5.78,0,0,0-1.53,2.32c-.25.59,1,.59,1.23.56a2.08,2.08,0,0,0,1.66-1,3.13,3.13,0,0,1,1.09-1.61,15.68,15.68,0,0,1,2.22-.86c1.58-.58,3.17-1.13,4.8-1.55l-1.34-.87-.1.09.59-.34.5-.12a2.51,2.51,0,0,0-1.46.65c-.22.25-.32.63.09.78l2.12.78a2.52,2.52,0,0,0,2.05-.29c.34-.2.93-.82.27-1.06Z" transform="translate(-62.86 -342.11)"/><path d="M109.23,553.22a30.6,30.6,0,0,0,13.65-10.58c4.7-6.55,5.77-14.94,4.17-22.7a30.94,30.94,0,0,0-2.19-6.55c-1.08-2.39-4.73-3.16-6.84-1.8-2.47,1.59-3,4.29-1.79,6.84.43,1-.57-1.47-.14-.32.15.4.3.8.44,1.21a29.07,29.07,0,0,1,1,3.88c0,.21.07.42.11.64.08.54.07.43,0-.34.16.13.12,1.17.13,1.39q.09,1.3.06,2.61c0,.53-.07,1-.1,1.57s-.06.54,0-.12c0,.28-.09.55-.14.82a22.78,22.78,0,0,1-.82,3.15c-.06.19-.65,1.63-.25.72-.26.59-.54,1.16-.85,1.71a25.37,25.37,0,0,1-1.65,2.56c-.22.29-.15.21.19-.25q-.23.29-.48.57c-.32.37-.64.72-1,1.07-.6.61-1.24,1.16-1.89,1.72-.95.82.69-.47-.1.08l-1,.67c-.54.36-1.11.7-1.68,1s-1,.51-1.44.74l-.64.29c-.7.32,1.41-.58.55-.23-2.42,1-4.39,3.37-3.49,6.15.75,2.33,3.55,4.54,6.15,3.49Z" transform="translate(-62.86 -342.11)"/><path d="M89.88,545.87c-3.21,4.55-5.93,9.68-6.93,15.21-1.07,6-.59,11.87.09,17.84.29,2.59,2.09,5.13,5,5,2.46-.11,5.31-2.22,5-5s-.6-5.36-.72-8c-.06-1.34-.07-2.68,0-4,0-.63.07-1.25.13-1.88,0-.09.11-1,0-.5s.13-.76.13-.73a26.92,26.92,0,0,1,.88-3.54c.21-.62.45-1.23.68-1.85s-.33.66,0,0c.13-.26.24-.54.37-.8a46.18,46.18,0,0,1,4-6.61c1.51-2.14.45-5.65-1.8-6.84a5.13,5.13,0,0,0-6.84,1.79Z" transform="translate(-62.86 -342.11)"/><path class="cls-9" d="M236.45,366.67c-.95-1.45-1.92-3-2.92-4.34s-1.32-1.34-2.67-.6-3,1.77-4.48,2.48a4.67,4.67,0,0,1-6.19-2.26,4.76,4.76,0,0,1-.43-1.82c0-1.72,0-3.49,0-5.26a1.65,1.65,0,0,0-1.33-1.91,1.54,1.54,0,0,0-.37,0l-4.76-.62a1.82,1.82,0,0,0-2.29,1.17,1.37,1.37,0,0,0-.08.35c-.46,1.5-.88,3-1.28,4.53A5,5,0,0,1,205,362a2.86,2.86,0,0,1-2.36-.91c-1.35-1.4-2.77-2.77-4.18-4.14a1.69,1.69,0,0,0-2.37-.24l-.09.08-3.95,3.08c-1,.81-1.09,1.28-.47,2.46.87,1.76,1.95,3.41,2.91,5.12a1.71,1.71,0,0,1,.33,1.13,7.36,7.36,0,0,1-1.8,3.89,2.66,2.66,0,0,1-2.16,1.07c-1.91-.08-3.9,0-5.69-.05a1.61,1.61,0,0,0-1.78,1.41.34.34,0,0,0,0,.1l-.77,4.86a2,2,0,0,0,1.2,2.62,1.84,1.84,0,0,0,.42.1c1.71.56,3.42,1.09,5.14,1.57a4.33,4.33,0,0,1,1.49,6.91c-1.19,1.06-2.33,2.17-3.51,3.26a2.07,2.07,0,0,0-.53,2.87l.18.22c.94,1.34,1.93,2.65,2.92,3.95a1.69,1.69,0,0,0,2.29.67l.2-.14,4.89-2.68a4.56,4.56,0,0,1,5.87,2.65,4.7,4.7,0,0,1,.25,1c0,1.73,0,3.49.06,5.27a2,2,0,0,0,1.77,2.14h.06c1.52.22,3,.45,4.57.63a2.19,2.19,0,0,0,2.62-1.69v0a12,12,0,0,1,1.19-3.44c.48-.23.39-.89.48-1.33a3.09,3.09,0,0,1,2.51-2.44,4.91,4.91,0,0,1,4.18.56c1.3,1.07,2.39,2.41,3.62,3.56a2,2,0,0,0,2.81.27l0,0,4.14-3.17a1.6,1.6,0,0,0,.57-2.2l-.07-.11a30.11,30.11,0,0,0-2.6-4.58,3.5,3.5,0,0,1,.11-4,3.72,3.72,0,0,1,3.57-2.42l5,.06a1.82,1.82,0,0,0,2-1.61v-.08c.28-1.66.52-3.3.75-5s-.13-1.85-1.44-2.29l-6-2a2.2,2.2,0,0,1-.94-.47,5.12,5.12,0,0,1,.07-6.05l3.54-3.58C236.33,368.17,237,367.53,236.45,366.67Zm-18.72,27.14A13.8,13.8,0,1,1,224,375.33l0,.07a13.72,13.72,0,0,1-6.25,18.38Z" transform="translate(-62.86 -342.11)"/><path class="cls-10" d="M193.3,420.36c1.63-2.07,3.24-4.18,4.8-6.31a2,2,0,0,0,.19-2.8,1.91,1.91,0,0,0-.36-.33c-1.56-1.6-3.17-3.2-4.75-4.76a2.41,2.41,0,0,0-3.39-.39l-.21.18-2.08,1.54-4.37,3.24a7.73,7.73,0,0,1-7.83-2.39,1.9,1.9,0,0,1-.3-.72c-.42-2.79-.8-5.59-1.21-8.39a2.1,2.1,0,0,0-2-2.16,2.56,2.56,0,0,0-.39,0h-6.66a2.06,2.06,0,0,0-2.44,1.59,1.82,1.82,0,0,0,0,.57c-.33,2.68-.74,5.36-1,8.14a1.82,1.82,0,0,1-.69,1.37,11.79,11.79,0,0,1-4,2.31,4,4,0,0,1-4.15-.71c-1.87-1.59-3.86-3-5.77-4.52a2.09,2.09,0,0,0-3-.1,1.86,1.86,0,0,0-.26.31l-4.72,4.5c-1.46,1.39-1.54,2.46-.38,4s2.73,3.81,4.11,5.69a3.41,3.41,0,0,1,.76,1.8,7.09,7.09,0,0,1-1.69,5.1,4.69,4.69,0,0,1-3.32,1.72c-2.12.09-4.22.32-6.31.56A2.74,2.74,0,0,0,129,432.1a2.55,2.55,0,0,0,0,.39c-.07,2.11-.09,4.24-.1,6.32a2.39,2.39,0,0,0,1.87,2.8,3.15,3.15,0,0,0,.53,0l7.26,1a3.71,3.71,0,0,1,2.44,1.4,9.76,9.76,0,0,1,1.94,4.57,3.25,3.25,0,0,1-.75,2.59L138.05,457a2.45,2.45,0,0,0,.1,3.42c1.54,1.62,3.09,3.2,4.7,4.72a2.76,2.76,0,0,0,3.9.11l6.13-4.52a3.27,3.27,0,0,1,2.32-.64,8.37,8.37,0,0,1,4.77,2.18,3.6,3.6,0,0,1,1,2.32c.27,2.45.54,4.84.83,7.16a2.48,2.48,0,0,0,2.51,2.36c2.49.07,5,.06,7.44,0a2,2,0,0,0,2.12-1.77c0-.07,0-.14,0-.21.36-2.5.74-5.06,1.07-7.55a3.57,3.57,0,0,1,1.36-2.42,9.82,9.82,0,0,1,3.66-1.74,4.33,4.33,0,0,1,3.89.89c1.76,1.45,3.59,2.84,5.34,4.25a2.31,2.31,0,0,0,3.16,0c1.81-1.65,3.62-3.38,5.35-5.12a2.13,2.13,0,0,0,.24-3l0,0c-1.47-2.19-2.81-4.44-4.39-6.46a3.9,3.9,0,0,1-.35-4.9l.8-1.38a4.21,4.21,0,0,1,3.25-2.15l7.3-1a1.62,1.62,0,0,0,1.6-1.48c.17-2.43.32-4.88.41-7.31a2,2,0,0,0-1.49-2.38,2.07,2.07,0,0,0-.5,0c-2-.28-3.92-.61-5.88-.78a6.66,6.66,0,0,1-6.24-5.64A3.55,3.55,0,0,1,193.3,420.36Zm-19.77,28.73a14.62,14.62,0,1,1,7.84-19.16A14.62,14.62,0,0,1,173.53,449.09Z" transform="translate(-62.86 -342.11)"/><path class="cls-10" d="M278,402.82c1.12-1.62,2.23-3.26,3.31-4.91a1.48,1.48,0,0,0,0-2.09,1.56,1.56,0,0,0-.28-.23c-1.24-1.13-2.5-2.25-3.74-3.34a1.8,1.8,0,0,0-2.54-.15l-.15.14-1.48,1.24L270,396.07a5.77,5.77,0,0,1-5.93-1.44,1.41,1.41,0,0,1-.26-.52c-.42-2.06-.82-4.13-1.25-6.19a1.56,1.56,0,0,0-1.6-1.53,1.35,1.35,0,0,0-.28,0l-5,.29a1.52,1.52,0,0,0-1.75,1.71c-.13,2-.32,4-.41,6.1a1.35,1.35,0,0,1-.46,1.05,8.58,8.58,0,0,1-2.87,1.89,3,3,0,0,1-3.13-.35c-1.46-1.11-3-2.09-4.48-3.12a1.56,1.56,0,0,0-2.21.05,1.37,1.37,0,0,0-.18.24l-3.33,3.55c-1,1.1-1,1.9-.11,3s2.2,2.72,3.3,4.06a2.42,2.42,0,0,1,.64,1.31,5.23,5.23,0,0,1-1,3.87,3.48,3.48,0,0,1-2.39,1.42c-1.58.15-3.13.42-4.68.68a2,2,0,0,0-2,2.09,1.43,1.43,0,0,0,0,.29c0,1.57.11,3.16.19,4.71a1.78,1.78,0,0,0,1.51,2,2.67,2.67,0,0,0,.4,0l5.45.47a2.77,2.77,0,0,1,1.87.93,7.32,7.32,0,0,1,1.64,3.32,2.41,2.41,0,0,1-.45,2l-2.88,4.46a1.82,1.82,0,0,0,.22,2.54c1.22,1.15,2.44,2.25,3.7,3.31a2.06,2.06,0,0,0,2.91-.07l4.37-3.63a2.41,2.41,0,0,1,1.7-.57,6.26,6.26,0,0,1,3.65,1.41,2.65,2.65,0,0,1,.83,1.69c.3,1.81.61,3.58.92,5.29a1.87,1.87,0,0,0,2,1.66c1.86-.06,3.69-.17,5.54-.31a1.47,1.47,0,0,0,1.5-1.41v-.16c.16-1.88.34-3.79.48-5.66a2.66,2.66,0,0,1,.91-1.86,7.25,7.25,0,0,1,2.65-1.46,3.21,3.21,0,0,1,2.93.51c1.37,1,2.79,2,4.16,2.93a1.71,1.71,0,0,0,2.35-.13c1.27-1.3,2.55-2.67,3.76-4a1.58,1.58,0,0,0,0-2.25h0c-1.19-1.57-2.28-3.19-3.55-4.62A2.93,2.93,0,0,1,279,422l.54-1.06a3.17,3.17,0,0,1,2.33-1.74l5.39-1A1.22,1.22,0,0,0,288.4,417c0-1.81,0-3.64,0-5.45a1.48,1.48,0,0,0-1.21-1.71,1.53,1.53,0,0,0-.37,0c-1.48-.13-2.95-.29-4.41-.34a5,5,0,0,1-4.89-3.93A2.64,2.64,0,0,1,278,402.82ZM264.51,425a10.89,10.89,0,1,1,5-14.59A10.88,10.88,0,0,1,264.51,425Z" transform="translate(-62.86 -342.11)"/><path class="cls-9" d="M211.71,371.7a9.73,9.73,0,1,0,9.73,9.73A9.73,9.73,0,0,0,211.71,371.7Zm-.06,16.5a6.77,6.77,0,1,1,6.76-6.77A6.77,6.77,0,0,1,211.65,388.2Z" transform="translate(-62.86 -342.11)"/></svg>