<svg id="Capa_1" data-name="Capa 1" xmlns="http://www.w3.org/2000/svg" viewBox="0 0 358.01 204.66"><defs><style>.cls-1{fill:#1c1c12;}.cls-2{fill:#ffdf68;}.cls-3{fill:#1e1e1c;}.cls-4{fill:#cfcece;}.cls-5{fill:#1d1d1b;}.cls-6{fill:#ffe068;}.cls-7{fill:#efeeee;}.cls-8{fill:#c6c6c6;}.cls-9{fill:#b2b2b2;}</style></defs><path class="cls-1" d="M236.69,538a18.6,18.6,0,0,1,3.18,1.68c1.94,1.09,3.85,2.22,5.77,3.33l4,2.3a2.27,2.27,0,0,1,1,1.42,1.56,1.56,0,0,1,0,.68,2.89,2.89,0,0,1-.71,1.19,2.22,2.22,0,0,1-2.52.22c-.85-.56-1.76-1-2.64-1.54l-3.24-1.89-2.62-1.49c-1.25-.72-2.5-1.43-3.73-2.19a1.72,1.72,0,0,1-.79-1.39.92.92,0,0,1,0-.52,1.92,1.92,0,0,1,1.48-1.73,1,1,0,0,0,.25-.08A1.22,1.22,0,0,1,236.69,538Z" transform="translate(-128.55 -426.23)"/><path class="cls-1" d="M169.09,538a2.2,2.2,0,0,1,1.55,1.25,5.27,5.27,0,0,1,.19.56.92.92,0,0,1,0,.52c-.22,1.16-1.17,1.59-2.07,2.11-1.11.63-2.2,1.29-3.31,1.92s-2.09,1.2-3.13,1.78-1.79,1.07-2.7,1.57a17.78,17.78,0,0,1-2.34,1.29,2,2,0,0,1-2.35-.7,1.53,1.53,0,0,1-.36-.89,1.31,1.31,0,0,1,0-.68,2,2,0,0,1,1.19-1.59l8-4.59c1.26-.72,2.51-1.46,3.77-2.19a4.1,4.1,0,0,1,.9-.35A1.38,1.38,0,0,1,169.09,538Z" transform="translate(-128.55 -426.23)"/><path class="cls-1" d="M242.6,520.08a2,2,0,0,1,1.28-1.5l.31-.09c.13-.06.28,0,.4-.06l.3,0h12.73a1.51,1.51,0,0,0,.3,0c.16.08.34,0,.49.07a2.11,2.11,0,0,1,1.44,1.43,5.86,5.86,0,0,1,.13.73c-.07.12,0,.28-.07.4a2.42,2.42,0,0,1-1.44,1.46.78.78,0,0,1-.21,0,.75.75,0,0,1-.33,0H244.6a.73.73,0,0,1-.33,0,2,2,0,0,1-1.66-1.59A3,3,0,0,1,242.6,520.08Z" transform="translate(-128.55 -426.23)"/><path class="cls-1" d="M145.25,519.93a2.29,2.29,0,0,1,1.42-1.41l.07,0c.15-.09.33,0,.48-.07l.3,0h12.74a1.46,1.46,0,0,0,.29,0c.14.07.28,0,.4.06a2.29,2.29,0,0,1,1.59,1.59,2,2,0,0,1-1,2.24,1.68,1.68,0,0,1-.64.25.61.61,0,0,1-.33,0H147.22a.62.62,0,0,1-.33,0,2,2,0,0,1-1.65-1.51c-.09-.12,0-.27-.08-.39C145.25,520.42,145.08,520.16,145.25,519.93Z" transform="translate(-128.55 -426.23)"/><path class="cls-1" d="M241.82,500a.14.14,0,0,0-.15,0c-.13-.07-.28,0-.4-.07a2.06,2.06,0,0,1-1.57-1.71,2.13,2.13,0,0,1,1.19-2.22l8.93-5.15a21.39,21.39,0,0,1,2-1.1,2.07,2.07,0,0,1,2.73,1,2.12,2.12,0,0,1,.18.82,2,2,0,0,1-1,1.82c-1.21.72-2.43,1.44-3.65,2.14s-2.45,1.39-3.67,2.09l-3.58,2.07a4.16,4.16,0,0,1-.54.23C242.11,500,242,499.91,241.82,500Z" transform="translate(-128.55 -426.23)"/><path class="cls-1" d="M234.17,469.32a.15.15,0,0,0,0,.16c-.06.12,0,.28-.06.39-.77,1.56-1.71,3-2.56,4.54-1.07,1.88-2.17,3.75-3.25,5.64a2.31,2.31,0,0,1-1.49,1.19,1.58,1.58,0,0,1-.75,0,1.94,1.94,0,0,1-1.66-1.59c-.08-.15,0-.33-.07-.48h0c.07-.13,0-.29.06-.4a3.29,3.29,0,0,1,.61-1.28c.51-.95,1.07-1.89,1.61-2.83s1-1.72,1.53-2.59,1-1.84,1.56-2.73a5.55,5.55,0,0,1,1-1.52,2.6,2.6,0,0,1,1.13-.49.8.8,0,0,1,.53,0,2.21,2.21,0,0,1,1.43.95c.11.21.2.42.3.63S234.11,469.2,234.17,469.32Z" transform="translate(-128.55 -426.23)"/><path class="cls-1" d="M175.71,478.16a.67.67,0,0,0-.17-.36c-1.41-2.45-2.81-4.89-4.22-7.32a2.06,2.06,0,0,1,3.46-2.22l.05.08.88,1.48c.43.86.94,1.68,1.42,2.51,1.14,2,2.28,3.95,3.42,5.93a3.89,3.89,0,0,1,.21.51c.06.13,0,.28.06.39h0c-.07.16,0,.33-.06.49a2.44,2.44,0,0,1-1,1.33,3.23,3.23,0,0,1-.65.25,1.63,1.63,0,0,1-.76,0,1.78,1.78,0,0,1-1.23-.74C176.59,479.76,176.19,478.94,175.71,478.16Z" transform="translate(-128.55 -426.23)"/><path class="cls-1" d="M202.8,458.59a2.41,2.41,0,0,1,1.48.92c.16.24.19.51.33.74a.62.62,0,0,1,0,.33v11.3a.65.65,0,0,1,0,.34,2.45,2.45,0,0,1-1,1.36,4.43,4.43,0,0,1-.79.3,1,1,0,0,1-.6,0,2,2,0,0,1-1.74-1.66.62.62,0,0,1,0-.33V460.58a.62.62,0,0,1,0-.33,2,2,0,0,1,1.41-1.56l.4-.1A.76.76,0,0,1,202.8,458.59Z" transform="translate(-128.55 -426.23)"/><path class="cls-1" d="M165.45,497.78a2.08,2.08,0,0,1-3.12,1.88l-6.11-3.53c-1.6-.92-3.19-1.82-4.75-2.75a2,2,0,0,1,.4-3.72,1.87,1.87,0,0,1,1.63.16l10.93,6.31A2,2,0,0,1,165.45,497.78Z" transform="translate(-128.55 -426.23)"/><path class="cls-2" d="M213.9,517.93a7.13,7.13,0,0,0-2.7-.56,10.36,10.36,0,0,0-3.46.4,3.53,3.53,0,0,0-2.61,3.39c-.07,1.3.05,2.61.09,3.91,0,.31-.06.4-.38.4a43,43,0,0,1-4.54,0c-.29,0-.4-.08-.37-.4,0-1,.07-2,.1-3.05.09-2.71-1-4.1-3.69-4.53a9.86,9.86,0,0,0-4.29.11,4.39,4.39,0,0,0-3.18,5.21,4,4,0,0,0,1.51,2.23,10.86,10.86,0,0,0,3.94,1.8,21.91,21.91,0,0,0,2.9.59c.27,0,.33.13.31.38q-.18,5.28-.35,10.56l-.33,10.23c-.09,2.52-.18,5-.25,7.56,0,.26-.07.36-.25.38v0h2.74c-.15,0-.21-.12-.21-.38q.27-7,.48-14,.22-6.46.43-12.93c0-.4,0-.8,0-1.2,0-.18,0-.27.25-.25a37.32,37.32,0,0,0,5,0c.3,0,.25.15.26.32l.27,7.86q.35,10,.67,20.07c0,.41,0,.52-.21.55h2.66c-.11-.05-.12-.16-.12-.3,0-1.6-.11-3.2-.16-4.82L208.1,542h0q-.23-7-.47-14.06c0-.31,0-.45.4-.5a19,19,0,0,0,5-1.32,9.13,9.13,0,0,0,1.81-1.06C217.5,523,216.4,519,213.9,517.93Zm-16.16,5h-.11v1.84c0,.18-.06.24-.25.21a14.9,14.9,0,0,1-4.93-1.49,4.45,4.45,0,0,1-.51-.33,1.66,1.66,0,0,1-.82-1.78,2,2,0,0,1,1.3-1.65,6.56,6.56,0,0,1,2.75-.23,6.82,6.82,0,0,1,1.27.18,1.42,1.42,0,0,1,1.3,1.64Zm15.71,0a6.62,6.62,0,0,1-2.17,1.17,20,20,0,0,1-3.43.84c-.24,0-.35,0-.35-.28,0-1.07-.08-2.15-.11-3.23s.36-1.62,1.5-1.82a10.56,10.56,0,0,1,2-.18,5.3,5.3,0,0,1,1.77.24,2.06,2.06,0,0,1,1.44,2.25A1.38,1.38,0,0,1,213.45,523Z" transform="translate(-128.55 -426.23)"/><path class="cls-3" d="M239.54,513.42c-.08-.41,0-.84-.06-1.24v-.34c-.06-.23,0-.48-.06-.71v-.2c-.07-.21,0-.43-.07-.63v-.12c-.07-.15,0-.33-.07-.48v-.13c-.06-.15,0-.32-.06-.47h0a0,0,0,0,1,0,0c-.07-.13,0-.27-.07-.4a2.25,2.25,0,0,1-.08-.24,34.77,34.77,0,0,0-1.19-5.06,36.07,36.07,0,0,0-3.32-7.52,37.8,37.8,0,0,0-12.89-13.14,36.55,36.55,0,0,0-9.71-4.14l-2.52-.61c-.13-.07-.28,0-.4-.07a.93.93,0,0,1-.52-.09c-.12-.06-.27,0-.39-.06h0a0,0,0,0,1-.05,0c-.15-.09-.32,0-.47-.07h-.14c-.12-.06-.27,0-.39-.06h-.13c-.17-.08-.37,0-.55-.06h-.2c-.2-.08-.42,0-.63-.06h-.2c-.32-.1-.67,0-1-.06H204a22.74,22.74,0,0,0-2.86,0h-.35c-.33.09-.67,0-1,.06h-.2c-.2.08-.43,0-.63.06h-.2c-.18.06-.38,0-.55.06h-.12c-.12.06-.27,0-.4.06h-.14c-.14.07-.32,0-.47.07h0s0,0-.05,0-.28,0-.4.06a1.13,1.13,0,0,1-.51.09c-.13.07-.28,0-.4.07l-.32.09a36.6,36.6,0,0,0-13.65,5.73,35.74,35.74,0,0,0-3.88,3.06c0,.14-.17.21-.27.3A37.36,37.36,0,0,0,168,501.22a2.1,2.1,0,0,1-.27.61c-.3.95-.63,1.88-.88,2.81a29.64,29.64,0,0,0-.85,4c-.07.12,0,.27-.07.4v.12c-.06.12,0,.27-.06.4v.12c-.08.15,0,.33-.06.49v.11c-.09.21,0,.43-.07.64v.19c-.09.27,0,.54-.06.8v.27c-.1.46,0,.93-.06,1.39a11.53,11.53,0,0,1,0,1.44c.09.48,0,1,.06,1.46v.27c.08.27,0,.54.06.8v.19c.07.21,0,.43.07.64v.11c.06.16,0,.33.06.49v.12c.07.15,0,.33.07.48h0a0,0,0,0,1,0,.06c.07.12,0,.27.07.4.08.54.12,1.1.25,1.63.29,1.23.55,2.48,1,3.67a38.61,38.61,0,0,0,2.23,5.5,35.7,35.7,0,0,0,2.12,3.7,38.74,38.74,0,0,0,3.83,4.91c1.16,1.27,2.28,2.58,3.33,3.94a40.45,40.45,0,0,1,3.84,5.77,26.36,26.36,0,0,1,1.77,4.17c.21.66.32,1.33.5,2,.06.13,0,.28.06.39v.12c.07.16,0,.33.07.49s-.21.18-.33.23a5.53,5.53,0,0,0-2.21,1.67,5.23,5.23,0,0,0-1.07,2.61,5.16,5.16,0,0,0,0,1.36,0,0,0,0,1,0,.06c.07.12,0,.27.07.39a1.15,1.15,0,0,0,0,.26,5.55,5.55,0,0,0,2.42,3.18c.19.11.21.21.1.4a3.64,3.64,0,0,0-.52,1.42c-.06.12,0,.28-.06.4v.13a3.09,3.09,0,0,0,0,1.05v.12c.06.13,0,.28.06.4a5.29,5.29,0,0,0,2,3.19,5.68,5.68,0,0,0,2.14,1c.13,0,.21.05.25.21a14.23,14.23,0,0,0,1.5,3.71,15.84,15.84,0,0,0,3.13,3.88,14.94,14.94,0,0,0,4.94,2.94,10.92,10.92,0,0,0,2.45.64c.12.07.28,0,.4.07h.06c.15.07.32,0,.47.07h.13c.23.09.47,0,.7.07h.28a6.09,6.09,0,0,0,1.35,0h.28c.23-.07.47,0,.7-.07h.13c.15-.06.33,0,.47-.06h.3a20.19,20.19,0,0,0,2.63-.75,15.37,15.37,0,0,0,4.66-2.72,14.9,14.9,0,0,0,4.74-7.4.83.83,0,0,1,.69-.66,5.18,5.18,0,0,0,2.85-2,6.56,6.56,0,0,0,1-2.11c.07-.12,0-.27.07-.4v-.13a3.08,3.08,0,0,0,0-1,5.43,5.43,0,0,0-.63-1.92c-.15-.24-.1-.35.11-.48a5.12,5.12,0,0,0,1.72-1.68,6,6,0,0,0,.83-2.17,5.08,5.08,0,0,0,0-1.35l-.06-.17a5.19,5.19,0,0,0-3.38-4.12c-.11,0-.25-.08-.17-.23s0-.32.07-.47a6.23,6.23,0,0,1,.27-1.6,22.88,22.88,0,0,1,2.39-5.71,49.2,49.2,0,0,1,5.79-8c.91-1,1.84-2,2.71-3.1a36.61,36.61,0,0,0,7.07-14.21c.19-.76.36-1.52.53-2.28.08-.12,0-.27.08-.39h0a0,0,0,0,1,0-.05c.06-.13,0-.28.06-.4a1.2,1.2,0,0,1,.09-.59c.08-.14,0-.32.06-.47V519c.06-.15,0-.32.06-.47v-.13c.1-.2,0-.42.07-.62v-.13c.1-.26,0-.54.07-.8v-.34c.09-.41,0-.84.06-1.24Zm-21.15,56.12a2.07,2.07,0,0,1-1.94,1.42H188.89a2.07,2.07,0,1,1-.34-4.13h27.74a2.11,2.11,0,0,1,2.1,2.72Zm2.14-8.28a2.06,2.06,0,0,1-1.8,2.25H186.82a2.08,2.08,0,0,1-2.17-1.74,2.1,2.1,0,0,1,1.79-2.37l.2,0h31.64A2.11,2.11,0,0,1,220.53,561.26Zm7-24.31a66.09,66.09,0,0,0-6.77,8.72,26.28,26.28,0,0,0-3.58,8.63c-.07.38-.13.77-.18,1.15v-.2H188.17v0h0v0a25.65,25.65,0,0,0-4-10,62.71,62.71,0,0,0-6.54-8.34,32.38,32.38,0,0,1-8.36-17.55,32.87,32.87,0,0,1,9.13-28.45,31.88,31.88,0,0,1,18.33-9.78c11.28-1.85,21.13,1.26,29.38,9.17a31.9,31.9,0,0,1,9.4,17.09C237.74,518.55,235,528.42,227.52,537Z" transform="translate(-128.55 -426.23)"/><path class="cls-4" d="M202.58,574.27h10.91c.39,0,.39,0,.27.4a11.91,11.91,0,0,1-22.38,0c-.12-.34,0-.37.28-.37Z" transform="translate(-128.55 -426.23)"/><path class="cls-5" d="M373.59,589.44h0l0,.05,0,0Z" transform="translate(-128.55 -426.23)"/><path class="cls-5" d="M457,505.51a69.25,69.25,0,0,0-1.21-9.63c-.2-1.38-.69-2.7-1-4.05a37.44,37.44,0,0,0-1.57-4.95c-.5-1.32-1-2.62-1.63-3.9-.76-1.66-1.62-3.25-2.52-4.82-.72-1.26-1.57-2.44-2.37-3.66a.75.75,0,0,0-.43-.62c-.11-.1-.31-.13-.28-.34a.87.87,0,0,0-.45-.67c-.32-.32-.74-.56-.82-1.05-.05-.31-.27-.43-.54-.51L443,470a7.78,7.78,0,0,0-2-2.23c-.35-.32-.53-.83-1.05-1a1.44,1.44,0,0,1-.47-.45c0-.33-.34-.39-.58-.5a55,55,0,0,0-4.31-3.62,48.47,48.47,0,0,0-4.83-3.18,32.1,32.1,0,0,0-4.7-2.33.25.25,0,0,0,0-.09c-.18-.1-.32-.25-.49-.35-.41-.06-.74-.47-1.19-.27h0a.88.88,0,0,0-.29-.18,3.78,3.78,0,0,0-.95-.24.49.49,0,0,1-.17,0,54,54,0,0,0-8.41-2.13c-2.23-.37-4.47-.69-6.73-.86-1.78-.14-3.55-.4-5.34-.38v0l-.09-.14a2.27,2.27,0,0,0-.85-.18c-1.14,0-2.28-.11-3.43-.12-2.81,0-5.61.05-8.42.2-2.17.11-4.33.38-6.48.62a3.06,3.06,0,0,0-1.18.29.44.44,0,0,0-.09.13h0l-.89.13c-.14.1-.38-.06-.48.11h0l-.28,0c-.26.07-.58,0-.72.34l0,0h0a.83.83,0,0,0-1,.21l0,0a.72.72,0,0,0-.52,0,.81.81,0,0,0-.29.19l-.2.11-.06-.05a6.18,6.18,0,0,0-1.83.52,44.18,44.18,0,0,0-6.87,2.71c-1.13.54-2.26,1.12-3.34,1.77-.67.39-1.33.81-2,1.18-1,.55-1.93,1.22-2.87,1.86s-1.55,1.1-2.32,1.66a35.19,35.19,0,0,0-3.1,2.62,1.12,1.12,0,0,1-.54.49c-.62.71-1.31,1.36-1.91,2.1a39.28,39.28,0,0,0-3.33,4.47,40.18,40.18,0,0,0-2.9,5.84,68.4,68.4,0,0,0-2.48,7.09c-.3,1.11-.77,2.17-1,3.29-.31,1.45-.91,2.81-1.33,4.22a15.94,15.94,0,0,0-.93,2.94.76.76,0,0,0,0,.15.5.5,0,0,0-.17.23.73.73,0,0,0-.07.24c0,.13-.06.26,0,.38s0,.17-.09.24a13,13,0,0,0-.5,3.44l0,.1-.1-.09a.76.76,0,0,0-.18.61v.29a7.23,7.23,0,0,0,0,1.23c.19.45-.06,1,.18,1.42a1.1,1.1,0,0,0,0,.18.68.68,0,0,0,.07.4,3.41,3.41,0,0,1,.24.6c0,.05,0,.1.05.15.21.58.53,1.12.7,1.71a6.1,6.1,0,0,1,.58,1.34,5.89,5.89,0,0,1-1.12,6.19c-.56.68-1,1.4-1.58,2.09a33.44,33.44,0,0,0-1.95,2.76c-.49.76-1.07,1.47-1.53,2.26-.81,1.37-1.7,2.68-2.52,4.05-.94,1.56-2.13,2.95-3.21,4.41a5.41,5.41,0,0,0-1.1,3.2,4.51,4.51,0,0,0,1.17,3.19,10,10,0,0,0,4.38,2.84,23.11,23.11,0,0,1,3.2,1.07,1.57,1.57,0,0,1,.34.34l.06,0a.92.92,0,0,0,0,.57,1.33,1.33,0,0,1,0,.9.48.48,0,0,0,.07.37h0a.47.47,0,0,0-.06.15,3.55,3.55,0,0,1-.09.47,2.84,2.84,0,0,0-.06.31.77.77,0,0,1-.1.29.83.83,0,0,0-.11.46.41.41,0,0,1,.05.09l-.36.51a.7.7,0,0,0-.29.8l0,.14a1.28,1.28,0,0,0-.11.2,4.11,4.11,0,0,0,0,1,4.78,4.78,0,0,0,2.24,3.57,1.45,1.45,0,0,1,.4.34.52.52,0,0,0,.11.1l.23.19.11.1c.36.29.11.45-.13.62a4,4,0,0,0-.29,4.56c.36.5.72,1,1.1,1.5a8.85,8.85,0,0,1,1.23,2.62,1.22,1.22,0,0,1,0,.8,16.68,16.68,0,0,0-.84,3.75,12.53,12.53,0,0,0,.34,6A10.28,10.28,0,0,0,347.6,579a41.49,41.49,0,0,0,8.67,1c2,.08,4,.07,6,.27a12.61,12.61,0,0,1,6.27,2.1,5.89,5.89,0,0,1,2.6,3.8,5.09,5.09,0,0,1,.34,1,4.42,4.42,0,0,1,.46,1.77,5.82,5.82,0,0,1,.35,1.91c.17.49.34,1,.47,1.48a35.59,35.59,0,0,1,1.26,5.95h3.05c-.16-1.43-.23-2.89-.38-4.32H374.3a.65.65,0,0,1-.22-.36,30.57,30.57,0,0,1-.57-3.15,1.6,1.6,0,0,1,.05-.39c0-.2,0-.4,0-.59a7.85,7.85,0,0,1-.29-1.52.31.31,0,0,1-.1-.1,7.82,7.82,0,0,1-.23-3.26,5.56,5.56,0,0,0-2.41-5.63,11.43,11.43,0,0,0-5.75-2c-1.82-.19-3.66-.17-5.49-.25a38,38,0,0,1-7.95-1,9.55,9.55,0,0,1-7-6.38,12.37,12.37,0,0,1-.31-5.65,16.14,16.14,0,0,1,.77-3.52,1.17,1.17,0,0,0,.05-.76A8.26,8.26,0,0,0,343.7,557c-.34-.46-.67-.94-1-1.41a3.86,3.86,0,0,1,.27-4.29c.22-.15.45-.3.12-.58l-.1-.1-.21-.17-.1-.1a1.61,1.61,0,0,0-.37-.32,4.51,4.51,0,0,1-2.05-3.35,4.12,4.12,0,0,1,0-.93l.1-.2v-.13a.66.66,0,0,1,.26-.75l.33-.48s0-.05,0-.08a.75.75,0,0,1,.1-.44.66.66,0,0,0,.09-.27c0-.1,0-.2.05-.29a3.12,3.12,0,0,0,.09-.44.88.88,0,0,1,.05-.15h0a.45.45,0,0,1-.06-.34,1.3,1.3,0,0,0,0-.85.83.83,0,0,1,0-.54l-.06,0a1.22,1.22,0,0,0-.32-.32,20.28,20.28,0,0,0-2.93-1,9.1,9.1,0,0,1-4-2.68,4.28,4.28,0,0,1-1.07-3,5.09,5.09,0,0,1,1-3c1-1.38,2.08-2.69,2.94-4.16.75-1.28,1.57-2.52,2.31-3.81.42-.74,1-1.4,1.4-2.13.56-.89,1.15-1.76,1.78-2.59.5-.65.94-1.33,1.45-2a5.64,5.64,0,0,0,1-5.83,5.8,5.8,0,0,0-.53-1.26c-.16-.56-.44-1.06-.64-1.61,0,0,0-.1-.05-.15a2.34,2.34,0,0,0-.22-.55.71.71,0,0,1-.06-.38.88.88,0,0,1,0-.17c-.22-.42,0-.91-.16-1.34a5.54,5.54,0,0,1,0-1.15,2.62,2.62,0,0,1,0-.28.74.74,0,0,1,.16-.57l.09.08v-.09a12.66,12.66,0,0,1,.45-3.24c.05-.06,0-.17.09-.22a.56.56,0,0,1,0-.36,1,1,0,0,1,.06-.23.42.42,0,0,1,.16-.21.77.77,0,0,1,0-.15,15.76,15.76,0,0,1,.86-2.76c.38-1.33.93-2.61,1.21-4,.22-1.06.65-2.05.93-3.09a64.81,64.81,0,0,1,2.27-6.68A37.54,37.54,0,0,1,352,476.4a36.41,36.41,0,0,1,3.05-4.21c.55-.69,1.18-1.31,1.75-2a1.08,1.08,0,0,0,.5-.47,31.69,31.69,0,0,1,2.84-2.46c.7-.53,1.4-1.07,2.12-1.56s1.72-1.24,2.64-1.76c.62-.35,1.22-.74,1.83-1.11,1-.6,2-1.15,3.07-1.66a39.83,39.83,0,0,1,6.29-2.55,5.86,5.86,0,0,1,1.69-.49l.05,0,.18-.1a.8.8,0,0,1,.27-.18.59.59,0,0,1,.47,0l0,0a.77.77,0,0,1,.93-.2h0l0,0c.13-.3.42-.25.66-.31a.54.54,0,0,1,.25,0h0c.09-.16.31,0,.43-.11l.82-.12h0a.66.66,0,0,1,.08-.13,2.78,2.78,0,0,1,1.08-.27c2-.23,3.95-.48,5.95-.58,2.57-.14,5.14-.23,7.72-.19,1,0,2.09.14,3.14.12a1.91,1.91,0,0,1,.78.16l.08.14v0c1.64,0,3.26.22,4.89.35,2.07.16,4.12.46,6.17.82a47.73,47.73,0,0,1,7.71,2,.4.4,0,0,0,.16,0,3.83,3.83,0,0,1,.87.22.73.73,0,0,1,.26.17h0c.41-.18.72.19,1.08.25.17.1.29.24.46.33a.16.16,0,0,1,0,.09,28.6,28.6,0,0,1,4.31,2.19,44.06,44.06,0,0,1,4.43,3,51.21,51.21,0,0,1,4,3.41c.22.1.47.16.52.47a1.36,1.36,0,0,0,.43.43c.48.11.65.59,1,.88a7.65,7.65,0,0,1,1.81,2.11l1,1.26c.24.08.44.19.49.48.07.47.46.69.74,1a.8.8,0,0,1,.42.64c0,.19.16.22.25.31a.69.69,0,0,1,.4.59c.73,1.14,1.51,2.26,2.17,3.44.83,1.48,1.62,3,2.31,4.53.55,1.21,1,2.44,1.5,3.67a37.64,37.64,0,0,1,1.44,4.67c.29,1.27.74,2.51.92,3.8a65.93,65.93,0,0,1,1.11,9.06,17.78,17.78,0,0,0,.1,2.31,54.22,54.22,0,0,1-.34,6.5,25.06,25.06,0,0,1-.67,3.64,4,4,0,0,0-.08.48c-.06.12,0,.26-.08.37l-.3.81h0a.79.79,0,0,1,0,.64c-.41,1.11-.67,2.27-1.08,3.38a53.1,53.1,0,0,1-3,6.67c-1.09,2.06-2.23,4.07-3.48,6-.05.08-.08.16-.12.24s-.15.32-.23.47c-.68,1-1.19,2.07-1.8,3.11s-1.19,2.2-1.76,3.32c-.35.7-.65,1.42-.95,2.14a63.36,63.36,0,0,0-2.44,6.72c-.52,1.85-1,3.7-1.42,5.57-.36,1.51-.5,3.06-.72,4.6a37.43,37.43,0,0,0-.45,6.6c.08,2.05.3,4.08.51,6.11l0,.31c0,5.61.2,11.22.25,16.83a2.44,2.44,0,0,1,.06.26,5.46,5.46,0,0,1,0,.56,5.73,5.73,0,0,1,.07.85c0,.53,0,1,0,1.43a10.78,10.78,0,0,1,.35,1.67h3.23c-.05-6.12-.27-12.24-.28-18.36,0-.11,0-.22,0-.33-.22-2.16-.47-4.32-.55-6.49a38.38,38.38,0,0,1,.49-7c.24-1.63.39-3.28.78-4.89.48-2,1-4,1.56-5.91a62.61,62.61,0,0,1,2.66-7.15c.32-.76.65-1.53,1-2.27.61-1.19,1.23-2.39,1.92-3.53s1.21-2.26,2-3.31c.09-.16.17-.33.25-.49a2.1,2.1,0,0,1,.13-.26c1.36-2.08,2.61-4.22,3.79-6.4a54.1,54.1,0,0,0,3.24-7.1c.45-1.18.73-2.41,1.18-3.59a.77.77,0,0,0,0-.68h0l.33-.86c.12-.11,0-.27.08-.39s.05-.35.09-.51a25.77,25.77,0,0,0,.74-3.88,56.75,56.75,0,0,0,.36-6.9A18.26,18.26,0,0,1,457,505.51Z" transform="translate(-128.55 -426.23)"/><path class="cls-5" d="M437.54,465.54l-.12-.13C437.5,465.4,437.53,465.46,437.54,465.54Z" transform="translate(-128.55 -426.23)"/><path class="cls-5" d="M433.66,468.94l.11.11C433.76,469,433.74,468.93,433.66,468.94Z" transform="translate(-128.55 -426.23)"/><path class="cls-5" d="M370.67,580.65c.94.47,1.5,1.93,1.92,2.83a25.09,25.09,0,0,1,1.35,3.66,30.46,30.46,0,0,1,.91,3.53,17.45,17.45,0,0,0,.63,3.58c.3.73,1.51.41,1.21-.34a21.27,21.27,0,0,1-.68-3.81,36.94,36.94,0,0,0-1.09-4,25.51,25.51,0,0,0-1.46-3.69c-.5-1-1.11-2.32-2.16-2.84-.71-.36-1.35.71-.63,1.08Z" transform="translate(-128.55 -426.23)"/><path class="cls-5" d="M375.31,594.41c-.22.05-.13.38.05.11l-1.15-.14a4.64,4.64,0,0,1,.06.83h1.25c-.09-1.13-.16-2.26-.2-3.39,0-.8-1.27-.81-1.25,0,0,.48,0,1,0,1.45l1.23-.17a29.11,29.11,0,0,1-.48-3.48c-.06-.79-1.26-.82-1.25,0,0,1.51.09,3,.23,4.53a.63.63,0,0,0,1.25,0c0-1,.05-2.1,0-3.16H373.8l.27,4.17,1.23-.16a3.37,3.37,0,0,1-.27-1.43h-1.25c0,.63.09,1.24.18,1.86s1.27.53,1.23-.17a7.14,7.14,0,0,0-.36-2.16,10,10,0,0,1-.76-1.94c-.13-.69-1.26-.53-1.23.17a19.2,19.2,0,0,0,.72,4.52.63.63,0,0,0,1.23-.16,32.82,32.82,0,0,0-.05-4.09.63.63,0,0,0-1.25,0,15.34,15.34,0,0,0,0,3l1.23-.17c-.74-1.79-.46-3.72-.59-5.61a10.12,10.12,0,0,0-.55-2.71,5.69,5.69,0,0,1-.6-2.8l-1.14.15a21.21,21.21,0,0,1,1.18,2.73l1-.61c-.33-.38-.65-.77-.94-1.18s-1.21-.36-1.17.31c.06.94.17,1.88.32,2.81.11.72,1.21.51,1.23-.17s0-1.44-.05-2.16l-1.22.17c.18,1.33.32,2.67.41,4a.63.63,0,0,0,1.25,0v-2.22h-1.25v1.44l1.23-.16c-.17-1-.78-2-.43-3h-1.21a10.56,10.56,0,0,1,.68,3.09.63.63,0,0,0,1.25,0,14.57,14.57,0,0,0-.15-2.64c-.1-.72-1.21-.52-1.22.16a16.89,16.89,0,0,0,.23,3c.12.71,1.23.52,1.23-.17v-2.72a.63.63,0,0,0-1.25,0,10.5,10.5,0,0,0,.34,2.36,11.17,11.17,0,0,1,.1,2.71h1.25l-.15-4.46a.63.63,0,0,0-1.25,0,3.93,3.93,0,0,0,.37,1.71,7.82,7.82,0,0,1,.22,1.86,38.91,38.91,0,0,0,.4,4c.09.65,1,.55,1.2,0,.45-1.53-.52-3-.21-4.48l-1.23-.17q.26,2.84.66,5.65c.1.71,1.22.51,1.23-.17V594a.63.63,0,0,0-1.25,0v.16a.63.63,0,0,0,1.25,0V594h-1.25v1.24l1.22-.16c-.25-1.77-.45-3.54-.61-5.32-.06-.65-1.08-.91-1.23-.16a5.58,5.58,0,0,0,.07,2.19,4.69,4.69,0,0,1,.15,2.29h1.2c-.19-1.3-.3-2.61-.36-3.92a10.39,10.39,0,0,0-.17-1.67,4.87,4.87,0,0,1-.41-1.69h-1.25l.15,4.46a.63.63,0,0,0,1.25,0,13,13,0,0,0-.07-2.57,13.36,13.36,0,0,1-.37-2.5H373v2.72l1.23-.16a14.16,14.16,0,0,1-.19-2.68l-1.23.17a13.75,13.75,0,0,1,.1,2.31h1.25a11.54,11.54,0,0,0-.72-3.43.64.64,0,0,0-1.21,0c-.43,1.27.23,2.41.43,3.65.12.7,1.23.52,1.23-.17v-1.44a.63.63,0,0,0-1.25,0v2.22h1.25c-.1-1.46-.26-2.91-.46-4.35-.09-.7-1.27-.54-1.23.16s.06,1.44.05,2.16l1.23-.16c-.14-.82-.22-1.65-.28-2.48l-1.16.32q.54.75,1.14,1.44a.63.63,0,0,0,1-.61,21.31,21.31,0,0,0-1.31-3,.63.63,0,0,0-1.14.15c-.33,2,1,3.84,1.11,5.84s-.15,4,.64,5.94c.24.59,1.31.61,1.22-.16a15.34,15.34,0,0,1,0-3h-1.25a32.82,32.82,0,0,1,.05,4.09l1.22-.17a18.59,18.59,0,0,1-.67-4.19l-1.23.17a7.21,7.21,0,0,0,.65,1.69,5.48,5.48,0,0,1,.43,2.07l1.23-.17a12.81,12.81,0,0,1-.14-1.52.63.63,0,0,0-1.25,0,4.22,4.22,0,0,0,.31,1.76c.25.59,1.28.6,1.23-.17l-.27-4.17c-.06-.79-1.27-.81-1.25,0,0,1.06,0,2.11,0,3.16H375c-.14-1.51-.22-3-.23-4.53h-1.25a32.6,32.6,0,0,0,.52,3.81c.15.73,1.19.51,1.23-.16,0-.49,0-1,0-1.45h-1.25c0,1.13.11,2.26.2,3.39a.63.63,0,0,0,1.25,0,7.7,7.7,0,0,0-.1-1.17c-.09-.57-.88-.55-1.14-.15a1.16,1.16,0,0,0,0,1.46,1.39,1.39,0,0,0,1.41.27c.78-.19.45-1.4-.33-1.21Z" transform="translate(-128.55 -426.23)"/><path class="cls-5" d="M331.91,538.48c1.41.55,2.83,1.06,4.26,1.55,1.06.36,2.74.57,3.06,1.84s-.48,2.53-.83,3.67a9.91,9.91,0,0,0-.46,4.29c.11.89,3,.25,2.89-.78a9.77,9.77,0,0,1,.62-4.41c.42-1.21,1.12-2.59.57-3.88s-2-1.57-3.21-2c-1.54-.52-3.06-1.08-4.58-1.66a2.52,2.52,0,0,0-2.05.29c-.34.2-.92.81-.27,1.06Z" transform="translate(-128.55 -426.23)"/><path class="cls-5" d="M371.64,586.1c1.88,3.58,2.55,7.65,3.05,11.62.1.72,1.21.8,1.74.66a1.38,1.38,0,0,0,1.16-1.44,35.08,35.08,0,0,0-3.31-12.15c-.33-.64-1.45-.51-2-.25a1.13,1.13,0,0,0-.66,1.56Z" transform="translate(-128.55 -426.23)"/><path class="cls-5" d="M382.05,475.3l1.7-1a.5.5,0,0,0,.26-.73c-.21-.51-.41-1-.62-1.54a.6.6,0,0,0-.8-.39l-.61.15-1.31.32a1.92,1.92,0,0,1-1.54-1.3.42.42,0,0,1,0-.19c.18-.67.36-1.35.53-2a.52.52,0,0,0-.34-.72l-1.51-.63a.5.5,0,0,0-.76.25c-.34.58-.69,1.15-1,1.73a.46.46,0,0,1-.29.24,2.88,2.88,0,0,1-1.13.14,1,1,0,0,1-.87-.56c-.27-.54-.58-1.06-.88-1.58a.52.52,0,0,0-.75-.27l-1.51.57a.66.66,0,0,0-.47.91l.39,1.69a.79.79,0,0,1,0,.48,1.67,1.67,0,0,1-.85,1,1.07,1.07,0,0,1-.91.07c-.49-.18-1-.33-1.49-.48a.68.68,0,0,0-.93.42l-.63,1.43a.59.59,0,0,0,.28.84l1.54.94a.89.89,0,0,1,.42.55,2.33,2.33,0,0,1,0,1.23.81.81,0,0,1-.42.51l-1.58.92a.6.6,0,0,0-.3.78c.19.51.39,1,.61,1.52a.67.67,0,0,0,.87.4l1.83-.43a.8.8,0,0,1,.59.08,2.1,2.1,0,0,1,.84,1,.88.88,0,0,1,0,.62c-.17.57-.34,1.13-.5,1.7a.62.62,0,0,0,.34.78c.56.25,1.12.49,1.69.72a.48.48,0,0,0,.67-.25l1-1.61a.89.89,0,0,1,.55-.42,2.36,2.36,0,0,1,1,0,1.05,1.05,0,0,1,.79.58l.81,1.48a.57.57,0,0,0,.71.3c.58-.2,1.15-.42,1.71-.65a.53.53,0,0,0,.34-.67c-.12-.63-.21-1.27-.38-1.88a1,1,0,0,1,.4-1.14,3.65,3.65,0,0,1,.31-.24,1,1,0,0,1,1-.17l1.76.47a.39.39,0,0,0,.51-.17c.27-.54.54-1.08.79-1.62a.48.48,0,0,0-.22-.74c-.41-.26-.83-.52-1.26-.75a1.64,1.64,0,0,1-.83-1.88A.89.89,0,0,1,382.05,475.3Zm-7.24,4.61a3.6,3.6,0,1,1,3.61-3.59A3.61,3.61,0,0,1,374.81,479.91Z" transform="translate(-128.55 -426.23)"/><path class="cls-6" d="M396.22,488.21c-.06-.49-.12-1-.2-1.48s-.17-.51-.61-.49-1,.07-1.46.07a1.33,1.33,0,0,1-1.18-1.88c.22-.44.45-.89.66-1.35a.47.47,0,0,0-.19-.71l-1.14-.76a.52.52,0,0,0-.8.09q-.46.49-.9,1a1.42,1.42,0,0,1-1.64.34.81.81,0,0,1-.49-.53c-.17-.53-.36-1.06-.55-1.59a.48.48,0,0,0-.61-.35l-1.4.29c-.36.08-.44.19-.43.57,0,.56.07,1.12.1,1.68a.48.48,0,0,1-.06.33,2.1,2.1,0,0,1-.95.77.76.76,0,0,1-.69,0c-.48-.26-1-.49-1.45-.73a.46.46,0,0,0-.65.16l-.81,1.15a.58.58,0,0,0,.07.9c.37.36.74.71,1.12,1.05a1,1,0,0,1,.25,1.15,1,1,0,0,1-.74.81c-.44.12-.87.26-1.31.39a.59.59,0,0,0-.48.75c.07.46.16.92.25,1.38a.48.48,0,0,0,.57.45l1.59-.07a1.3,1.3,0,0,1,1.11,1.7c-.21.45-.43.9-.65,1.36a.56.56,0,0,0,.2.78c.36.25.72.5,1.09.74a.63.63,0,0,0,.89-.11,3.42,3.42,0,0,1,.74-.73c.15,0,.21-.18.29-.28a.88.88,0,0,1,.95-.31,1.4,1.4,0,0,1,1,.67c.2.44.31.92.48,1.37a.57.57,0,0,0,.7.42l1.46-.29a.46.46,0,0,0,.42-.53c0-.5,0-1-.09-1.5a1,1,0,0,1,.53-1,1.06,1.06,0,0,1,1.22-.17l1.28.65a.52.52,0,0,0,.73-.18c.28-.39.55-.78.82-1.18s.2-.49-.08-.77l-1.29-1.28a.61.61,0,0,1-.18-.24,1.46,1.46,0,0,1,.78-1.54l1.36-.47C396,488.58,396.25,488.5,396.22,488.21ZM388,492.8a3.94,3.94,0,1,1,3.94-3.92A3.92,3.92,0,0,1,388,492.8Z" transform="translate(-128.55 -426.23)"/><path class="cls-5" d="M409.08,480.41c.51-.28,1-.58,1.51-.87a.44.44,0,0,0,.23-.65c-.18-.46-.37-.91-.55-1.37a.52.52,0,0,0-.71-.34l-.55.13-1.16.28a1.7,1.7,0,0,1-1.38-1.16.3.3,0,0,1,0-.16l.48-1.81a.47.47,0,0,0-.31-.63l-1.34-.57a.46.46,0,0,0-.69.23l-.9,1.53a.41.41,0,0,1-.26.22,2.47,2.47,0,0,1-1,.12.91.91,0,0,1-.78-.5c-.23-.48-.51-.94-.78-1.4a.47.47,0,0,0-.67-.24l-1.34.51c-.41.15-.52.37-.42.81s.23,1,.35,1.5a.7.7,0,0,1,0,.43,1.49,1.49,0,0,1-.75.88,1,1,0,0,1-.82.06q-.64-.23-1.32-.42a.6.6,0,0,0-.83.37c-.18.43-.37.85-.56,1.27a.53.53,0,0,0,.25.76l1.37.83a.81.81,0,0,1,.38.49,2.12,2.12,0,0,1,0,1.09.75.75,0,0,1-.37.46l-1.42.82a.54.54,0,0,0-.26.7q.25.68.54,1.35a.6.6,0,0,0,.78.36l1.62-.39a.74.74,0,0,1,.53.07,1.87,1.87,0,0,1,.75.85.75.75,0,0,1,0,.55c-.15.51-.3,1-.44,1.52a.54.54,0,0,0,.3.69c.49.23,1,.44,1.5.64a.42.42,0,0,0,.6-.22c.29-.47.58-.95.86-1.43a.79.79,0,0,1,.49-.37,2,2,0,0,1,.88,0,.93.93,0,0,1,.71.52l.72,1.31a.5.5,0,0,0,.64.27c.51-.18,1-.37,1.52-.58a.46.46,0,0,0,.3-.59c-.11-.56-.18-1.13-.34-1.68a.88.88,0,0,1,.36-1l.28-.21a.9.9,0,0,1,.84-.15c.52.15,1.05.29,1.57.42a.34.34,0,0,0,.45-.16c.24-.48.49-.95.71-1.44a.43.43,0,0,0-.2-.66c-.37-.23-.73-.46-1.12-.66a1.47,1.47,0,0,1-.74-1.68A.81.81,0,0,1,409.08,480.41Zm-6.46,4.1a3.21,3.21,0,1,1,3.22-3.19A3.21,3.21,0,0,1,402.62,484.51Z" transform="translate(-128.55 -426.23)"/><path class="cls-5" d="M433.51,484.14c.77-.42,1.52-.86,2.27-1.3a.65.65,0,0,0,.35-1c-.27-.69-.55-1.38-.83-2.06a.8.8,0,0,0-1.07-.53l-.82.21-1.74.42a2.57,2.57,0,0,1-2.08-1.74.56.56,0,0,1,.05-.25c.23-.91.48-1.81.71-2.71a.69.69,0,0,0-.46-1l-2-.85c-.51-.21-.76-.13-1,.34-.46.77-.92,1.53-1.37,2.31a.61.61,0,0,1-.38.32,3.93,3.93,0,0,1-1.52.19,1.38,1.38,0,0,1-1.17-.75c-.35-.73-.78-1.42-1.17-2.12a.71.71,0,0,0-1-.35l-2,.76c-.63.24-.79.55-.64,1.22s.35,1.5.52,2.26a1,1,0,0,1,0,.64,2.25,2.25,0,0,1-1.13,1.33,1.5,1.5,0,0,1-1.23.09c-.65-.24-1.32-.44-2-.64a.92.92,0,0,0-1.25.57l-.84,1.91a.78.78,0,0,0,.37,1.13l2.06,1.26a1.17,1.17,0,0,1,.57.72,3.29,3.29,0,0,1,0,1.65,1.07,1.07,0,0,1-.56.69c-.71.4-1.41.82-2.12,1.23a.8.8,0,0,0-.4,1c.25.68.52,1.36.81,2a.91.91,0,0,0,1.18.54l2.44-.58a1,1,0,0,1,.79.11,2.74,2.74,0,0,1,1.12,1.28,1.11,1.11,0,0,1,0,.82c-.23.76-.45,1.52-.67,2.29a.83.83,0,0,0,.46,1q1.11.5,2.25,1a.66.66,0,0,0,.91-.33c.43-.72.87-1.44,1.29-2.16a1.2,1.2,0,0,1,.73-.56,3.15,3.15,0,0,1,1.33-.06,1.44,1.44,0,0,1,1.07.78c.35.66.72,1.32,1.08,2a.76.76,0,0,0,.95.41c.77-.28,1.54-.57,2.29-.87a.71.71,0,0,0,.46-.9c-.17-.84-.28-1.7-.51-2.52a1.31,1.31,0,0,1,.53-1.54l.42-.31a1.4,1.4,0,0,1,1.27-.23l2.36.64a.54.54,0,0,0,.68-.24c.36-.72.72-1.44,1.06-2.17a.64.64,0,0,0-.29-1c-.56-.35-1.11-.7-1.69-1a2.21,2.21,0,0,1-1.12-2.52A1.24,1.24,0,0,1,433.51,484.14Zm-9.7,6.18a4.82,4.82,0,1,1,4.84-4.81A4.84,4.84,0,0,1,423.81,490.32Z" transform="translate(-128.55 -426.23)"/><path class="cls-5" d="M412.39,498.12l1.67-.95a.49.49,0,0,0,.26-.72c-.2-.51-.41-1-.62-1.52a.57.57,0,0,0-.78-.38l-.6.15L411,495a1.89,1.89,0,0,1-1.52-1.28.57.57,0,0,1,0-.18l.53-2a.51.51,0,0,0-.34-.7l-1.48-.62a.5.5,0,0,0-.76.24l-1,1.7a.47.47,0,0,1-.28.24,2.86,2.86,0,0,1-1.12.14,1,1,0,0,1-.86-.56c-.26-.53-.57-1-.86-1.55a.52.52,0,0,0-.74-.26l-1.48.56c-.46.17-.58.41-.47.9l.39,1.66a.83.83,0,0,1,0,.47,1.64,1.64,0,0,1-.83,1,1.09,1.09,0,0,1-.9.06c-.48-.17-1-.32-1.46-.47a.68.68,0,0,0-.92.42c-.21.46-.41.93-.62,1.4a.58.58,0,0,0,.28.83l1.51.93a.89.89,0,0,1,.42.53,2.36,2.36,0,0,1,0,1.21.84.84,0,0,1-.41.51l-1.56.9a.6.6,0,0,0-.3.78c.19.5.39,1,.6,1.49a.68.68,0,0,0,.86.4l1.8-.43a.78.78,0,0,1,.58.08,2,2,0,0,1,.82.94.78.78,0,0,1,0,.6c-.17.56-.33,1.12-.49,1.68a.62.62,0,0,0,.33.77c.55.24,1.1.48,1.66.7a.48.48,0,0,0,.67-.24c.31-.53.64-1,.95-1.59a.87.87,0,0,1,.54-.41,2.44,2.44,0,0,1,1,0,1,1,0,0,1,.79.57l.79,1.46a.57.57,0,0,0,.7.3l1.69-.64a.53.53,0,0,0,.33-.66c-.12-.62-.21-1.25-.38-1.86a1,1,0,0,1,.4-1.12l.3-.24a1,1,0,0,1,.94-.16l1.73.47a.39.39,0,0,0,.5-.18q.4-.8.78-1.59a.47.47,0,0,0-.21-.73c-.41-.26-.82-.52-1.24-.74a1.63,1.63,0,0,1-.83-1.85A.91.91,0,0,1,412.39,498.12Zm-7.13,4.54a3.55,3.55,0,1,1,3.56-3.53A3.55,3.55,0,0,1,405.26,502.66Z" transform="translate(-128.55 -426.23)"/><path class="cls-6" d="M436.47,509.74c-.08-.69-.16-1.38-.28-2.06s-.24-.7-.84-.68-1.35.09-2,.1a1.83,1.83,0,0,1-1.62-2.6c.3-.62.61-1.24.91-1.87a.65.65,0,0,0-.27-1l-1.58-1.06a.72.72,0,0,0-1.1.14c-.43.45-.84.91-1.26,1.37a2,2,0,0,1-2.27.47,1.11,1.11,0,0,1-.67-.73c-.23-.74-.51-1.47-.77-2.21a.65.65,0,0,0-.83-.48c-.65.12-1.3.26-1.95.4s-.61.26-.58.78l.12,2.33a.62.62,0,0,1-.07.46,3,3,0,0,1-1.33,1.07,1.06,1.06,0,0,1-.95-.06c-.66-.35-1.34-.67-2-1a.64.64,0,0,0-.9.22c-.37.54-.75,1.06-1.12,1.6a.79.79,0,0,0,.1,1.25c.51.49,1,1,1.55,1.44a1.48,1.48,0,0,1,.35,1.6,1.42,1.42,0,0,1-1,1.13c-.62.16-1.22.35-1.83.53a.82.82,0,0,0-.66,1c.1.64.22,1.28.34,1.91a.67.67,0,0,0,.8.62l2.2-.09a1.8,1.8,0,0,1,1.54,2.36l-.9,1.87a.78.78,0,0,0,.27,1.1c.5.34,1,.68,1.51,1a.87.87,0,0,0,1.23-.14c.35-.35.59-.79,1-1,.2,0,.28-.23.4-.37a1.2,1.2,0,0,1,1.31-.44,2,2,0,0,1,1.34.93c.28.61.43,1.27.66,1.9a.8.8,0,0,0,1,.58l2-.4a.65.65,0,0,0,.58-.74c-.05-.69,0-1.39-.13-2.07a1.41,1.41,0,0,1,.74-1.4,1.49,1.49,0,0,1,1.69-.24c.58.31,1.18.61,1.77.9a.72.72,0,0,0,1-.25c.38-.54.76-1.08,1.13-1.63a.69.69,0,0,0-.11-1.07l-1.78-1.77a.88.88,0,0,1-.26-.34A2,2,0,0,1,434,511l1.88-.64C436.2,510.25,436.52,510.13,436.47,509.74ZM425,516.1a5.46,5.46,0,0,1,0-10.92,5.46,5.46,0,1,1,0,10.92Z" transform="translate(-128.55 -426.23)"/><path class="cls-5" d="M379.37,496.62c.65-.36,1.3-.73,1.94-1.11a.56.56,0,0,0,.3-.83c-.23-.59-.47-1.18-.71-1.76a.68.68,0,0,0-.91-.45l-.71.17-1.49.36a2.18,2.18,0,0,1-1.77-1.48.57.57,0,0,1,0-.22c.2-.77.41-1.54.61-2.31a.59.59,0,0,0-.39-.82l-1.73-.73a.58.58,0,0,0-.88.29c-.38.66-.78,1.31-1.16,2a.51.51,0,0,1-.33.28,3.32,3.32,0,0,1-1.29.16,1.13,1.13,0,0,1-1-.64c-.31-.62-.67-1.21-1-1.81a.59.59,0,0,0-.86-.3l-1.72.65c-.53.2-.67.47-.54,1s.29,1.29.44,1.93a.94.94,0,0,1,0,.55,2,2,0,0,1-1,1.14,1.32,1.32,0,0,1-1.05.08c-.56-.21-1.13-.38-1.7-.55a.77.77,0,0,0-1.06.48c-.25.54-.49,1.09-.72,1.63a.67.67,0,0,0,.31,1l1.77,1.07a1.05,1.05,0,0,1,.48.63,2.77,2.77,0,0,1,0,1.4.92.92,0,0,1-.48.59L361,500.05a.69.69,0,0,0-.35.9c.22.59.45,1.17.7,1.74a.78.78,0,0,0,1,.46l2.09-.5a.92.92,0,0,1,.67.09,2.36,2.36,0,0,1,1,1.09,1,1,0,0,1,0,.71q-.3,1-.57,1.95a.7.7,0,0,0,.39.89c.64.29,1.28.56,1.93.82a.55.55,0,0,0,.77-.28c.37-.61.75-1.23,1.11-1.84a1,1,0,0,1,.62-.48,2.75,2.75,0,0,1,1.14-.05,1.22,1.22,0,0,1,.91.66c.3.57.62,1.13.92,1.69a.65.65,0,0,0,.82.35c.65-.23,1.31-.48,1.95-.74a.6.6,0,0,0,.39-.76c-.14-.73-.24-1.46-.43-2.16a1.1,1.1,0,0,1,.45-1.31l.36-.27a1.19,1.19,0,0,1,1.08-.2l2,.55a.46.46,0,0,0,.58-.21c.31-.61.62-1.23.91-1.85a.56.56,0,0,0-.25-.85c-.48-.29-.95-.59-1.44-.85a1.88,1.88,0,0,1-1-2.15A1,1,0,0,1,379.37,496.62Zm-8.29,5.28a4.12,4.12,0,1,1,4.14-4.11A4.14,4.14,0,0,1,371.08,501.9Z" transform="translate(-128.55 -426.23)"/><circle class="cls-7" cx="126.17" cy="25.52" r="3.52"/><circle class="cls-8" cx="3.52" cy="53.67" r="3.52"/><circle class="cls-9" cx="33.17" cy="14.15" r="7.85"/><circle class="cls-8" cx="85.5" cy="6.3" r="6.3"/><circle class="cls-7" cx="263.48" cy="201.14" r="3.52"/><circle class="cls-8" cx="354.49" cy="114.23" r="3.52"/><circle class="cls-9" cx="349.22" cy="163.36" r="7.85"/><circle class="cls-8" cx="308.27" cy="196.86" r="6.3"/></svg>