<svg id="Capa_1" data-name="Capa 1" xmlns="http://www.w3.org/2000/svg" viewBox="0 0 149.35 151.83"><defs><style>.cls-1{fill:#fff;stroke:#fff;}.cls-1,.cls-2{stroke-miterlimit:10;}.cls-2{fill:#ffd900;stroke:#000;stroke-width:3px;}</style></defs><path class="cls-1" d="M429.91,423.81c-.56-1-1.13-2-1.72-3a.86.86,0,0,0-1.09-.55.66.66,0,0,0-.19.09c-.91.35-1.82.72-2.71,1.1a1,1,0,0,0-.74,1.27v0s0,.08,0,.11l.26,1.1.56,2.3A3.36,3.36,0,0,1,422,429a.65.65,0,0,1-.34,0l-3.57-.93a.91.91,0,0,0-1.21.43l-.06.16-1.12,2.67a.9.9,0,0,0,.23,1.25l.2.11c1,.58,2,1.2,3.09,1.78a.85.85,0,0,1,.44.51,5.19,5.19,0,0,1,.24,2,1.73,1.73,0,0,1-1,1.54c-1,.48-1.87,1-2.8,1.54a.92.92,0,0,0-.54,1.17h0l.08.15,1,2.66a1.12,1.12,0,0,0,1.55.83c.82-.2,2-.43,3-.68a1.44,1.44,0,0,1,.87,0,3.07,3.07,0,0,1,1.74,1.54,2.06,2.06,0,0,1,.13,1.63c-.33.87-.59,1.74-.87,2.61a1.19,1.19,0,0,0,.58,1.57l.16.06c.84.39,1.69.76,2.52,1.11a1,1,0,0,0,1.43-.27,1.06,1.06,0,0,0,.11-.21l1.65-2.73a1.66,1.66,0,0,1,1-.74,4.2,4.2,0,0,1,2.17,0,1.44,1.44,0,0,1,.91.74l1.59,2.65a1.06,1.06,0,0,0,1.39.54c.91-.33,1.81-.69,2.69-1.07a1.21,1.21,0,0,0,.71-1.55h0l-.77-3.22a1.45,1.45,0,0,1,.13-1,3.64,3.64,0,0,1,1.68-1.54,1.49,1.49,0,0,1,1.1,0l3,.87a1.1,1.1,0,0,0,1.38-.6c.43-1,.87-2,1.26-3a.87.87,0,0,0-.35-1.15l-.08,0-2.84-1.72a1.5,1.5,0,0,1-.74-1,4.26,4.26,0,0,1-.08-1.74,1.91,1.91,0,0,1,1-1.43c.87-.46,1.74-1,2.61-1.41a1,1,0,0,0,.54-1.27c-.36-1-.74-2-1.14-3a.93.93,0,0,0-1.16-.61h0c-1.13.22-2.26.37-3.34.66a1.69,1.69,0,0,1-2-.69l-.44-.55a1.86,1.86,0,0,1-.3-1.67l.87-3.09a.73.73,0,0,0-.33-.9c-.94-.45-1.9-.94-2.86-1.38a.87.87,0,0,0-1.21.19,1.74,1.74,0,0,0-.1.19c-.44.75-.91,1.47-1.31,2.23a2.9,2.9,0,0,1-3.32,1.54A1.52,1.52,0,0,1,429.91,423.81Zm8.15,12.8a6.36,6.36,0,1,1-6.35-6.39,6.36,6.36,0,0,1,6.35,6.39Z" transform="translate(-357.15 -360.64)"/><path class="cls-2" d="M480.84,488.28H389.58l24.22-37.74A22.75,22.75,0,0,1,437,414.43l1.46-2.27a11.36,11.36,0,0,0-19.11-12.27L360,492.43a12.81,12.81,0,0,0,5.74,17.2h0a12.59,12.59,0,0,0,5.1,1.34h110a11.35,11.35,0,1,0,0-22.69Z" transform="translate(-357.15 -360.64)"/><path class="cls-2" d="M499.8,364.42a13.19,13.19,0,0,0-1.58-.83,11.31,11.31,0,0,0-5.54-1.45h-110a11.35,11.35,0,0,0,0,22.7h90.5l-23.9,37.24a22.75,22.75,0,0,1-23.41,36.46l-1.18,1.84a11.36,11.36,0,0,0,19.1,12.27l59.4-92.54A11.36,11.36,0,0,0,499.8,364.42Z" transform="translate(-357.15 -360.64)"/></svg>