<svg id="Capa_1" data-name="Capa 1" xmlns="http://www.w3.org/2000/svg" viewBox="0 0 354.65 177.52"><defs><style>.cls-1{fill:#dadada;}.cls-2{fill:#fff;}.cls-2,.cls-3{stroke:#1e1e1c;stroke-width:4px;}.cls-2,.cls-3,.cls-4{stroke-miterlimit:10;}.cls-3{fill:#ffde4a;}.cls-4{font-size:52.34px;fill:#1e1e1c;stroke:#1d1d1b;stroke-width:2px;font-family: 'Poppins', sans-serif;}.cls-5{letter-spacing:-0.01em;}</style></defs><path class="cls-1" d="M178.94,336c9.43-7.76,38.64-31.81,74.26-32.88,43.75-1.31,47.59,33.52,98.08,43.09,54.89,10.4,85.06-24.18,107.15-4.54C476,357.27,471.18,392,467.5,418.16c-3.23,23-5.45,38.87-17.95,50.08-23.88,21.42-66.75,9.32-82.39,4.91-51.67-14.58-65.7-45.63-93.73-37-10.64,3.26-18.07,13-39.5,17.76-5.49,1.23-10.65,1.76-21,2.84-20.49,2.13-30.74,3.2-40.25,1.7-8.54-1.35-27.66-4.36-36.85-18.14-14.06-21.09,4-54,10.77-66.33C149.17,369.29,158.83,352.5,178.94,336Z" transform="translate(-122.47 -303.03)"/><path class="cls-2" d="M321.92,452H271.76l26.88-41.87a6.25,6.25,0,0,0-10.51-6.75l-32.64,50.91a7,7,0,0,0,3.16,9.46h0a7,7,0,0,0,2.8.74H322a6.25,6.25,0,0,0,6.24-6.25h0A6.25,6.25,0,0,0,322,452Z" transform="translate(-122.47 -303.03)"/><path class="cls-3" d="M335.4,380.82a6,6,0,0,0-.87-.46,6.26,6.26,0,0,0-3-.8H271a6.25,6.25,0,1,0,0,12.49h49.78l-26.67,41.56a6.25,6.25,0,0,0,10.5,6.75l32.68-50.91A6.25,6.25,0,0,0,335.4,380.82Z" transform="translate(-122.47 -303.03)"/><text class="cls-4" transform="translate(0.5 132.11)">Pl<tspan class="cls-5" x="49.1" y="0">a</tspan><tspan x="79.51" y="0">y</tspan></text><text class="cls-4" transform="translate(240.22 132.11)">Now</text></svg>