<svg id="Capa_1" data-name="Capa 1" xmlns="http://www.w3.org/2000/svg" viewBox="0 0 129.54 146.69"><defs><style>.cls-1{fill:#1d1d1b;}.cls-2{fill:#ffe068;}</style></defs><path class="cls-1" d="M58.68,145.8h0v0h0Z" transform="translate(-12.55 -8.11)"/><path class="cls-1" d="M142.09,61.87a69.44,69.44,0,0,0-1.21-9.63c-.2-1.38-.69-2.7-1-4.05a37.44,37.44,0,0,0-1.57-4.95c-.5-1.32-1-2.62-1.63-3.9-.76-1.66-1.62-3.25-2.52-4.82-.72-1.26-1.57-2.44-2.37-3.66a.75.75,0,0,0-.43-.62c-.11-.1-.31-.13-.28-.34a.88.88,0,0,0-.45-.67c-.32-.32-.74-.56-.82-1.05-.05-.31-.27-.43-.54-.51l-1.18-1.31a7.9,7.9,0,0,0-2-2.23c-.35-.32-.53-.83-1-1a1.44,1.44,0,0,1-.47-.45c0-.33-.34-.39-.58-.5a55,55,0,0,0-4.31-3.62,49.65,49.65,0,0,0-4.83-3.18,32.61,32.61,0,0,0-4.7-2.33V13c-.18-.1-.32-.25-.49-.35-.41-.06-.74-.47-1.19-.27h0a.88.88,0,0,0-.29-.18,4,4,0,0,0-1-.24h-.17a54.25,54.25,0,0,0-8.41-2.13c-2.23-.37-4.47-.69-6.73-.86-1.78-.14-3.55-.4-5.34-.38h0l-.09-.14a2.49,2.49,0,0,0-.85-.18c-1.14,0-2.28-.11-3.43-.12-2.81,0-5.61.05-8.42.2-2.17.11-4.33.38-6.48.62a3.2,3.2,0,0,0-1.18.29.38.38,0,0,0-.09.13h0l-.89.13c-.14.1-.38-.06-.48.11h-.28c-.26.07-.58,0-.72.34h0a.83.83,0,0,0-1,.21h0a.77.77,0,0,0-.52,0,.81.81,0,0,0-.29.19l-.2.11-.06,0a6.09,6.09,0,0,0-1.83.52,44.58,44.58,0,0,0-6.87,2.71c-1.13.54-2.26,1.12-3.34,1.77-.67.39-1.33.81-2,1.18-1,.55-1.93,1.22-2.87,1.86s-1.55,1.1-2.32,1.66a33.79,33.79,0,0,0-3.1,2.62,1.12,1.12,0,0,1-.54.49c-.62.71-1.31,1.36-1.91,2.1a38.13,38.13,0,0,0-3.33,4.47,39.19,39.19,0,0,0-2.9,5.84,66.14,66.14,0,0,0-2.48,7.09c-.3,1.11-.77,2.17-1,3.29-.31,1.45-.91,2.81-1.33,4.22a15.22,15.22,0,0,0-.93,2.94.38.38,0,0,0,0,.15.48.48,0,0,0-.17.23.73.73,0,0,0-.07.24c0,.13-.06.26,0,.38s0,.17-.09.24a13,13,0,0,0-.5,3.44v.1l-.1-.09a.76.76,0,0,0-.18.61v.29a6.32,6.32,0,0,0,0,1.23c.19.45-.06,1,.18,1.42a.54.54,0,0,0,0,.18A.61.61,0,0,0,24,62a3.13,3.13,0,0,1,.24.6.18.18,0,0,0,.05.15c.21.58.53,1.12.7,1.71a6.39,6.39,0,0,1,.58,1.34A5.9,5.9,0,0,1,24.44,72c-.56.68-1,1.4-1.58,2.09a32.76,32.76,0,0,0-1.95,2.76c-.49.76-1.07,1.47-1.53,2.26-.81,1.37-1.7,2.68-2.52,4.05-.94,1.56-2.13,2.95-3.21,4.41a5.36,5.36,0,0,0-1.1,3.2,4.51,4.51,0,0,0,1.17,3.19,9.92,9.92,0,0,0,4.38,2.84,24,24,0,0,1,3.2,1.07,1.82,1.82,0,0,1,.34.34h.06a.92.92,0,0,0,0,.57,1.39,1.39,0,0,1,0,.9.48.48,0,0,0,.07.37h0a.47.47,0,0,0-.06.15,3.55,3.55,0,0,1-.09.47,1.7,1.7,0,0,0-.06.31,1,1,0,0,1-.1.29.83.83,0,0,0-.11.46l0,.09-.36.51a.69.69,0,0,0-.29.8v.14a1.28,1.28,0,0,0-.11.2,4.18,4.18,0,0,0,0,1A4.78,4.78,0,0,0,22.88,108a1.45,1.45,0,0,1,.4.34.52.52,0,0,0,.11.1l.23.19.11.1c.36.29.11.45-.13.62a4,4,0,0,0-.29,4.56c.36.5.72,1,1.1,1.5A9.1,9.1,0,0,1,25.64,118a1.22,1.22,0,0,1,0,.8,16,16,0,0,0-.84,3.75,12.45,12.45,0,0,0,.34,6,10.27,10.27,0,0,0,7.55,6.78,41.39,41.39,0,0,0,8.67,1c2,.08,4,.07,6,.27a12.68,12.68,0,0,1,6.27,2.1,5.92,5.92,0,0,1,2.6,3.8,5.13,5.13,0,0,1,.34,1A4.51,4.51,0,0,1,57,145.3a5.92,5.92,0,0,1,.35,1.91c.17.49.34,1,.47,1.48a35.38,35.38,0,0,1,1.26,5.95h3c-.16-1.43-.23-2.89-.38-4.32H59.39a.65.65,0,0,1-.22-.36,28.1,28.1,0,0,1-.57-3.15,1.74,1.74,0,0,1,0-.39v-.59a7.16,7.16,0,0,1-.29-1.52.24.24,0,0,1-.1-.1A7.65,7.65,0,0,1,58,141a5.57,5.57,0,0,0-2.41-5.63,11.43,11.43,0,0,0-5.75-2c-1.82-.19-3.66-.17-5.49-.25a38,38,0,0,1-8-1,9.54,9.54,0,0,1-7-6.38,12.27,12.27,0,0,1-.31-5.65,15.7,15.7,0,0,1,.77-3.52,1.17,1.17,0,0,0,.05-.76,8.18,8.18,0,0,0-1.15-2.4c-.34-.46-.67-.94-1-1.41a3.86,3.86,0,0,1,.27-4.29c.22-.15.45-.3.12-.58l-.1-.1-.21-.17-.1-.1a1.89,1.89,0,0,0-.37-.32,4.48,4.48,0,0,1-2-3.35,3.62,3.62,0,0,1,0-.93l.1-.2v-.13a.65.65,0,0,1,.26-.75l.33-.48v-.08a.75.75,0,0,1,.1-.44.62.62,0,0,0,.09-.27.58.58,0,0,1,.05-.29,3.12,3.12,0,0,0,.09-.44.88.88,0,0,1,.05-.15h0a.41.41,0,0,1-.06-.34,1.37,1.37,0,0,0,0-.85.83.83,0,0,1,0-.54H26.3a1.39,1.39,0,0,0-.32-.32,20.24,20.24,0,0,0-2.93-1,9.09,9.09,0,0,1-4-2.68,4.28,4.28,0,0,1-1.07-3,5,5,0,0,1,1-3c1-1.38,2.08-2.69,2.94-4.16.75-1.28,1.57-2.52,2.31-3.81.42-.74,1-1.4,1.4-2.13.56-.89,1.15-1.76,1.78-2.59.5-.65.94-1.33,1.45-2a5.64,5.64,0,0,0,1-5.83,6.34,6.34,0,0,0-.53-1.26c-.16-.56-.44-1.06-.64-1.61a.25.25,0,0,0-.05-.15,2.63,2.63,0,0,0-.22-.55.63.63,0,0,1-.06-.38.49.49,0,0,1,0-.17c-.22-.42,0-.91-.16-1.34a5.53,5.53,0,0,1,0-1.15,1.31,1.31,0,0,1,0-.28.74.74,0,0,1,.16-.57l.09.08v-.09a12.72,12.72,0,0,1,.45-3.24c.05-.06,0-.17.09-.22a.56.56,0,0,1,0-.36.86.86,0,0,1,.06-.23.41.41,0,0,1,.16-.21.38.38,0,0,1,0-.15A15.76,15.76,0,0,1,30.07,52c.38-1.33.93-2.61,1.21-4,.22-1.06.65-2.05.93-3.09a62.5,62.5,0,0,1,2.27-6.68,36.94,36.94,0,0,1,2.61-5.46,35.77,35.77,0,0,1,3-4.21c.55-.69,1.18-1.31,1.75-2a1.08,1.08,0,0,0,.5-.47,29,29,0,0,1,2.84-2.46c.7-.53,1.4-1.07,2.12-1.56S49.07,20.82,50,20.3c.62-.35,1.22-.74,1.83-1.11,1-.6,2-1.15,3.07-1.66A39.45,39.45,0,0,1,61.18,15a5.77,5.77,0,0,1,1.69-.49h.05l.18-.1a.71.71,0,0,1,.27-.18.64.64,0,0,1,.47,0h0a.77.77,0,0,1,.93-.2h0c.13-.3.42-.25.66-.31a.53.53,0,0,1,.25,0h0c.09-.16.31,0,.43-.11l.82-.12h0a.57.57,0,0,1,.08-.13,2.87,2.87,0,0,1,1.08-.27c2-.23,4-.48,6-.58,2.57-.14,5.14-.23,7.72-.19,1,0,2.09.14,3.14.12a1.91,1.91,0,0,1,.78.16l.08.14h0c1.64,0,3.26.22,4.89.35,2.07.16,4.12.46,6.17.82a47.73,47.73,0,0,1,7.71,2h.16a3.7,3.7,0,0,1,.87.22.9.9,0,0,1,.26.17h0c.41-.18.72.19,1.08.25.17.1.29.24.46.33a.14.14,0,0,1,0,.09,29.09,29.09,0,0,1,4.31,2.19,45.32,45.32,0,0,1,4.43,3q2.09,1.61,4,3.41c.22.1.47.16.52.47a1.36,1.36,0,0,0,.43.43c.48.11.65.59,1,.88a7.8,7.8,0,0,1,1.81,2.11l1,1.26c.24.08.44.19.49.48.07.47.46.69.74,1a.8.8,0,0,1,.42.64c0,.19.16.22.25.31a.7.7,0,0,1,.4.59c.73,1.14,1.51,2.26,2.17,3.44.83,1.48,1.62,3,2.31,4.53.55,1.21,1,2.44,1.5,3.67A37.64,37.64,0,0,1,134.58,50c.29,1.27.74,2.51.92,3.8a65.74,65.74,0,0,1,1.11,9.06,16.24,16.24,0,0,0,.1,2.31,56.49,56.49,0,0,1-.34,6.5,26.21,26.21,0,0,1-.67,3.64,2.67,2.67,0,0,0-.08.48c-.06.12,0,.26-.08.37l-.3.81h0a.79.79,0,0,1,0,.64c-.41,1.11-.67,2.27-1.08,3.38a53.92,53.92,0,0,1-3,6.67c-1.09,2.06-2.23,4.07-3.48,6-.05.08-.08.16-.12.24s-.15.32-.23.47c-.68,1-1.19,2.07-1.8,3.11s-1.19,2.2-1.76,3.32c-.35.7-.65,1.42-1,2.14a62,62,0,0,0-2.44,6.72c-.52,1.85-1,3.7-1.42,5.57-.36,1.51-.5,3.06-.72,4.6a36.44,36.44,0,0,0-.45,6.6c.08,2,.3,4.08.51,6.11v.31c0,5.61.2,11.22.25,16.83l.06.26a5.23,5.23,0,0,1,0,.56,6.09,6.09,0,0,1,.07.85v1.43a10.78,10.78,0,0,1,.35,1.67h3.23c-.05-6.12-.27-12.24-.28-18.36v-.33c-.22-2.16-.47-4.32-.55-6.49a38.16,38.16,0,0,1,.49-7c.24-1.63.39-3.28.78-4.89.48-2,1-4,1.56-5.91a63.32,63.32,0,0,1,2.66-7.15c.32-.76.65-1.53,1-2.27.61-1.19,1.23-2.39,1.92-3.53a37.75,37.75,0,0,1,2-3.31c.09-.16.17-.33.25-.49a2.1,2.1,0,0,1,.13-.26c1.36-2.08,2.61-4.22,3.79-6.4a54.71,54.71,0,0,0,3.24-7.1c.45-1.18.73-2.41,1.18-3.59a.81.81,0,0,0,0-.68h0l.33-.86c.12-.11,0-.27.08-.39s0-.35.09-.51a26.83,26.83,0,0,0,.74-3.88,56.75,56.75,0,0,0,.36-6.9A17.82,17.82,0,0,1,142.09,61.87Z" transform="translate(-12.55 -8.11)"/><path class="cls-1" d="M122.63,21.9l-.12-.13C122.59,21.76,122.62,21.82,122.63,21.9Z" transform="translate(-12.55 -8.11)"/><path class="cls-1" d="M118.75,25.3l.11.11C118.85,25.36,118.83,25.29,118.75,25.3Z" transform="translate(-12.55 -8.11)"/><path class="cls-1" d="M55.76,137c.94.47,1.5,1.93,1.92,2.83A26.31,26.31,0,0,1,59,143.5a31,31,0,0,1,.91,3.53,16.8,16.8,0,0,0,.63,3.58c.3.73,1.51.41,1.21-.34a21.43,21.43,0,0,1-.68-3.81,36.94,36.94,0,0,0-1.09-4,25.51,25.51,0,0,0-1.46-3.69c-.5-1-1.11-2.32-2.16-2.84-.71-.36-1.35.71-.63,1.08Z" transform="translate(-12.55 -8.11)"/><path class="cls-1" d="M60.4,150.77c-.22,0-.13.38.05.11l-1.15-.14a5.69,5.69,0,0,1,.06.83h1.25c-.09-1.13-.16-2.26-.2-3.39a.63.63,0,0,0-1.25,0v1.45l1.23-.17a29.11,29.11,0,0,1-.48-3.48c-.06-.79-1.26-.82-1.25,0,0,1.51.09,3,.23,4.53a.63.63,0,0,0,.7.55.64.64,0,0,0,.55-.55c0-1,0-2.1,0-3.16H58.89l.27,4.17,1.23-.16a3.2,3.2,0,0,1-.27-1.43H58.87a12.87,12.87,0,0,0,.18,1.86c.09.62,1.27.53,1.23-.17a7.24,7.24,0,0,0-.36-2.16,9.77,9.77,0,0,1-.76-1.94c-.13-.69-1.26-.53-1.23.17a19.2,19.2,0,0,0,.72,4.52.62.62,0,0,0,.79.41.63.63,0,0,0,.44-.57,32.84,32.84,0,0,0-.05-4.09.65.65,0,0,0-.71-.55.64.64,0,0,0-.54.55,15,15,0,0,0,0,3l1.23-.17c-.74-1.79-.46-3.72-.59-5.61a10.44,10.44,0,0,0-.55-2.71,5.67,5.67,0,0,1-.6-2.8l-1.14.15a22,22,0,0,1,1.18,2.73l1-.61c-.33-.38-.65-.77-.94-1.18s-1.21-.36-1.17.31c.06.94.17,1.88.32,2.81.11.72,1.21.51,1.23-.17s0-1.44,0-2.16l-1.22.17c.18,1.33.32,2.67.41,4a.63.63,0,0,0,.7.55.64.64,0,0,0,.55-.55V143.5H57.69v1.44l1.23-.16c-.17-1-.78-2-.43-3H57.28a10.56,10.56,0,0,1,.68,3.09.63.63,0,0,0,.7.55.64.64,0,0,0,.55-.55,14.57,14.57,0,0,0-.15-2.64c-.1-.72-1.21-.52-1.22.16a16.71,16.71,0,0,0,.23,3c.12.71,1.23.52,1.23-.17V142.5a.65.65,0,0,0-.71-.55.64.64,0,0,0-.54.55,10.42,10.42,0,0,0,.34,2.36,11.72,11.72,0,0,1,.1,2.71h1.25l-.15-4.46a.65.65,0,0,0-.71-.55.64.64,0,0,0-.54.55,3.87,3.87,0,0,0,.37,1.71,7.76,7.76,0,0,1,.22,1.86,38.42,38.42,0,0,0,.4,4c.09.65,1,.55,1.2,0,.45-1.53-.52-3-.21-4.48L59.09,146c.17,1.89.39,3.78.66,5.65.1.71,1.22.51,1.23-.17v-1.15a.65.65,0,0,0-.71-.55.64.64,0,0,0-.54.55v.16a.63.63,0,0,0,.7.55.64.64,0,0,0,.55-.55v-.16H59.73v1.24l1.22-.16c-.25-1.77-.45-3.54-.61-5.32-.06-.65-1.08-.91-1.23-.16a5.57,5.57,0,0,0,.07,2.19,4.69,4.69,0,0,1,.15,2.29h1.2c-.19-1.3-.3-2.61-.36-3.92a10.39,10.39,0,0,0-.17-1.67,4.71,4.71,0,0,1-.41-1.69H58.34l.15,4.46a.63.63,0,0,0,.7.55.64.64,0,0,0,.55-.55,13,13,0,0,0-.07-2.57,13.24,13.24,0,0,1-.37-2.5H58.09v2.72l1.23-.16a14.1,14.1,0,0,1-.19-2.68l-1.23.17a13.75,13.75,0,0,1,.1,2.31h1.25a11.86,11.86,0,0,0-.72-3.43.66.66,0,0,0-.82-.4.64.64,0,0,0-.39.4c-.43,1.27.23,2.41.43,3.65.12.7,1.23.52,1.23-.17v-1.44a.65.65,0,0,0-.71-.55.64.64,0,0,0-.54.55v2.22H59c-.1-1.46-.26-2.91-.46-4.35-.09-.7-1.27-.54-1.23.16s.06,1.44.05,2.16l1.23-.16c-.14-.82-.22-1.65-.28-2.48l-1.16.32q.54.75,1.14,1.44a.63.63,0,0,0,.88-.12.66.66,0,0,0,.12-.49,22.15,22.15,0,0,0-1.31-3,.63.63,0,0,0-.87-.21.65.65,0,0,0-.27.36c-.33,2,1,3.84,1.11,5.84s-.15,4,.64,5.94c.24.59,1.31.61,1.22-.16a15,15,0,0,1,0-3H58.54a32.84,32.84,0,0,1,.05,4.09l1.22-.17a18.59,18.59,0,0,1-.67-4.19l-1.23.17a6.8,6.8,0,0,0,.65,1.69,5.68,5.68,0,0,1,.43,2.07l1.23-.17a11,11,0,0,1-.14-1.52.65.65,0,0,0-.71-.55.64.64,0,0,0-.54.55,4.1,4.1,0,0,0,.31,1.76c.25.59,1.28.6,1.23-.17l-.27-4.17c-.06-.79-1.27-.81-1.25,0v3.16h1.24c-.14-1.51-.22-3-.23-4.53H58.61a32.6,32.6,0,0,0,.52,3.81c.15.73,1.19.51,1.23-.16v-1.45H59.11c0,1.13.11,2.26.2,3.39a.63.63,0,0,0,.7.55.64.64,0,0,0,.55-.55,9.24,9.24,0,0,0-.1-1.17c-.09-.57-.88-.55-1.14-.15a1.15,1.15,0,0,0,0,1.46,1.37,1.37,0,0,0,1.41.27c.78-.19.45-1.4-.33-1.21Z" transform="translate(-12.55 -8.11)"/><path class="cls-1" d="M17,94.84c1.41.55,2.83,1.06,4.26,1.55,1.06.36,2.74.57,3.06,1.84s-.48,2.53-.83,3.67a9.76,9.76,0,0,0-.46,4.29c.11.89,3,.25,2.89-.78a9.61,9.61,0,0,1,.62-4.41c.42-1.21,1.12-2.59.57-3.88s-2-1.57-3.21-2c-1.54-.52-3.06-1.08-4.58-1.66a2.51,2.51,0,0,0-2.05.29c-.34.2-.92.81-.27,1.06Z" transform="translate(-12.55 -8.11)"/><path class="cls-1" d="M56.73,142.46c1.88,3.58,2.55,7.65,3.05,11.62.1.72,1.21.8,1.74.66a1.37,1.37,0,0,0,1.16-1.44,35.2,35.2,0,0,0-3.31-12.15c-.33-.64-1.45-.51-2-.25a1.13,1.13,0,0,0-.71,1.43.69.69,0,0,0,.05.13Z" transform="translate(-12.55 -8.11)"/><path class="cls-2" d="M67.14,31.66l1.7-1a.5.5,0,0,0,.3-.64.36.36,0,0,0,0-.09c-.21-.51-.41-1-.62-1.54a.61.61,0,0,0-.75-.41l0,0-.61.15-1.31.32a1.91,1.91,0,0,1-1.54-1.3.31.31,0,0,1,0-.19l.53-2a.52.52,0,0,0-.26-.69l-.08,0-1.51-.63a.51.51,0,0,0-.7.12.38.38,0,0,0-.06.13c-.34.58-.69,1.15-1,1.73a.46.46,0,0,1-.29.24,2.91,2.91,0,0,1-1.13.14,1,1,0,0,1-.87-.56c-.27-.54-.58-1.06-.88-1.58a.52.52,0,0,0-.67-.31l-.08,0-1.51.57a.65.65,0,0,0-.51.78.5.5,0,0,0,0,.13l.39,1.69a.79.79,0,0,1,0,.48,1.66,1.66,0,0,1-.85,1,1.08,1.08,0,0,1-.91.07c-.49-.18-1-.33-1.49-.48a.69.69,0,0,0-.9.34l0,.08-.63,1.43a.59.59,0,0,0,.21.81l.07,0,1.54.94a.89.89,0,0,1,.42.55,2.33,2.33,0,0,1,0,1.23.82.82,0,0,1-.42.51l-1.58.92a.59.59,0,0,0-.3.78c.19.51.39,1,.61,1.52a.67.67,0,0,0,.85.41h0l1.83-.43a.81.81,0,0,1,.59.08,2.16,2.16,0,0,1,.84,1,.94.94,0,0,1,0,.62c-.17.57-.34,1.13-.5,1.7a.62.62,0,0,0,.34.78c.56.25,1.12.49,1.69.72a.49.49,0,0,0,.65-.2s0,0,0-.05l1-1.61a.89.89,0,0,1,.55-.42,2.41,2.41,0,0,1,1,0,1.05,1.05,0,0,1,.79.58l.81,1.48a.57.57,0,0,0,.71.3c.58-.2,1.15-.42,1.71-.65a.53.53,0,0,0,.34-.67h0c-.12-.63-.21-1.27-.38-1.88a1,1,0,0,1,.4-1.14,2.34,2.34,0,0,1,.31-.24,1,1,0,0,1,1-.17l1.76.47a.39.39,0,0,0,.51-.17c.27-.54.54-1.08.79-1.62a.48.48,0,0,0-.1-.67l-.12-.07c-.41-.26-.83-.52-1.26-.75a1.63,1.63,0,0,1-.83-1.88A.88.88,0,0,1,67.14,31.66ZM59.9,36.27a3.6,3.6,0,1,1,3.61-3.59,3.6,3.6,0,0,1-3.61,3.59Z" transform="translate(-12.55 -8.11)"/><path class="cls-1" d="M81.31,44.57c-.06-.49-.12-1-.2-1.48s-.17-.51-.61-.49-1,.07-1.46.07a1.33,1.33,0,0,1-1.3-1.36,1.17,1.17,0,0,1,.12-.52c.22-.44.45-.89.66-1.35a.48.48,0,0,0-.1-.66l-.09-.05L77.19,38a.52.52,0,0,0-.74,0l-.06.08c-.31.33-.61.66-.9,1a1.41,1.41,0,0,1-1.64.34.81.81,0,0,1-.49-.53c-.17-.53-.36-1.06-.55-1.59a.48.48,0,0,0-.58-.36h0l-1.4.29c-.36.08-.44.19-.43.57,0,.56.07,1.12.1,1.68a.48.48,0,0,1-.06.33,2.16,2.16,0,0,1-1,.77.76.76,0,0,1-.69,0c-.48-.26-1-.49-1.45-.73a.46.46,0,0,0-.64.14v0l-.81,1.15a.57.57,0,0,0,0,.82.39.39,0,0,0,.1.08c.37.36.74.71,1.12,1.05a1,1,0,0,1,.25,1.15,1,1,0,0,1-.74.81c-.44.12-.87.26-1.31.39a.59.59,0,0,0-.5.67.24.24,0,0,0,0,.08c.07.46.16.92.25,1.38a.47.47,0,0,0,.5.46h.07L67.18,48a1.3,1.3,0,0,1,1.17,1.42,1.4,1.4,0,0,1-.06.28c-.21.45-.43.9-.65,1.36a.56.56,0,0,0,.18.77h0c.36.25.72.5,1.09.74a.62.62,0,0,0,.88-.1h0a3.41,3.41,0,0,1,.74-.73c.15,0,.21-.18.29-.28a.89.89,0,0,1,1-.31,1.41,1.41,0,0,1,1,.67c.2.44.31.92.48,1.37a.56.56,0,0,0,.68.42h0l1.46-.29a.46.46,0,0,0,.42-.49v0a8.4,8.4,0,0,0-.09-1.5,1,1,0,0,1,.53-1,1.06,1.06,0,0,1,1.22-.17l1.28.65a.53.53,0,0,0,.72-.16v0c.28-.39.55-.78.82-1.18s.2-.49-.08-.77L79,47.32a.61.61,0,0,1-.18-.24,1.45,1.45,0,0,1,.78-1.54l1.36-.47C81.09,44.94,81.34,44.86,81.31,44.57Zm-8.22,4.59A3.94,3.94,0,1,1,77,45.22v0a3.92,3.92,0,0,1-3.92,3.92Z" transform="translate(-12.55 -8.11)"/><path class="cls-1" d="M94.17,36.77c.51-.28,1-.58,1.51-.87a.44.44,0,0,0,.27-.56.36.36,0,0,0,0-.09c-.18-.46-.37-.91-.55-1.37a.51.51,0,0,0-.64-.36l-.07,0-.55.13L92.94,34a1.69,1.69,0,0,1-1.38-1.16.22.22,0,0,1,0-.16L92,30.82a.47.47,0,0,0-.26-.61l0,0-1.34-.57a.47.47,0,0,0-.64.13.31.31,0,0,0,0,.1l-.9,1.53a.41.41,0,0,1-.26.22,2.42,2.42,0,0,1-1,.12.9.9,0,0,1-.78-.5c-.23-.48-.51-.94-.78-1.4a.48.48,0,0,0-.61-.27l-.06,0L84,30.09c-.41.15-.52.37-.42.81s.23,1,.35,1.5a.79.79,0,0,1,0,.43,1.49,1.49,0,0,1-.75.88,1,1,0,0,1-.82.06q-.64-.23-1.32-.42a.6.6,0,0,0-.8.29l0,.08c-.18.43-.37.85-.56,1.27a.53.53,0,0,0,.18.73l.07,0,1.37.83a.85.85,0,0,1,.38.49,2.23,2.23,0,0,1,0,1.09.77.77,0,0,1-.37.46l-1.42.82a.53.53,0,0,0-.26.7q.24.68.54,1.35a.6.6,0,0,0,.76.37h0l1.62-.39a.75.75,0,0,1,.53.07,1.93,1.93,0,0,1,.75.85.75.75,0,0,1,0,.55c-.15.51-.3,1-.44,1.52a.53.53,0,0,0,.3.69c.49.23,1,.44,1.5.64a.42.42,0,0,0,.57-.16l0-.06c.29-.47.58-1,.86-1.43a.77.77,0,0,1,.49-.37,1.87,1.87,0,0,1,.88,0,.93.93,0,0,1,.71.52l.72,1.31a.49.49,0,0,0,.64.27c.51-.18,1-.37,1.52-.58a.45.45,0,0,0,.3-.57v0c-.11-.56-.18-1.13-.34-1.68a.88.88,0,0,1,.36-1l.28-.21a.9.9,0,0,1,.84-.15c.52.15,1,.29,1.57.42a.34.34,0,0,0,.45-.16c.24-.48.49-.95.71-1.44a.43.43,0,0,0-.09-.6.3.3,0,0,0-.11-.06c-.37-.23-.73-.46-1.12-.66a1.47,1.47,0,0,1-.74-1.68A.78.78,0,0,1,94.17,36.77Zm-6.46,4.1a3.21,3.21,0,1,1,3.22-3.2h0A3.21,3.21,0,0,1,87.71,40.87Z" transform="translate(-12.55 -8.11)"/><path class="cls-2" d="M118.6,40.5c.77-.42,1.52-.86,2.27-1.3a.65.65,0,0,0,.44-.8.72.72,0,0,0-.09-.2c-.27-.69-.55-1.38-.83-2.06a.8.8,0,0,0-1-.56l-.08,0-.82.21-1.74.42a2.56,2.56,0,0,1-2.08-1.74.53.53,0,0,1,0-.25c.23-.91.48-1.81.71-2.71a.69.69,0,0,0-.28-.93.67.67,0,0,0-.18-.07l-2-.85c-.51-.21-.76-.13-1,.34-.46.77-.92,1.53-1.37,2.31a.63.63,0,0,1-.38.32,3.93,3.93,0,0,1-1.52.19,1.37,1.37,0,0,1-1.17-.75c-.35-.73-.78-1.42-1.17-2.12a.71.71,0,0,0-.93-.38l-.07,0-2,.76c-.63.24-.79.55-.64,1.22s.35,1.5.52,2.26a1,1,0,0,1,0,.64,2.23,2.23,0,0,1-1.13,1.33,1.47,1.47,0,0,1-1.23.09c-.65-.24-1.32-.44-2-.64a.94.94,0,0,0-1.22.47l0,.1-.84,1.91a.78.78,0,0,0,.25,1.07l.12.06,2.06,1.26a1.18,1.18,0,0,1,.57.72,3.29,3.29,0,0,1,0,1.65,1.08,1.08,0,0,1-.56.69c-.71.4-1.41.82-2.12,1.23a.79.79,0,0,0-.4,1c.25.68.52,1.36.81,2a.91.91,0,0,0,1.16.55h0l2.44-.58a1,1,0,0,1,.79.11,2.79,2.79,0,0,1,1.12,1.28,1.16,1.16,0,0,1,0,.82c-.23.76-.45,1.52-.67,2.29a.83.83,0,0,0,.46,1l2.25,1a.66.66,0,0,0,.89-.28s0,0,0-.05c.43-.72.87-1.44,1.29-2.16a1.18,1.18,0,0,1,.73-.56,3.31,3.31,0,0,1,1.33-.06,1.44,1.44,0,0,1,1.07.78c.35.66.72,1.32,1.08,2a.77.77,0,0,0,.95.41c.77-.28,1.54-.57,2.29-.87a.71.71,0,0,0,.46-.89h0c-.17-.84-.28-1.7-.51-2.52a1.31,1.31,0,0,1,.53-1.54l.42-.31a1.41,1.41,0,0,1,1.27-.23l2.36.64A.54.54,0,0,0,120,48c.36-.72.72-1.44,1.06-2.17a.64.64,0,0,0-.29-1c-.56-.35-1.11-.7-1.69-1a2.21,2.21,0,0,1-1.12-2.52A1.24,1.24,0,0,1,118.6,40.5Zm-9.7,6.18a4.82,4.82,0,1,1,4.84-4.81A4.82,4.82,0,0,1,108.9,46.68Z" transform="translate(-12.55 -8.11)"/><path class="cls-2" d="M97.48,54.48l1.67-.95a.49.49,0,0,0,.3-.62.3.3,0,0,0,0-.1c-.2-.51-.41-1-.62-1.52a.58.58,0,0,0-.7-.41l-.08,0-.6.15-1.32.3a1.88,1.88,0,0,1-1.52-1.28.54.54,0,0,1,0-.18l.53-2a.51.51,0,0,0-.26-.67l-.08,0-1.48-.62a.5.5,0,0,0-.7.12.34.34,0,0,0-.06.12l-1,1.7a.47.47,0,0,1-.28.24,2.83,2.83,0,0,1-1.12.14,1,1,0,0,1-.86-.56c-.26-.53-.57-1-.86-1.55a.52.52,0,0,0-.68-.29l-.06,0-1.48.56c-.46.17-.58.41-.47.9l.39,1.66a.94.94,0,0,1,0,.47,1.65,1.65,0,0,1-.83,1,1.09,1.09,0,0,1-.9.06c-.48-.17-1-.32-1.46-.47a.69.69,0,0,0-.9.35s0,0,0,.07c-.21.46-.41.93-.62,1.4a.58.58,0,0,0,.2.79l.08,0,1.51.93a.93.93,0,0,1,.42.53,2.48,2.48,0,0,1,0,1.21.84.84,0,0,1-.41.51l-1.56.9a.59.59,0,0,0-.3.78c.19.5.39,1,.6,1.49a.68.68,0,0,0,.86.4l1.8-.43a.79.79,0,0,1,.58.08,2.08,2.08,0,0,1,.82.94.78.78,0,0,1,0,.6c-.17.56-.33,1.12-.49,1.68a.61.61,0,0,0,.33.77c.55.24,1.1.48,1.66.7a.47.47,0,0,0,.65-.2.08.08,0,0,1,0,0c.31-.53.64-1,1-1.59a.89.89,0,0,1,.54-.41,2.41,2.41,0,0,1,1,0,1,1,0,0,1,.79.57l.79,1.46a.57.57,0,0,0,.7.3l1.69-.64a.53.53,0,0,0,.33-.66c-.12-.62-.21-1.25-.38-1.86a1,1,0,0,1,.4-1.12l.3-.24a1,1,0,0,1,.94-.16l1.73.47a.39.39,0,0,0,.5-.18l.78-1.59a.47.47,0,0,0-.08-.66L99,57.83c-.41-.26-.82-.52-1.24-.74a1.62,1.62,0,0,1-.83-1.85A.9.9,0,0,1,97.48,54.48ZM90.35,59a3.55,3.55,0,1,1,3.56-3.54h0A3.55,3.55,0,0,1,90.35,59Z" transform="translate(-12.55 -8.11)"/><path class="cls-1" d="M121.56,66.1c-.08-.69-.16-1.38-.28-2.06s-.24-.7-.84-.68-1.35.09-2,.1a1.83,1.83,0,0,1-1.79-1.87,1.7,1.7,0,0,1,.17-.73c.3-.62.61-1.24.91-1.87a.64.64,0,0,0-.12-.91.6.6,0,0,0-.15-.09l-1.58-1.06a.72.72,0,0,0-1,0,.76.76,0,0,0-.08.11c-.43.45-.84.91-1.26,1.37a2,2,0,0,1-2.27.47,1.07,1.07,0,0,1-.67-.73c-.23-.74-.51-1.47-.77-2.21a.65.65,0,0,0-.78-.49h0c-.65.12-1.3.26-2,.4s-.61.26-.58.78l.12,2.33a.62.62,0,0,1-.07.46,3,3,0,0,1-1.33,1.07,1.06,1.06,0,0,1-1-.06c-.66-.35-1.34-.67-2-1a.65.65,0,0,0-.89.19v0c-.37.54-.75,1.06-1.12,1.6a.79.79,0,0,0-.06,1.12l.16.13c.51.49,1,1,1.55,1.44a1.49,1.49,0,0,1,.35,1.6,1.42,1.42,0,0,1-1,1.13c-.62.16-1.22.35-1.83.53a.82.82,0,0,0-.67,1,.11.11,0,0,0,0,0c.1.64.22,1.28.34,1.91a.66.66,0,0,0,.7.63h.1l2.2-.09a1.8,1.8,0,0,1,1.62,2,1.77,1.77,0,0,1-.08.4l-.9,1.87a.78.78,0,0,0,.23,1.08l0,0c.5.34,1,.68,1.51,1a.87.87,0,0,0,1.22-.13h0c.35-.35.59-.79,1-1,.2,0,.28-.23.4-.37a1.2,1.2,0,0,1,1.31-.44,2,2,0,0,1,1.34.93c.28.61.43,1.27.66,1.9a.79.79,0,0,0,1,.59h0l2-.4a.64.64,0,0,0,.58-.71v0a17.83,17.83,0,0,0-.13-2.07,1.4,1.4,0,0,1,.74-1.4,1.49,1.49,0,0,1,1.69-.24c.58.31,1.18.61,1.77.9a.72.72,0,0,0,1-.23v0c.38-.54.76-1.08,1.13-1.63a.69.69,0,0,0,0-1l-.11-.09L118.3,69.8a.86.86,0,0,1-.26-.34,2,2,0,0,1,1-2.1l1.88-.64C121.29,66.61,121.61,66.49,121.56,66.1Zm-11.47,6.36A5.46,5.46,0,1,1,115.55,67,5.45,5.45,0,0,1,110.09,72.46Z" transform="translate(-12.55 -8.11)"/><path class="cls-1" d="M64.46,53c.65-.36,1.3-.73,1.94-1.11a.57.57,0,0,0,.36-.71L66.7,51c-.23-.59-.47-1.18-.71-1.76a.68.68,0,0,0-.84-.47l-.07,0-.71.17-1.49.36a2.17,2.17,0,0,1-1.77-1.48.41.41,0,0,1,0-.22c.2-.77.41-1.54.61-2.31a.59.59,0,0,0-.29-.78l-.1,0L59.6,43.8a.58.58,0,0,0-.81.15.61.61,0,0,0-.07.14c-.38.66-.78,1.31-1.16,2a.54.54,0,0,1-.33.28,3.35,3.35,0,0,1-1.29.16,1.12,1.12,0,0,1-1-.64c-.31-.62-.67-1.21-1-1.81a.59.59,0,0,0-.76-.35l-.1.05-1.72.65a.72.72,0,0,0-.54,1c.13.53.29,1.29.44,1.93a1,1,0,0,1,0,.55,2,2,0,0,1-1,1.14,1.33,1.33,0,0,1-1,.08c-.56-.21-1.13-.38-1.7-.55a.76.76,0,0,0-1,.38.42.42,0,0,0,0,.1c-.25.54-.49,1.09-.72,1.63a.66.66,0,0,0,.18.93l.13.07,1.77,1.07a1.08,1.08,0,0,1,.48.63,2.77,2.77,0,0,1,0,1.4.92.92,0,0,1-.48.59l-1.72,1a.69.69,0,0,0-.35.9c.22.59.45,1.17.7,1.74a.78.78,0,0,0,1,.46l2.09-.5a.93.93,0,0,1,.67.09,2.4,2.4,0,0,1,1,1.09,1.08,1.08,0,0,1,0,.71q-.3,1-.57,2a.7.7,0,0,0,.39.89c.64.29,1.28.56,1.93.82a.55.55,0,0,0,.74-.23l0,0c.37-.61.75-1.23,1.11-1.84a1,1,0,0,1,.62-.48,2.74,2.74,0,0,1,1.14-.05,1.24,1.24,0,0,1,.91.66c.3.57.62,1.13.92,1.69a.64.64,0,0,0,.82.35c.65-.23,1.31-.48,1.95-.74a.6.6,0,0,0,.39-.75h0c-.14-.73-.24-1.46-.43-2.16a1.1,1.1,0,0,1,.45-1.31l.36-.27a1.19,1.19,0,0,1,1.08-.2l2,.55a.46.46,0,0,0,.58-.21c.31-.61.62-1.23.91-1.85a.56.56,0,0,0-.13-.78l-.12-.07c-.48-.29-1-.59-1.44-.85a1.88,1.88,0,0,1-1-2.15A1,1,0,0,1,64.46,53Zm-8.29,5.28a4.12,4.12,0,1,1,4.14-4.11A4.11,4.11,0,0,1,56.17,58.26Z" transform="translate(-12.55 -8.11)"/></svg>