<svg id="Capa_1" data-name="Capa 1" xmlns="http://www.w3.org/2000/svg" viewBox="0 0 507.88 269.46"><defs><style>.cls-1{fill:#dadada;}.cls-2,.cls-7{fill:#ffe068;}.cls-3{fill:#3c3c3b;}.cls-4{fill:#040505;}.cls-5{fill:#1d1d1b;}.cls-6,.cls-8{fill:#1e1c19;}.cls-6{stroke:#ffe068;}.cls-11,.cls-6,.cls-7{stroke-miterlimit:10;}.cls-6,.cls-7{stroke-width:3px;}.cls-11,.cls-7{stroke:#1e1c19;}.cls-9{fill:#010202;}.cls-10{fill:#ffe169;}.cls-11{fill:none;stroke-width:2px;}</style></defs><path class="cls-1" d="M142.59,172.46c15.28-17.47,34-38.83,62.65-48.29,59.48-19.61,85.36,37.28,162.7,37.24,78.33,0,104.13-58.4,157.36-38.7,39.21,14.52,57.13,58,64.6,76.12,5.43,13.17,30.63,74.32,3.39,111.08-8.64,11.67-26.33,25.94-144.56,25.83-128.42-.12-128.41-17-199-8.5-71.91,8.63-109.21,30.59-134.36,7.65-19.77-18-17.95-51-17-68C101,220.07,128.73,188.31,142.59,172.46Z" transform="translate(-97.85 -85.28)"/><rect class="cls-2" x="288.66" y="84.64" width="103.75" height="184.82"/><rect class="cls-3" x="379.48" y="128.01" width="103.75" height="141.45"/><rect class="cls-3" x="197.36" y="172.23" width="103.75" height="97.23"/><path class="cls-4" d="M149.48,288.21c8,19.27,2.27,37.2-2,55.23-1,4.38-2.84,10,3.79,11.18,5.64,1,6.64-4.13,7.54-8.3,2.75-12.72,5.37-25.48,8.19-39,8.76,12,9.33,24.77,7.7,38-.51,4.14-.76,8.64,4.44,9.32,5.65.75,6.75-3.84,7.28-8.35,1.78-15.35.59-30.44-7.71-43.72-6.84-10.93-9-21.3-4.56-31.79a5.87,5.87,0,0,0-1.6-1.8,17.28,17.28,0,0,0-6.39-2.15,22.61,22.61,0,0,0-5.69-.19,24.5,24.5,0,0,1-3.09,1.51,32.76,32.76,0,0,0-6.61,2.3,28.37,28.37,0,0,0-6.19,6.28" transform="translate(-97.85 -85.28)"/><circle class="cls-5" cx="56.67" cy="168.1" r="11.62"/><path class="cls-4" d="M162.78,267.94l-2.12-.78-1.38,1.43a3.34,3.34,0,0,0,1.75-.74c.25-.23.46-.57.1-.82a2,2,0,0,0-1.43-.06,62.15,62.15,0,0,0-6.15,2,9.94,9.94,0,0,0-3,1.41A5.64,5.64,0,0,0,149,272.7c-.25.59,1,.59,1.23.56a2.09,2.09,0,0,0,1.66-1,3.09,3.09,0,0,1,1.09-1.61,15.68,15.68,0,0,1,2.22-.86c1.58-.58,3.17-1.13,4.8-1.55l-1.34-.87-.1.09.59-.34.5-.12a2.48,2.48,0,0,0-1.46.65c-.22.25-.32.63.09.78l2.12.78a2.51,2.51,0,0,0,2.05-.29c.34-.2.93-.82.27-1.06Z" transform="translate(-97.85 -85.28)"/><path d="M164.87,282.51a30.62,30.62,0,0,0,13.65-10.58c4.7-6.55,5.77-14.94,4.17-22.7a31.52,31.52,0,0,0-2.19-6.55c-1.08-2.39-4.73-3.16-6.84-1.8a5.09,5.09,0,0,0-1.79,6.84c.43,1-.57-1.47-.14-.32.15.4.3.8.44,1.21a30.68,30.68,0,0,1,1,3.88,3.73,3.73,0,0,0,.11.64c.08.54.07.43,0-.34.16.13.12,1.17.13,1.39q.09,1.31.06,2.61c0,.53-.07,1-.1,1.57s-.06.54,0-.12a4.54,4.54,0,0,1-.14.82,24.29,24.29,0,0,1-.82,3.15c-.06.19-.65,1.63-.25.72-.26.59-.54,1.16-.85,1.71a25.37,25.37,0,0,1-1.65,2.56c-.22.29-.15.21.19-.25l-.48.57c-.32.37-.64.72-1,1.07-.6.61-1.24,1.16-1.89,1.72-.95.82.69-.47-.1.08l-1,.67a19.06,19.06,0,0,1-1.68,1l-1.44.74-.64.29c-.7.32,1.41-.58.55-.23-2.42,1-4.39,3.37-3.49,6.15.75,2.33,3.55,4.54,6.15,3.49Z" transform="translate(-97.85 -85.28)"/><path d="M145.52,275.16c-3.21,4.55-5.93,9.68-6.93,15.21-1.07,6-.59,11.87.09,17.84.29,2.59,2.09,5.13,5,5,2.46-.11,5.31-2.22,5-5s-.6-5.36-.72-8c-.06-1.34-.07-2.68,0-4,0-.63.07-1.25.13-1.88,0-.09.11-1,0-.5s.13-.76.13-.73a25.43,25.43,0,0,1,.88-3.54c.21-.62.45-1.23.68-1.85s-.33.66,0,0c.13-.26.24-.54.37-.8a45.41,45.41,0,0,1,4-6.61c1.51-2.14.45-5.65-1.8-6.84a5.13,5.13,0,0,0-6.84,1.79Z" transform="translate(-97.85 -85.28)"/><path class="cls-6" d="M218.61,110.12c1.63-2.07,3.24-4.18,4.8-6.31a2,2,0,0,0,.19-2.8,1.42,1.42,0,0,0-.36-.33c-1.56-1.6-3.17-3.2-4.75-4.76a2.4,2.4,0,0,0-3.38-.39h0l-.21.18-2.08,1.54-4.37,3.24a7.73,7.73,0,0,1-7.83-2.39,1.9,1.9,0,0,1-.3-.72c-.42-2.79-.8-5.59-1.21-8.39a2.09,2.09,0,0,0-2-2.16,2.54,2.54,0,0,0-.39,0h-6.66a2.06,2.06,0,0,0-2.44,1.59,1.82,1.82,0,0,0,0,.57c-.33,2.68-.74,5.36-1,8.14a1.79,1.79,0,0,1-.69,1.37,11.79,11.79,0,0,1-4,2.31,4,4,0,0,1-4.15-.71c-1.87-1.59-3.86-3-5.77-4.52a2.09,2.09,0,0,0-2.95-.15l-.05,0a1.94,1.94,0,0,0-.26.31l-4.72,4.5c-1.46,1.39-1.54,2.46-.38,4s2.73,3.81,4.11,5.69a3.34,3.34,0,0,1,.76,1.8,7.07,7.07,0,0,1-1.69,5.1,4.69,4.69,0,0,1-3.32,1.72c-2.12.09-4.22.32-6.31.56a2.73,2.73,0,0,0-2.87,2.6.31.31,0,0,0,0,.1,2.54,2.54,0,0,0,0,.39c-.07,2.11-.09,4.24-.1,6.32a2.39,2.39,0,0,0,1.87,2.8h.53l7.26,1a3.71,3.71,0,0,1,2.44,1.4,9.71,9.71,0,0,1,1.94,4.57,3.21,3.21,0,0,1-.75,2.59l-4.14,5.83a2.46,2.46,0,0,0,.1,3.42c1.54,1.62,3.09,3.2,4.7,4.72a2.75,2.75,0,0,0,3.9.11l6.13-4.52a3.29,3.29,0,0,1,2.32-.64,8.37,8.37,0,0,1,4.77,2.18,3.61,3.61,0,0,1,1,2.32c.27,2.45.54,4.84.83,7.16a2.49,2.49,0,0,0,2.51,2.36c2.49.07,5,.06,7.44,0a2,2,0,0,0,2.12-1.77v-.21c.36-2.5.74-5.06,1.07-7.55a3.57,3.57,0,0,1,1.36-2.42,9.82,9.82,0,0,1,3.66-1.74,4.34,4.34,0,0,1,3.89.89c1.76,1.45,3.59,2.84,5.34,4.25a2.32,2.32,0,0,0,3.16,0c1.81-1.65,3.62-3.38,5.35-5.12a2.13,2.13,0,0,0,.24-3h0c-1.47-2.19-2.81-4.44-4.39-6.46a3.91,3.91,0,0,1-.35-4.9l.8-1.38a4.2,4.2,0,0,1,3.25-2.15l7.3-1a1.62,1.62,0,0,0,1.6-1.48c.17-2.43.32-4.88.41-7.31a2,2,0,0,0-1.49-2.38,2.09,2.09,0,0,0-.5,0c-2-.28-3.92-.61-5.88-.78a6.66,6.66,0,0,1-6.24-5.64A3.57,3.57,0,0,1,218.61,110.12Zm-19.77,28.73a14.62,14.62,0,1,1,7.84-19.16,14.61,14.61,0,0,1-7.84,19.16Z" transform="translate(-97.85 -85.28)"/><path class="cls-7" d="M579.87,134.62c1.12-1.62,2.23-3.26,3.31-4.91a1.49,1.49,0,0,0,0-2.09,3.11,3.11,0,0,0-.28-.23c-1.24-1.13-2.5-2.25-3.74-3.34a1.8,1.8,0,0,0-2.54-.15l-.15.14L575,125.28l-3.12,2.59a5.77,5.77,0,0,1-5.93-1.44,1.16,1.16,0,0,1-.26-.52c-.42-2.06-.82-4.13-1.25-6.19a1.57,1.57,0,0,0-1.59-1.53h-.29l-5,.29a1.53,1.53,0,0,0-1.75,1.26,1.36,1.36,0,0,0,0,.45c-.13,2-.32,4-.41,6.1a1.35,1.35,0,0,1-.46,1,8.58,8.58,0,0,1-2.87,1.89,3,3,0,0,1-3.13-.35c-1.46-1.11-3-2.09-4.48-3.12a1.57,1.57,0,0,0-2.21,0h0a1.88,1.88,0,0,0-.18.24l-3.33,3.55a1.94,1.94,0,0,0-.11,3c.89,1.1,2.2,2.72,3.3,4.06a2.49,2.49,0,0,1,.64,1.31,5.25,5.25,0,0,1-1,3.87,3.49,3.49,0,0,1-2.39,1.42c-1.58.15-3.13.42-4.68.68a2,2,0,0,0-2,2,.28.28,0,0,0,0,.09,1.4,1.4,0,0,0,0,.29c0,1.57.11,3.16.19,4.71a1.77,1.77,0,0,0,1.51,2h.4l5.45.47a2.81,2.81,0,0,1,1.87.93,7.42,7.42,0,0,1,1.64,3.32,2.42,2.42,0,0,1-.45,2l-2.88,4.46a1.8,1.8,0,0,0,.22,2.54c1.22,1.15,2.44,2.25,3.7,3.31a2.06,2.06,0,0,0,2.91-.07l4.37-3.63a2.44,2.44,0,0,1,1.7-.57,6.29,6.29,0,0,1,3.65,1.41,2.75,2.75,0,0,1,.83,1.69c.3,1.81.61,3.58.92,5.29a1.87,1.87,0,0,0,2,1.66c1.86-.06,3.69-.17,5.54-.31a1.47,1.47,0,0,0,1.5-1.41V174c.16-1.88.34-3.79.48-5.66a2.6,2.6,0,0,1,.91-1.86A7.4,7.4,0,0,1,571.6,165a3.21,3.21,0,0,1,2.93.51c1.37,1,2.79,2,4.16,2.93a1.71,1.71,0,0,0,2.35-.13c1.27-1.3,2.55-2.67,3.76-4a1.58,1.58,0,0,0,0-2.23v0h0c-1.19-1.57-2.28-3.19-3.55-4.62a2.92,2.92,0,0,1-.38-3.62l.54-1.06a3.15,3.15,0,0,1,2.33-1.74l5.39-1a1.22,1.22,0,0,0,1.14-1.2v-5.45a1.5,1.5,0,0,0-1.21-1.71h-.37c-1.48-.13-3-.29-4.41-.34a5,5,0,0,1-4.89-3.93A2.62,2.62,0,0,1,579.87,134.62ZM566.38,156.8a10.89,10.89,0,1,1,5-14.59,10.9,10.9,0,0,1-5,14.59Z" transform="translate(-97.85 -85.28)"/><path class="cls-8" d="M416.06,158.25a3,3,0,0,1-.81-1.77,7.3,7.3,0,0,1-.5-2.06c-.05-.21-.07-.43-.14-.64-.07-.61-.26-1.2-.34-1.81,0-.33,0-.73-.51-.71-.69-.07-1.35-.29-2-.35-.84-.23-1.71-.3-2.56-.51a2.44,2.44,0,0,1-2.12-1.13,1.88,1.88,0,0,1,0-1.94c.63-.71,1.34-1.36,2-2l.39-.39,1.85-1.85c.13-.12.25-.25.38-.39l1.85-1.85c.13-.12.26-.24.39-.38l1.86-1.86c.13-.13.26-.27.39-.39s.36-.52.64-.42.2.51.29.78c.12.75.19,1.5.33,2.25a5.31,5.31,0,0,0,3,4.1,3.48,3.48,0,0,0,.83.32,4.53,4.53,0,0,0,.66.13,8.06,8.06,0,0,0,2.85-.21l.18,0c.77,0,1.5-.27,2.26-.34s1.38-.37,2.11-.2c.36.13.56.46.84.7.61.65.61.65,0,1.29l-.63.64c-.86.84-1.72,1.7-2.57,2.56l-1.9,1.9-2.56,2.56L420,156.65c-.47.46-.95.93-1.4,1.41a1.51,1.51,0,0,1-1,.52h-.89C416.52,158.44,416.18,158.56,416.06,158.25Z" transform="translate(-97.85 -85.28)"/><path class="cls-8" d="M460,158.49h-.9l-.67-.4c-.27,0-.39-.2-.55-.35l-1.85-1.84c-.38-.42-.82-.83-1.24-1.24-1.06-1.08-2.14-2.15-3.22-3.22l-1.79-1.79q-1.38-1.4-2.79-2.79c-.14-.14-.28-.29-.42-.42-.61-.62-.61-.64,0-1.27.28-.24.48-.57.84-.7a7.31,7.31,0,0,1,2.08.19,21.25,21.25,0,0,0,2.26.35l.18,0a7.07,7.07,0,0,0,3.48.1,4.29,4.29,0,0,0,.85-.3,5.25,5.25,0,0,0,2.11-1.8,4.74,4.74,0,0,0,.86-2.07c.2-.82.27-1.67.39-2.5a.36.36,0,0,1,0-.11c.09-.23,0-.59.27-.68s.44.26.65.42.26.27.39.39l1.86,1.86c.12.13.24.26.38.39l1.85,1.85c.13.13.25.26.39.39.61.62,1.23,1.23,1.85,1.84l.39.39c.65.69,1.37,1.32,2,2a.85.85,0,0,1,.15.3,1.75,1.75,0,0,1-.12,1.62,2.45,2.45,0,0,1-2.12,1.14c-.83.23-1.71.27-2.54.5a14.38,14.38,0,0,0-2.43.51,1.32,1.32,0,0,0-.14.55c-.08.61-.26,1.2-.34,1.81-.19.89-.36,1.8-.51,2.71a3.86,3.86,0,0,1-.3,1.12A1.63,1.63,0,0,1,460,158.49Z" transform="translate(-97.85 -85.28)"/><path class="cls-8" d="M464.54,123.93c-.19-.35-.36-.71-.55-1.07a7.4,7.4,0,0,1-.6-1.11,11.05,11.05,0,0,1-1.06-2.35,3.28,3.28,0,0,1,.21-2.05c.29-.77.78-1.41,1.08-2.17,0-.1.09-.19.14-.29.35-.73.77-1.42,1.14-2.15a3.78,3.78,0,0,0,.44-2.14,3.64,3.64,0,0,0-1.19-2.22,19,19,0,0,0-2.56-1.37c-.58-.32-1.18-.59-1.79-.87a2.62,2.62,0,0,1-.49-.27,3.54,3.54,0,0,1-2.07-2,10.64,10.64,0,0,1-.39-2.23c-.17-.78-.25-1.55-.36-2.33a10.73,10.73,0,0,0-.42-1.93A3.16,3.16,0,0,0,455,95.87a3.6,3.6,0,0,0-2.19-.77c-.81.07-1.62.23-2.43.37-.54.11-1.1.11-1.64.26a13.61,13.61,0,0,1-2.47.25,2.72,2.72,0,0,1-2-1c-.1-.1-.19-.18-.28-.28l-2-2-.27-.28c-.36-.36-.7-.73-1.07-1.07a2.88,2.88,0,0,0-2.08-.85l-.77,0a4.81,4.81,0,0,0-1.39.71c-.48.43-.93.89-1.39,1.33l-.2.2a1.33,1.33,0,0,0-.57.39l-1.52,1.51-.28.27A2.78,2.78,0,0,1,430.58,96a12.21,12.21,0,0,1-2.56-.25c-.6-.16-1.24-.17-1.85-.3s-1.51-.25-2.27-.35a3.77,3.77,0,0,0-2.16.78,3.14,3.14,0,0,0-1.08,1.46,12.49,12.49,0,0,0-.45,2.17c-.16.72-.17,1.43-.35,2.13a7.24,7.24,0,0,1-.49,2.47,3.33,3.33,0,0,1-2.06,1.79l-.49.25c-.55.3-1.12.58-1.68.87a25.12,25.12,0,0,0-2.36,1.23,3.45,3.45,0,0,0-1.38,2.36,3.73,3.73,0,0,0,.45,2.14c.27.56.6,1.08.88,1.64.09.19.16.39.27.58.34.82.85,1.55,1.19,2.35a3,3,0,0,1,.21,2.12,12.16,12.16,0,0,1-1.06,2.32,11.88,11.88,0,0,1-.6,1.11c-.18.36-.35.73-.55,1.07a6.22,6.22,0,0,0-.81,2.24,3.46,3.46,0,0,0,.66,2.22c.2.29.46.53.68.81a5.21,5.21,0,0,0,1.2.61,1,1,0,0,1,.45.25,2.14,2.14,0,0,0,.84.48,15.26,15.26,0,0,1,2.06.93,4.75,4.75,0,0,1,1.86,1.33,2.36,2.36,0,0,1,.33.63,4.69,4.69,0,0,1,.33,1.57c.09.9.31,1.79.39,2.68.09.57.19,1.14.26,1.7a3.52,3.52,0,0,0,1.25,2.12,3.25,3.25,0,0,0,.42.31,3.79,3.79,0,0,0,2.33.43c.38,0,.77-.11,1.19-.16s1.13-.17,1.67-.33a1.62,1.62,0,0,1,.62-.07c.5-.1,1-.12,1.51-.26a3,3,0,0,1,1.27,0,3.54,3.54,0,0,1,.88.36c.52.19.82.65,1.24,1a9.38,9.38,0,0,1,1.23,1.29c.31.39.68.69,1,1a15.32,15.32,0,0,0,1.24,1.18,3.21,3.21,0,0,0,1.21.67,2.65,2.65,0,0,0,1.67,0,3.25,3.25,0,0,0,1.22-.67,14.94,14.94,0,0,0,1.23-1.16c.33-.35.7-.67,1-1a11.76,11.76,0,0,1,1.23-1.31,3.91,3.91,0,0,1,1.25-1,3.86,3.86,0,0,1,.87-.35,2,2,0,0,1,1.24.07,5.36,5.36,0,0,0,1.54.22,1.45,1.45,0,0,1,.62.07c.39.12.83.13,1.24.23a12.73,12.73,0,0,0,1.64.26,3.82,3.82,0,0,0,2.32-.44,2.53,2.53,0,0,0,.42-.31,3.59,3.59,0,0,0,1.24-2c.16-.78.15-1.55.37-2.29.05-.75.24-1.47.31-2.22a4.69,4.69,0,0,1,.33-1.57,2.71,2.71,0,0,1,.33-.63,4.66,4.66,0,0,1,1.84-1.32c.57-.32,1.18-.55,1.75-.87l.49-.25c.77-.39,1.57-.77,2.32-1.22a3.56,3.56,0,0,0,1.34-3A6,6,0,0,0,464.54,123.93Zm-6.23-3.73a23,23,0,0,1-.39,2.6,3.2,3.2,0,0,1-.15.61,12.36,12.36,0,0,1-.54,1.89,21.65,21.65,0,0,1-1.16,2.71c-.28.44-.52.9-.78,1.34s-.63.86-.89,1.33a15.09,15.09,0,0,1-1.73,1.93,19.76,19.76,0,0,1-2.59,2.33,5.59,5.59,0,0,1-1.38.8l-1.28.72a6.26,6.26,0,0,1-2.07,1.1c-.25.11-.52.17-.77.28a17.61,17.61,0,0,1-1.89.52l-.48.12c-.7.14-1.42.2-2.12.3a15,15,0,0,1-3.41,0c-.71-.07-1.41-.18-2.11-.31l-.39-.11a15.22,15.22,0,0,1-2-.53,17.63,17.63,0,0,1-2.89-1.25,13.63,13.63,0,0,1-1.29-.72c-.44-.29-.89-.58-1.32-.89a18.71,18.71,0,0,1-2.6-2.35,15.09,15.09,0,0,1-1.73-1.93c-.25-.47-.62-.87-.89-1.32s-.51-.91-.78-1.35a23.24,23.24,0,0,1-1.16-2.71,12,12,0,0,1-.54-1.89,3.29,3.29,0,0,1-.15-.6,23,23,0,0,1-.39-2.6c0-.82,0-1.63,0-2.45a16.45,16.45,0,0,1,.29-2.43c.14-.39.12-.81.27-1.19s.17-1.07.38-1.57c.45-.89.66-1.9,1.19-2.76a26.75,26.75,0,0,1,1.45-2.48,23.51,23.51,0,0,1,3.64-4c.34-.28.69-.52,1-.78a20.22,20.22,0,0,1,2.64-1.67,22.91,22.91,0,0,1,2.82-1.16,3.62,3.62,0,0,1,.55-.2c.62-.2,1.24-.34,1.87-.48.84-.22,1.73-.23,2.58-.41a20.36,20.36,0,0,1,2.47,0c.58.09,1.16.19,1.76.25a1.23,1.23,0,0,1,.87.33l1.82.46a.46.46,0,0,1,.51.16l2.83,1.18A12.21,12.21,0,0,1,451,103.3a6.75,6.75,0,0,1,1.52,1.45,16.21,16.21,0,0,1,2.23,2.59,7.6,7.6,0,0,0,.57.9,13.15,13.15,0,0,1,.9,1.6,14.8,14.8,0,0,1,1.16,2.79c.19.5.28,1,.43,1.55s.13.77.26,1.16a16.5,16.5,0,0,1,.3,2.42C458.34,118.57,458.35,119.39,458.31,120.2Z" transform="translate(-97.85 -85.28)"/><path class="cls-9" d="M447.9,116.31a2.65,2.65,0,0,1-.81,1.85c-.72.72-1.45,1.48-2.18,2.19a.84.84,0,0,0-.27.87c.21,1,.36,1.93.51,2.93a2.63,2.63,0,0,1-1,2.72,2.33,2.33,0,0,1-2.71.15c-.89-.48-1.79-1-2.67-1.45a.78.78,0,0,0-.88,0c-.88.5-1.78,1-2.67,1.45a2.31,2.31,0,0,1-2.71-.15,2.55,2.55,0,0,1-1-2.65c.15-.84.2-1.71.41-2.54a1.45,1.45,0,0,0-.48-1.67c-.65-.56-1.24-1.21-1.85-1.81a2.6,2.6,0,0,1-.69-2.81,2.4,2.4,0,0,1,2.18-1.68c.82-.1,1.62-.25,2.44-.34a1.5,1.5,0,0,0,1.43-1.09c.3-.78.73-1.55,1.09-2.31a2.44,2.44,0,0,1,2.25-1.56A2.51,2.51,0,0,1,440.7,110a22.85,22.85,0,0,1,1,2.25,1.58,1.58,0,0,0,1.55,1.12q1.26.15,2.52.36A2.55,2.55,0,0,1,447.9,116.31Z" transform="translate(-97.85 -85.28)"/><path class="cls-10" d="M443.09,125.35c-1.34-.73-2.57-1.38-3.79-2.06a1.7,1.7,0,0,0-1.84,0c-1,.56-1.93,1.07-2.93,1.59-.26.14-.51.39-.85.22.24-1.41.49-2.81.73-4.22a1.82,1.82,0,0,0-.56-1.67c-.94-1-1.83-2.09-2.74-3.12,1-.16,2.19-.39,3.39-.52a2.26,2.26,0,0,0,2.15-1.54c.48-1.19,1.09-2.33,1.73-3.65.64,1.32,1.26,2.46,1.74,3.65a2.24,2.24,0,0,0,2.07,1.52c1.23.12,2.44.35,3.44.5-.84,1-1.72,2-2.65,3.06a2,2,0,0,0-.59,1.9C442.68,122.43,442.85,123.82,443.09,125.35Z" transform="translate(-97.85 -85.28)"/><circle class="cls-11" cx="340.53" cy="33.47" r="16.22"/></svg>