<?xml version="1.0" encoding="UTF-8"?>
<svg id="Capa_1" data-name="Capa 1" xmlns="http://www.w3.org/2000/svg" viewBox="0 0 113.58 113.54">
  <defs>
    <style>
      .cls-1 {
        fill: #838383;
      }
    </style>
  </defs>
  <path class="cls-1" d="M112.27,15.18l-50.44,63.95c-2.01,2.54-5.59,2.89-8,.77h0c-2.41-2.12-2.74-5.89-.73-8.44L103.54,7.51c2.01-2.54,5.59-2.89,8-.77h0c2.41,2.12,2.74,5.89,.73,8.44Z"/>
  <path class="cls-1" d="M60.91,42.33L10.47,106.28c-2.01,2.54-5.59,2.89-8,.77h0c-2.41-2.12-2.74-5.89-.73-8.44L52.18,34.67c2.01-2.54,5.59-2.89,8-.77h0c2.41,2.12,2.74,5.89,.73,8.44Z"/>
  <rect class="cls-1" x="13.47" y="0" width="100.11" height="16.66" rx="8.33" ry="8.33"/>
  <rect class="cls-1" x="0" y="96.88" width="100.11" height="16.66" rx="8.33" ry="8.33"/>
</svg>