<?xml version="1.0" encoding="UTF-8"?>
<svg id="Capa_1" data-name="Capa 1" xmlns="http://www.w3.org/2000/svg" viewBox="0 0 331.06 347.96">
  <defs>
    <style>
      .cls-1 {
        fill: #c5c5c5;
      }
    </style>
  </defs>
  <path class="cls-1" d="M59.76,0C51.21,4.71,21.03,22.7,6.96,60.71-3.16,88.06,.12,112.1,2.27,122.83c0,0,40.68,180.72,215.34,223.49,7.95,1.46,40.11,6.42,72.15-13.19,26.86-16.44,37.89-40.49,41.3-48.92-3.64-8.92-10.9-23.01-25.07-35.27-30.22-26.13-67.56-22.89-75.22-22.06,0,0-22.16,24.01-35.78,29.33-15.37-6.88-46.11-23.17-71.2-57.04-19.35-26.13-27.27-51.84-30.76-67.37,6.54-5.18,14.5-12.53,22.11-22.54,10.07-13.24,15.7-26.08,18.9-35.36-.63-8.43-2.99-23.31-12.85-38.12C100.78,5.14,65.49,.64,59.76,0Z"/>
</svg>