<svg id="Capa_1" data-name="Capa 1" xmlns="http://www.w3.org/2000/svg" viewBox="0 0 148 148"><defs><style>.cls-1{fill:none;stroke:#1d1d1b;stroke-miterlimit:10;stroke-width:7px;}.cls-2{fill:#ffe068;}.cls-3{fill:#1d1d1b;}</style></defs><circle class="cls-1" cx="74" cy="74" r="70.5"/><path class="cls-2" d="M281.1,284.47c3.37-1.33,5.69,5.35,22.58,20,8,6.92,16.44,13.26,14.93,19A5.56,5.56,0,0,1,318,325c-1.17,2.12-3.62,3.63-10.55,9.7-5.07,4.43-8.94,8.15-12,11.21-10.84,11-11.86,11.82-13.17,11.46-4-1.08-2.57-13.3-3-39.87C278.9,294,277.5,285.89,281.1,284.47Z" transform="translate(-221.5 -248.5)"/><rect class="cls-3" x="237" y="318.51" width="86.17" height="8.03" rx="4.02" transform="translate(381.12 -206.06) rotate(90)"/><rect class="cls-3" x="268.01" y="298.95" width="63.29" height="8.03" rx="4.02" transform="translate(80.49 -371.65) rotate(45)"/><rect class="cls-3" x="268.68" y="338.04" width="62.05" height="8.03" rx="4.02" transform="translate(-375.59 63.61) rotate(-45)"/></svg>