<svg id="Capa_1" data-name="Capa 1" xmlns="http://www.w3.org/2000/svg" viewBox="0 0 233.72 221.27"><defs><style>.cls-1{fill:none;stroke-width:14px;}.cls-1,.cls-2{stroke:#1d1d1b;stroke-miterlimit:10;}.cls-2{fill:#ffe068;stroke-width:7px;}.cls-3{fill:#1d1d1b;}</style></defs><path class="cls-1" d="M303.58,514.46a100.66,100.66,0,0,1-86.1-173.87" transform="translate(-167.2 -303.69)"/><path class="cls-1" d="M266.38,316.64a100.66,100.66,0,0,1,84.67,174.57" transform="translate(-167.2 -303.69)"/><circle class="cls-2" cx="95.59" cy="12.98" r="9.48"/><circle class="cls-2" cx="144.87" cy="208.29" r="9.48"/><rect class="cls-3" x="216.15" y="324.44" width="13.85" height="63.02" rx="6.93" transform="translate(-202.57 -278.9) rotate(-5.89)"/><rect class="cls-3" x="190.27" y="308.32" width="13.85" height="63.02" rx="6.93" transform="translate(-220.4 338.93) rotate(-110.29)"/><rect class="cls-3" x="338.13" y="443.93" width="13.85" height="63.02" rx="6.93" transform="translate(569.89 609.25) rotate(174.11)"/><rect class="cls-3" x="364.01" y="460.05" width="13.85" height="63.02" rx="6.93" transform="translate(536.19 -330.49) rotate(69.71)"/></svg>