<svg xmlns="http://www.w3.org/2000/svg" version="1.1" xmlns:xlink="http://www.w3.org/1999/xlink" xmlns:svgjs="http://svgjs.com/svgjs" width="1440" height="560" preserveAspectRatio="none" viewBox="0 0 1440 560"><g mask="url(&quot;#SvgjsMask1096&quot;)" fill="none"><rect width="1440" height="560" x="0" y="0" fill="rgba(32, 32, 32, 1)"></rect><path d="M0,511.31C94.149,506.463,164.555,430.395,242.885,377.936C319.604,326.555,415.556,291.286,453.93,207.303C492.306,123.315,461.024,26.95,444.794,-63.952C429.09,-151.909,418.988,-244.835,361.057,-312.858C302.918,-381.125,217.316,-427.961,128.002,-435.934C44.648,-443.375,-24.38,-379.975,-104.054,-354.377C-181.075,-329.631,-279.652,-349.363,-332.387,-288.015C-385.125,-226.663,-367.122,-133.128,-363.724,-52.296C-360.838,16.355,-329.555,76.527,-314.249,143.513C-294.091,231.733,-318.291,335,-259.507,403.801C-197.427,476.459,-95.441,516.224,0,511.31" fill="#1a1a1a"></path><path d="M1440 1181.405C1563.844 1195.737 1712.025 1209.4389999999999 1801.73 1122.862 1892.551 1035.208 1836.6970000000001 879.191 1877.0520000000001 759.595 1911.525 657.431 2008.731 583.895 2019.784 476.64 2032.355 354.65700000000004 2035.473 204.541 1942.492 124.58800000000002 1847.757 43.12699999999995 1693.897 137.937 1576.42 95.39699999999999 1445.977 48.16199999999998 1371.188-166.63 1237.157-130.82000000000005 1104.555-95.39200000000005 1148.6680000000001 126.05099999999999 1062.333 232.75 980.7339999999999 333.595 796.82 338.238 757.573 461.882 718.995 583.419 808.392 709.598 876.817 817.197 938.765 914.611 1031.411 982.2470000000001 1128.35 1044.937 1225.547 1107.7939999999999 1325.016 1168.0990000000002 1440 1181.405" fill="#262626"></path></g><defs><mask id="SvgjsMask1096"><rect width="1440" height="560" fill="#ffffff"></rect></mask></defs></svg>