<svg id="visual" viewBox="0 0 200 200" width="200" height="200" xmlns="http://www.w3.org/2000/svg" xmlns:xlink="http://www.w3.org/1999/xlink" version="1.1"><rect x="0" y="0" width="200" height="200" fill="#555555"></rect><path d="M0 87L6.7 89.8C13.3 92.7 26.7 98.3 40 103.5C53.3 108.7 66.7 113.3 80 115.3C93.3 117.3 106.7 116.7 120 112.8C133.3 109 146.7 102 160 100.8C173.3 99.7 186.7 104.3 193.3 106.7L200 109L200 201L193.3 201C186.7 201 173.3 201 160 201C146.7 201 133.3 201 120 201C106.7 201 93.3 201 80 201C66.7 201 53.3 201 40 201C26.7 201 13.3 201 6.7 201L0 201Z" fill="#ffd900" stroke-linecap="round" stroke-linejoin="miter"></path></svg>